%TF.GenerationSoftware,KiCad,Pcbnew,9.0.7*%
%TF.CreationDate,2026-02-18T17:18:56+00:00*%
%TF.ProjectId,hc_real_pad,68635f72-6561-46c5-9f70-61642e6b6963,rev?*%
%TF.SameCoordinates,Original*%
%TF.FileFunction,Soldermask,Bot*%
%TF.FilePolarity,Negative*%
%FSLAX46Y46*%
G04 Gerber Fmt 4.6, Leading zero omitted, Abs format (unit mm)*
G04 Created by KiCad (PCBNEW 9.0.7) date 2026-02-18 17:18:56*
%MOMM*%
%LPD*%
G01*
G04 APERTURE LIST*
G04 Aperture macros list*
%AMRoundRect*
0 Rectangle with rounded corners*
0 $1 Rounding radius*
0 $2 $3 $4 $5 $6 $7 $8 $9 X,Y pos of 4 corners*
0 Add a 4 corners polygon primitive as box body*
4,1,4,$2,$3,$4,$5,$6,$7,$8,$9,$2,$3,0*
0 Add four circle primitives for the rounded corners*
1,1,$1+$1,$2,$3*
1,1,$1+$1,$4,$5*
1,1,$1+$1,$6,$7*
1,1,$1+$1,$8,$9*
0 Add four rect primitives between the rounded corners*
20,1,$1+$1,$2,$3,$4,$5,0*
20,1,$1+$1,$4,$5,$6,$7,0*
20,1,$1+$1,$6,$7,$8,$9,0*
20,1,$1+$1,$8,$9,$2,$3,0*%
G04 Aperture macros list end*
%ADD10C,1.700000*%
%ADD11C,4.000000*%
%ADD12C,2.200000*%
%ADD13R,2.000000X2.000000*%
%ADD14C,2.000000*%
%ADD15R,3.200000X2.000000*%
%ADD16RoundRect,0.082000X-0.328000X-0.718000X0.328000X-0.718000X0.328000X0.718000X-0.328000X0.718000X0*%
%ADD17RoundRect,0.082000X0.328000X0.718000X-0.328000X0.718000X-0.328000X-0.718000X0.328000X-0.718000X0*%
%ADD18R,3.500000X1.700000*%
%ADD19O,3.600000X1.700000*%
%ADD20O,3.700000X1.700000*%
%ADD21RoundRect,0.250000X-0.550000X-0.550000X0.550000X-0.550000X0.550000X0.550000X-0.550000X0.550000X0*%
%ADD22C,1.600000*%
%ADD23R,1.700000X1.700000*%
%ADD24O,1.700000X1.700000*%
%ADD25RoundRect,0.250000X0.550000X0.550000X-0.550000X0.550000X-0.550000X-0.550000X0.550000X-0.550000X0*%
%ADD26RoundRect,0.250000X-0.550000X0.550000X-0.550000X-0.550000X0.550000X-0.550000X0.550000X0.550000X0*%
%ADD27RoundRect,0.250000X0.550000X-0.550000X0.550000X0.550000X-0.550000X0.550000X-0.550000X-0.550000X0*%
G04 APERTURE END LIST*
D10*
%TO.C,SW14*%
X165100000Y-121920000D03*
D11*
X170180000Y-121920000D03*
D10*
X175260000Y-121920000D03*
D12*
X172720000Y-116840000D03*
X166370000Y-119380000D03*
%TD*%
D10*
%TO.C,SW2*%
X107950000Y-121920000D03*
D11*
X113030000Y-121920000D03*
D10*
X118110000Y-121920000D03*
D12*
X115570000Y-116840000D03*
X109220000Y-119380000D03*
%TD*%
D13*
%TO.C,SW18*%
X197750000Y-102830000D03*
D14*
X197750000Y-97830000D03*
X197750000Y-100330000D03*
D15*
X190250000Y-105930000D03*
X190250000Y-94730000D03*
D14*
X183250000Y-97830000D03*
X183250000Y-102830000D03*
%TD*%
D16*
%TO.C,D21*%
X73823158Y-144526000D03*
X75323158Y-144526000D03*
X75323158Y-139326000D03*
X73823158Y-139326000D03*
%TD*%
%TO.C,D25*%
X65187158Y-144526000D03*
X66687158Y-144526000D03*
X66687158Y-139326000D03*
X65187158Y-139326000D03*
%TD*%
D10*
%TO.C,SW4*%
X107950000Y-160020000D03*
D11*
X113030000Y-160020000D03*
D10*
X118110000Y-160020000D03*
D12*
X115570000Y-154940000D03*
X109220000Y-157480000D03*
%TD*%
D16*
%TO.C,D26*%
X65187158Y-152400000D03*
X66687158Y-152400000D03*
X66687158Y-147200000D03*
X65187158Y-147200000D03*
%TD*%
D10*
%TO.C,SW11*%
X146050000Y-140970000D03*
D11*
X151130000Y-140970000D03*
D10*
X156210000Y-140970000D03*
D12*
X153670000Y-135890000D03*
X147320000Y-138430000D03*
%TD*%
D17*
%TO.C,D31*%
X70956842Y-147200002D03*
X69456842Y-147200002D03*
X69456842Y-152400002D03*
X70956842Y-152400002D03*
%TD*%
D16*
%TO.C,D23*%
X65187158Y-128778000D03*
X66687158Y-128778000D03*
X66687158Y-123578000D03*
X65187158Y-123578000D03*
%TD*%
D10*
%TO.C,SW1*%
X107950000Y-102870000D03*
D11*
X113030000Y-102870000D03*
D10*
X118110000Y-102870000D03*
D12*
X115570000Y-97790000D03*
X109220000Y-100330000D03*
%TD*%
D10*
%TO.C,SW6*%
X127000000Y-121920000D03*
D11*
X132080000Y-121920000D03*
D10*
X137160000Y-121920000D03*
D12*
X134620000Y-116840000D03*
X128270000Y-119380000D03*
%TD*%
D17*
%TO.C,D34*%
X70956842Y-123578002D03*
X69456842Y-123578002D03*
X69456842Y-128778002D03*
X70956842Y-128778002D03*
%TD*%
%TO.C,D27*%
X79592842Y-147260001D03*
X78092842Y-147260001D03*
X78092842Y-152460001D03*
X79592842Y-152460001D03*
%TD*%
D10*
%TO.C,SW8*%
X127000000Y-160020000D03*
D11*
X132080000Y-160020000D03*
D10*
X137160000Y-160020000D03*
D12*
X134620000Y-154940000D03*
X128270000Y-157480000D03*
%TD*%
D10*
%TO.C,SW9*%
X146050000Y-102870000D03*
D11*
X151130000Y-102870000D03*
D10*
X156210000Y-102870000D03*
D12*
X153670000Y-97790000D03*
X147320000Y-100330000D03*
%TD*%
D13*
%TO.C,SW17*%
X197750000Y-119340000D03*
D14*
X197750000Y-114340000D03*
X197750000Y-116840000D03*
D15*
X190250000Y-122440000D03*
X190250000Y-111240000D03*
D14*
X183250000Y-114340000D03*
X183250000Y-119340000D03*
%TD*%
D17*
%TO.C,D33*%
X70956842Y-131452002D03*
X69456842Y-131452002D03*
X69456842Y-136652002D03*
X70956842Y-136652002D03*
%TD*%
%TO.C,D32*%
X70956842Y-139326002D03*
X69456842Y-139326002D03*
X69456842Y-144526002D03*
X70956842Y-144526002D03*
%TD*%
D10*
%TO.C,SW3*%
X107950000Y-140970000D03*
D11*
X113030000Y-140970000D03*
D10*
X118110000Y-140970000D03*
D12*
X115570000Y-135890000D03*
X109220000Y-138430000D03*
%TD*%
D10*
%TO.C,SW5*%
X127000000Y-102870000D03*
D11*
X132080000Y-102870000D03*
D10*
X137160000Y-102870000D03*
D12*
X134620000Y-97790000D03*
X128270000Y-100330000D03*
%TD*%
D16*
%TO.C,D24*%
X65187158Y-136652000D03*
X66687158Y-136652000D03*
X66687158Y-131452000D03*
X65187158Y-131452000D03*
%TD*%
D10*
%TO.C,SW12*%
X146050000Y-160020000D03*
D11*
X151130000Y-160020000D03*
D10*
X156210000Y-160020000D03*
D12*
X153670000Y-154940000D03*
X147320000Y-157480000D03*
%TD*%
D18*
%TO.C,U1*%
X63760000Y-100330000D03*
D19*
X63760000Y-102870000D03*
X63760000Y-105410000D03*
X63760000Y-107950000D03*
X63760000Y-110490000D03*
X63760000Y-113030000D03*
X63760000Y-115570000D03*
X81010000Y-115570000D03*
X81010000Y-113030000D03*
X81010000Y-110490000D03*
D20*
X81010000Y-107950000D03*
X81010000Y-105410000D03*
X81010000Y-102870000D03*
X81010000Y-100330000D03*
%TD*%
D17*
%TO.C,D29*%
X79592842Y-131452002D03*
X78092842Y-131452002D03*
X78092842Y-136652002D03*
X79592842Y-136652002D03*
%TD*%
D10*
%TO.C,SW15*%
X165100000Y-140970000D03*
D11*
X170180000Y-140970000D03*
D10*
X175260000Y-140970000D03*
D12*
X172720000Y-135890000D03*
X166370000Y-138430000D03*
%TD*%
D10*
%TO.C,SW16*%
X165100000Y-160020000D03*
D11*
X170180000Y-160020000D03*
D10*
X175260000Y-160020000D03*
D12*
X172720000Y-154940000D03*
X166370000Y-157480000D03*
%TD*%
D17*
%TO.C,D30*%
X79592842Y-123578002D03*
X78092842Y-123578002D03*
X78092842Y-128778002D03*
X79592842Y-128778002D03*
%TD*%
D21*
%TO.C,U3*%
X91440000Y-113030000D03*
D22*
X91440000Y-115570000D03*
X91440000Y-118110000D03*
X91440000Y-120650000D03*
X91440000Y-123190000D03*
X91440000Y-125730000D03*
X91440000Y-128270000D03*
X91440000Y-130810000D03*
X91440000Y-133350000D03*
X91440000Y-135890000D03*
X91440000Y-138430000D03*
X91440000Y-140970000D03*
X91440000Y-143510000D03*
X91440000Y-146050000D03*
X99060000Y-146050000D03*
X99060000Y-143510000D03*
X99060000Y-140970000D03*
X99060000Y-138430000D03*
X99060000Y-135890000D03*
X99060000Y-133350000D03*
X99060000Y-130810000D03*
X99060000Y-128270000D03*
X99060000Y-125730000D03*
X99060000Y-123190000D03*
X99060000Y-120650000D03*
X99060000Y-118110000D03*
X99060000Y-115570000D03*
X99060000Y-113030000D03*
%TD*%
D23*
%TO.C,J1*%
X63665000Y-167525000D03*
D24*
X63665000Y-164985000D03*
X63665000Y-162445000D03*
X63665000Y-159905000D03*
%TD*%
D17*
%TO.C,D28*%
X79592842Y-139326002D03*
X78092842Y-139326002D03*
X78092842Y-144526002D03*
X79592842Y-144526002D03*
%TD*%
D10*
%TO.C,SW10*%
X146050000Y-121920000D03*
D11*
X151130000Y-121920000D03*
D10*
X156210000Y-121920000D03*
D12*
X153670000Y-116840000D03*
X147320000Y-119380000D03*
%TD*%
D16*
%TO.C,D19*%
X73823158Y-128778000D03*
X75323158Y-128778000D03*
X75323158Y-123578000D03*
X73823158Y-123578000D03*
%TD*%
D10*
%TO.C,SW13*%
X165100000Y-102870000D03*
D11*
X170180000Y-102870000D03*
D10*
X175260000Y-102870000D03*
D12*
X172720000Y-97790000D03*
X166370000Y-100330000D03*
%TD*%
D10*
%TO.C,SW7*%
X127000000Y-140970000D03*
D11*
X132080000Y-140970000D03*
D10*
X137160000Y-140970000D03*
D12*
X134620000Y-135890000D03*
X128270000Y-138430000D03*
%TD*%
D16*
%TO.C,D22*%
X73823158Y-152400000D03*
X75323158Y-152400000D03*
X75323158Y-147200000D03*
X73823158Y-147200000D03*
%TD*%
%TO.C,D20*%
X73823158Y-136652000D03*
X75323158Y-136652000D03*
X75323158Y-131452000D03*
X73823158Y-131452000D03*
%TD*%
D25*
%TO.C,D11*%
X154940000Y-149860000D03*
D22*
X147320000Y-149860000D03*
%TD*%
D25*
%TO.C,D4*%
X116840000Y-168910000D03*
D22*
X109220000Y-168910000D03*
%TD*%
D25*
%TO.C,D9*%
X154940000Y-111760000D03*
D22*
X147320000Y-111760000D03*
%TD*%
D25*
%TO.C,D14*%
X173990000Y-130810000D03*
D22*
X166370000Y-130810000D03*
%TD*%
D26*
%TO.C,D17*%
X201930000Y-115570000D03*
D22*
X201930000Y-123190000D03*
%TD*%
D25*
%TO.C,D7*%
X135890000Y-149860000D03*
D22*
X128270000Y-149860000D03*
%TD*%
D25*
%TO.C,D6*%
X135890000Y-130810000D03*
D22*
X128270000Y-130810000D03*
%TD*%
D25*
%TO.C,D10*%
X154940000Y-130810000D03*
D22*
X147320000Y-130810000D03*
%TD*%
D25*
%TO.C,D13*%
X173990000Y-111760000D03*
D22*
X166370000Y-111760000D03*
%TD*%
D25*
%TO.C,D16*%
X173990000Y-168910000D03*
D22*
X166370000Y-168910000D03*
%TD*%
D25*
%TO.C,D1*%
X116840000Y-111760000D03*
D22*
X109220000Y-111760000D03*
%TD*%
D25*
%TO.C,D8*%
X135890000Y-168910000D03*
D22*
X128270000Y-168910000D03*
%TD*%
D25*
%TO.C,D5*%
X135890000Y-111760000D03*
D22*
X128270000Y-111760000D03*
%TD*%
D25*
%TO.C,D12*%
X154940000Y-168910000D03*
D22*
X147320000Y-168910000D03*
%TD*%
D25*
%TO.C,D2*%
X116840000Y-130810000D03*
D22*
X109220000Y-130810000D03*
%TD*%
D27*
%TO.C,D18*%
X201930000Y-111760000D03*
D22*
X201930000Y-104140000D03*
%TD*%
D25*
%TO.C,D3*%
X116840000Y-149860000D03*
D22*
X109220000Y-149860000D03*
%TD*%
D25*
%TO.C,D15*%
X173990000Y-149860000D03*
D22*
X166370000Y-149860000D03*
%TD*%
M02*
