M48
; DRILL file {KiCad 9.0.7} date 2026-02-18T17:18:56+0000
; FORMAT={-:-/ absolute / inch / decimal}
; #@! TF.CreationDate,2026-02-18T17:18:56+00:00
; #@! TF.GenerationSoftware,Kicad,Pcbnew,9.0.7
; #@! TF.FileFunction,NonPlated,1,2,NPTH
FMAT,2
INCH
; #@! TA.AperFunction,NonPlated,NPTH,ComponentDrill
T1C0.0669
; #@! TA.AperFunction,NonPlated,NPTH,ComponentDrill
T2C0.1575
%
G90
G05
T1
X4.25Y-4.05
X4.25Y-4.8
X4.25Y-5.55
X4.25Y-6.3
X4.65Y-4.05
X4.65Y-4.8
X4.65Y-5.55
X4.65Y-6.3
X5.0Y-4.05
X5.0Y-4.8
X5.0Y-5.55
X5.0Y-6.3
X5.4Y-4.05
X5.4Y-4.8
X5.4Y-5.55
X5.4Y-6.3
X5.75Y-4.05
X5.75Y-4.8
X5.75Y-5.55
X5.75Y-6.3
X6.15Y-4.05
X6.15Y-4.8
X6.15Y-5.55
X6.15Y-6.3
X6.5Y-4.05
X6.5Y-4.8
X6.5Y-5.55
X6.5Y-6.3
X6.9Y-4.05
X6.9Y-4.8
X6.9Y-5.55
X6.9Y-6.3
T2
X4.45Y-4.05
X4.45Y-4.8
X4.45Y-5.55
X4.45Y-6.3
X5.2Y-4.05
X5.2Y-4.8
X5.2Y-5.55
X5.2Y-6.3
X5.95Y-4.05
X5.95Y-4.8
X5.95Y-5.55
X5.95Y-6.3
X6.7Y-4.05
X6.7Y-4.8
X6.7Y-5.55
X6.7Y-6.3
M30
