%TF.GenerationSoftware,KiCad,Pcbnew,9.0.7*%
%TF.CreationDate,2026-02-18T23:53:23+00:00*%
%TF.ProjectId,hc_real_pad,68635f72-6561-46c5-9f70-61642e6b6963,rev?*%
%TF.SameCoordinates,Original*%
%TF.FileFunction,Legend,Top*%
%TF.FilePolarity,Positive*%
%FSLAX46Y46*%
G04 Gerber Fmt 4.6, Leading zero omitted, Abs format (unit mm)*
G04 Created by KiCad (PCBNEW 9.0.7) date 2026-02-18 23:53:23*
%MOMM*%
%LPD*%
G01*
G04 APERTURE LIST*
G04 Aperture macros list*
%AMRoundRect*
0 Rectangle with rounded corners*
0 $1 Rounding radius*
0 $2 $3 $4 $5 $6 $7 $8 $9 X,Y pos of 4 corners*
0 Add a 4 corners polygon primitive as box body*
4,1,4,$2,$3,$4,$5,$6,$7,$8,$9,$2,$3,0*
0 Add four circle primitives for the rounded corners*
1,1,$1+$1,$2,$3*
1,1,$1+$1,$4,$5*
1,1,$1+$1,$6,$7*
1,1,$1+$1,$8,$9*
0 Add four rect primitives between the rounded corners*
20,1,$1+$1,$2,$3,$4,$5,0*
20,1,$1+$1,$4,$5,$6,$7,0*
20,1,$1+$1,$6,$7,$8,$9,0*
20,1,$1+$1,$8,$9,$2,$3,0*%
G04 Aperture macros list end*
%ADD10C,0.150000*%
%ADD11C,0.100000*%
%ADD12C,0.200000*%
%ADD13C,0.101600*%
%ADD14C,0.120000*%
%ADD15C,0.127000*%
%ADD16C,0.254000*%
%ADD17C,0.025400*%
%ADD18C,0.040000*%
%ADD19C,1.700000*%
%ADD20C,4.000000*%
%ADD21C,2.200000*%
%ADD22R,2.000000X2.000000*%
%ADD23C,2.000000*%
%ADD24R,3.200000X2.000000*%
%ADD25R,3.500000X1.700000*%
%ADD26O,3.600000X1.700000*%
%ADD27O,3.700000X1.700000*%
%ADD28RoundRect,0.250000X-0.550000X-0.550000X0.550000X-0.550000X0.550000X0.550000X-0.550000X0.550000X0*%
%ADD29C,1.600000*%
%ADD30R,1.700000X1.700000*%
%ADD31O,1.700000X1.700000*%
%ADD32RoundRect,0.250000X0.550000X0.550000X-0.550000X0.550000X-0.550000X-0.550000X0.550000X-0.550000X0*%
%ADD33RoundRect,0.250000X-0.550000X0.550000X-0.550000X-0.550000X0.550000X-0.550000X0.550000X0.550000X0*%
%ADD34RoundRect,0.250000X0.550000X-0.550000X0.550000X0.550000X-0.550000X0.550000X-0.550000X-0.550000X0*%
G04 APERTURE END LIST*
D10*
G36*
X66434961Y-155261831D02*
G01*
X66349720Y-155150212D01*
X65874302Y-155150212D01*
X65776482Y-155270258D01*
X65776482Y-155359528D01*
X66541573Y-156024724D01*
X66563175Y-156054085D01*
X66570760Y-156094577D01*
X66570760Y-156259441D01*
X66566412Y-156286784D01*
X66552564Y-156315373D01*
X66422627Y-156488663D01*
X66396123Y-156512691D01*
X66373778Y-156519316D01*
X65839741Y-156519316D01*
X65815286Y-156513376D01*
X65792236Y-156494159D01*
X65653872Y-156323066D01*
X65638152Y-156295775D01*
X65632868Y-156264082D01*
X65632868Y-156177254D01*
X65768667Y-156177254D01*
X65768667Y-156230254D01*
X65867341Y-156347369D01*
X66345446Y-156347369D01*
X66434961Y-156224637D01*
X66434961Y-156138175D01*
X65670115Y-155475055D01*
X65648321Y-155445790D01*
X65640683Y-155405446D01*
X65640683Y-155238262D01*
X65645966Y-155206820D01*
X65661688Y-155179766D01*
X65798709Y-155009773D01*
X65819547Y-154993047D01*
X65846214Y-154987424D01*
X66375732Y-154987424D01*
X66402409Y-154993021D01*
X66423237Y-155009651D01*
X66555983Y-155170607D01*
X66570571Y-155196518D01*
X66575645Y-155228981D01*
X66575645Y-155317641D01*
X66434961Y-155317641D01*
X66434961Y-155261831D01*
G37*
G36*
X66856036Y-154987424D02*
G01*
X66991835Y-154987424D01*
X66991835Y-155659581D01*
X67665945Y-155659581D01*
X67665945Y-154987424D01*
X67801744Y-154987424D01*
X67801744Y-156519316D01*
X67665945Y-156519316D01*
X67665945Y-155815896D01*
X66991835Y-155815896D01*
X66991835Y-156519316D01*
X66856036Y-156519316D01*
X66856036Y-154987424D01*
G37*
G36*
X68852852Y-154994216D02*
G01*
X68870551Y-155012704D01*
X69006716Y-155186360D01*
X69019980Y-155210309D01*
X69024912Y-155245223D01*
X69024912Y-156267257D01*
X69019540Y-156302901D01*
X69005251Y-156326120D01*
X68866277Y-156494281D01*
X68843219Y-156513393D01*
X68818649Y-156519316D01*
X68281315Y-156519316D01*
X68252630Y-156513459D01*
X68233565Y-156496967D01*
X68100209Y-156337355D01*
X68084695Y-156310726D01*
X68079204Y-156275683D01*
X68079204Y-155273311D01*
X68219888Y-155273311D01*
X68219888Y-156235505D01*
X68308426Y-156347369D01*
X68790683Y-156347369D01*
X68889113Y-156227079D01*
X68889113Y-155276120D01*
X68790683Y-155150212D01*
X68311235Y-155150212D01*
X68219888Y-155273311D01*
X68079204Y-155273311D01*
X68079204Y-155242414D01*
X68084334Y-155216197D01*
X68101552Y-155186360D01*
X68232222Y-155012704D01*
X68253620Y-154993731D01*
X68281315Y-154987424D01*
X68821336Y-154987424D01*
X68852852Y-154994216D01*
G37*
G36*
X69770952Y-156213279D02*
G01*
X69555041Y-156494159D01*
X69531856Y-156513365D01*
X69507170Y-156519316D01*
X69482600Y-156513393D01*
X69459542Y-156494281D01*
X69323377Y-156326852D01*
X69307651Y-156299696D01*
X69302372Y-156268234D01*
X69302372Y-154987424D01*
X69438171Y-154987424D01*
X69438171Y-156234651D01*
X69508269Y-156315617D01*
X69705861Y-156058918D01*
X69705861Y-155671060D01*
X69841660Y-155671060D01*
X69841660Y-156064535D01*
X70042184Y-156315617D01*
X70112281Y-156231964D01*
X70112281Y-154987424D01*
X70248080Y-154987424D01*
X70248080Y-156268234D01*
X70242905Y-156303259D01*
X70228419Y-156329661D01*
X70089445Y-156494281D01*
X70063504Y-156513800D01*
X70041817Y-156519316D01*
X70019378Y-156513123D01*
X69994068Y-156491350D01*
X69770952Y-156213279D01*
G37*
G36*
X72287997Y-155623189D02*
G01*
X72287997Y-155836046D01*
X72152198Y-155836046D01*
X72152198Y-155623189D01*
X71884508Y-155275875D01*
X71884508Y-156519316D01*
X71748709Y-156519316D01*
X71748709Y-155074253D01*
X71759972Y-155025867D01*
X71792062Y-154995851D01*
X71817341Y-154987424D01*
X71839780Y-154993617D01*
X71865090Y-155015390D01*
X72217288Y-155466385D01*
X72578157Y-155009895D01*
X72599314Y-154993141D01*
X72627250Y-154987424D01*
X72634944Y-154986081D01*
X72642759Y-154984616D01*
X72652529Y-154987424D01*
X72683204Y-155016891D01*
X72694417Y-155068635D01*
X72694417Y-156519316D01*
X72558618Y-156519316D01*
X72558618Y-155270258D01*
X72287997Y-155623189D01*
G37*
G36*
X72971877Y-154987424D02*
G01*
X73913677Y-154987424D01*
X73913677Y-155159371D01*
X73107676Y-155159371D01*
X73107676Y-155659581D01*
X73647941Y-155659581D01*
X73647941Y-155831528D01*
X73107676Y-155831528D01*
X73107676Y-156347369D01*
X73913677Y-156347369D01*
X73913677Y-156519316D01*
X72971877Y-156519316D01*
X72971877Y-154987424D01*
G37*
G36*
X75886793Y-156213279D02*
G01*
X75670882Y-156494159D01*
X75647697Y-156513365D01*
X75623011Y-156519316D01*
X75598441Y-156513393D01*
X75575383Y-156494281D01*
X75439218Y-156326852D01*
X75423492Y-156299696D01*
X75418213Y-156268234D01*
X75418213Y-154987424D01*
X75554012Y-154987424D01*
X75554012Y-156234651D01*
X75624110Y-156315617D01*
X75821702Y-156058918D01*
X75821702Y-155671060D01*
X75957501Y-155671060D01*
X75957501Y-156064535D01*
X76158025Y-156315617D01*
X76228122Y-156231964D01*
X76228122Y-154987424D01*
X76363921Y-154987424D01*
X76363921Y-156268234D01*
X76358746Y-156303259D01*
X76344260Y-156329661D01*
X76205286Y-156494281D01*
X76179344Y-156513800D01*
X76157658Y-156519316D01*
X76135219Y-156513123D01*
X76109909Y-156491350D01*
X75886793Y-156213279D01*
G37*
G36*
X76641381Y-154987424D02*
G01*
X76777180Y-154987424D01*
X76777180Y-155659581D01*
X77451290Y-155659581D01*
X77451290Y-154987424D01*
X77587090Y-154987424D01*
X77587090Y-156519316D01*
X77451290Y-156519316D01*
X77451290Y-155815896D01*
X76777180Y-155815896D01*
X76777180Y-156519316D01*
X76641381Y-156519316D01*
X76641381Y-154987424D01*
G37*
G36*
X78362340Y-154993740D02*
G01*
X78385031Y-155012581D01*
X78792062Y-155521461D01*
X78805334Y-155545380D01*
X78810258Y-155580080D01*
X78810258Y-156519316D01*
X78674459Y-156519316D01*
X78674459Y-155972212D01*
X78000348Y-155972212D01*
X78000348Y-156519316D01*
X77864549Y-156519316D01*
X77864549Y-155609511D01*
X78001692Y-155609511D01*
X78001692Y-155815896D01*
X78674459Y-155815896D01*
X78674459Y-155612320D01*
X78336671Y-155193810D01*
X78001692Y-155609511D01*
X77864549Y-155609511D01*
X77864549Y-155573241D01*
X77869270Y-155548242D01*
X77885554Y-155517554D01*
X78288311Y-155012581D01*
X78309077Y-154993457D01*
X78333129Y-154987424D01*
X78362340Y-154993740D01*
G37*
G36*
X79087718Y-154987424D02*
G01*
X80033426Y-154987424D01*
X80033426Y-155159371D01*
X79627006Y-155159371D01*
X79627006Y-156519316D01*
X79491207Y-156519316D01*
X79491207Y-155159371D01*
X79087718Y-155159371D01*
X79087718Y-154987424D01*
G37*
G36*
X81807606Y-154987424D02*
G01*
X82214026Y-154987424D01*
X82214026Y-155159371D01*
X82076273Y-155159371D01*
X82076273Y-156347369D01*
X82214026Y-156347369D01*
X82214026Y-156519316D01*
X81807606Y-156519316D01*
X81807606Y-156347369D01*
X81940474Y-156347369D01*
X81940474Y-155159371D01*
X81807606Y-155159371D01*
X81807606Y-154987424D01*
G37*
G36*
X83980390Y-156519316D02*
G01*
X83980390Y-154987424D01*
X84116189Y-154987424D01*
X84790300Y-155841542D01*
X84790300Y-154987424D01*
X84926099Y-154987424D01*
X84926099Y-156519316D01*
X84790300Y-156519316D01*
X84790300Y-156099218D01*
X84116189Y-155236674D01*
X84116189Y-156519316D01*
X83980390Y-156519316D01*
G37*
G36*
X85203558Y-154987424D02*
G01*
X86145359Y-154987424D01*
X86145359Y-155159371D01*
X85339357Y-155159371D01*
X85339357Y-155659581D01*
X85879623Y-155659581D01*
X85879623Y-155831528D01*
X85339357Y-155831528D01*
X85339357Y-156347369D01*
X86145359Y-156347369D01*
X86145359Y-156519316D01*
X85203558Y-156519316D01*
X85203558Y-154987424D01*
G37*
G36*
X86426727Y-154987424D02*
G01*
X87368527Y-154987424D01*
X87368527Y-155159371D01*
X86562526Y-155159371D01*
X86562526Y-155659581D01*
X87102791Y-155659581D01*
X87102791Y-155831528D01*
X86562526Y-155831528D01*
X86562526Y-156347369D01*
X87368527Y-156347369D01*
X87368527Y-156519316D01*
X86426727Y-156519316D01*
X86426727Y-154987424D01*
G37*
G36*
X88278788Y-154993745D02*
G01*
X88298970Y-155012581D01*
X88571057Y-155353667D01*
X88585545Y-155378767D01*
X88590718Y-155412407D01*
X88590718Y-156094455D01*
X88585922Y-156125528D01*
X88571057Y-156156004D01*
X88297505Y-156491472D01*
X88272219Y-156513037D01*
X88248656Y-156519316D01*
X87649895Y-156519316D01*
X87649895Y-156350177D01*
X87782763Y-156350177D01*
X87782763Y-156347369D01*
X87918562Y-156347369D01*
X88221667Y-156347369D01*
X88454919Y-156059284D01*
X88454919Y-155443914D01*
X88221667Y-155150212D01*
X87918562Y-155150212D01*
X87918562Y-156347369D01*
X87782763Y-156347369D01*
X87782763Y-155150212D01*
X87649895Y-155150212D01*
X87649895Y-154987424D01*
X88251465Y-154987424D01*
X88278788Y-154993745D01*
G37*
G36*
X90096231Y-154987424D02*
G01*
X91041939Y-154987424D01*
X91041939Y-155159371D01*
X90635519Y-155159371D01*
X90635519Y-156519316D01*
X90499720Y-156519316D01*
X90499720Y-155159371D01*
X90096231Y-155159371D01*
X90096231Y-154987424D01*
G37*
G36*
X92093048Y-154994216D02*
G01*
X92110746Y-155012704D01*
X92246912Y-155186360D01*
X92260175Y-155210309D01*
X92265108Y-155245223D01*
X92265108Y-156267257D01*
X92259735Y-156302901D01*
X92245446Y-156326120D01*
X92106472Y-156494281D01*
X92083414Y-156513393D01*
X92058845Y-156519316D01*
X91521510Y-156519316D01*
X91492825Y-156513459D01*
X91473761Y-156496967D01*
X91340404Y-156337355D01*
X91324891Y-156310726D01*
X91319399Y-156275683D01*
X91319399Y-155273311D01*
X91460083Y-155273311D01*
X91460083Y-156235505D01*
X91548621Y-156347369D01*
X92030879Y-156347369D01*
X92129309Y-156227079D01*
X92129309Y-155276120D01*
X92030879Y-155150212D01*
X91551430Y-155150212D01*
X91460083Y-155273311D01*
X91319399Y-155273311D01*
X91319399Y-155242414D01*
X91324530Y-155216197D01*
X91341748Y-155186360D01*
X91472418Y-155012704D01*
X91493815Y-154993731D01*
X91521510Y-154987424D01*
X92061531Y-154987424D01*
X92093048Y-154994216D01*
G37*
G36*
X93906420Y-156130725D02*
G01*
X93906420Y-156519316D01*
X93765736Y-156519316D01*
X93765736Y-154987424D01*
X93906420Y-154987424D01*
X93906420Y-155890390D01*
X94570760Y-155040547D01*
X94570760Y-154987424D01*
X94706559Y-154987424D01*
X94706559Y-155074131D01*
X94701275Y-155105698D01*
X94685554Y-155132871D01*
X94197313Y-155753370D01*
X94686898Y-156373991D01*
X94701480Y-156400038D01*
X94706559Y-156432732D01*
X94706559Y-156519316D01*
X94570760Y-156519316D01*
X94570760Y-156466193D01*
X94100837Y-155870729D01*
X93906420Y-156130725D01*
G37*
G36*
X94988904Y-156519316D02*
G01*
X94988904Y-154987424D01*
X95124703Y-154987424D01*
X95798813Y-155841542D01*
X95798813Y-154987424D01*
X95934612Y-154987424D01*
X95934612Y-156519316D01*
X95798813Y-156519316D01*
X95798813Y-156099218D01*
X95124703Y-155236674D01*
X95124703Y-156519316D01*
X94988904Y-156519316D01*
G37*
G36*
X96985720Y-154994216D02*
G01*
X97003419Y-155012704D01*
X97139584Y-155186360D01*
X97152848Y-155210309D01*
X97157780Y-155245223D01*
X97157780Y-156267257D01*
X97152408Y-156302901D01*
X97138119Y-156326120D01*
X96999145Y-156494281D01*
X96976087Y-156513393D01*
X96951517Y-156519316D01*
X96414183Y-156519316D01*
X96385498Y-156513459D01*
X96366434Y-156496967D01*
X96233077Y-156337355D01*
X96217564Y-156310726D01*
X96212072Y-156275683D01*
X96212072Y-155273311D01*
X96352756Y-155273311D01*
X96352756Y-156235505D01*
X96441294Y-156347369D01*
X96923551Y-156347369D01*
X97021981Y-156227079D01*
X97021981Y-155276120D01*
X96923551Y-155150212D01*
X96444103Y-155150212D01*
X96352756Y-155273311D01*
X96212072Y-155273311D01*
X96212072Y-155242414D01*
X96217203Y-155216197D01*
X96234420Y-155186360D01*
X96365090Y-155012704D01*
X96386488Y-154993731D01*
X96414183Y-154987424D01*
X96954204Y-154987424D01*
X96985720Y-154994216D01*
G37*
G36*
X97903820Y-156213279D02*
G01*
X97687909Y-156494159D01*
X97664724Y-156513365D01*
X97640038Y-156519316D01*
X97615468Y-156513393D01*
X97592411Y-156494281D01*
X97456245Y-156326852D01*
X97440519Y-156299696D01*
X97435240Y-156268234D01*
X97435240Y-154987424D01*
X97571039Y-154987424D01*
X97571039Y-156234651D01*
X97641137Y-156315617D01*
X97838729Y-156058918D01*
X97838729Y-155671060D01*
X97974528Y-155671060D01*
X97974528Y-156064535D01*
X98175052Y-156315617D01*
X98245150Y-156231964D01*
X98245150Y-154987424D01*
X98380949Y-154987424D01*
X98380949Y-156268234D01*
X98375773Y-156303259D01*
X98361287Y-156329661D01*
X98222313Y-156494281D01*
X98196372Y-156513800D01*
X98174685Y-156519316D01*
X98152246Y-156513123D01*
X98126936Y-156491350D01*
X97903820Y-156213279D01*
G37*
D11*
G36*
X87261761Y-98493745D02*
G01*
X87281943Y-98512581D01*
X87554030Y-98853667D01*
X87568518Y-98878767D01*
X87573691Y-98912407D01*
X87573691Y-99594455D01*
X87568894Y-99625528D01*
X87554030Y-99656004D01*
X87280478Y-99991472D01*
X87255191Y-100013037D01*
X87231629Y-100019316D01*
X86632868Y-100019316D01*
X86632868Y-99850177D01*
X86765736Y-99850177D01*
X86765736Y-99847369D01*
X86901535Y-99847369D01*
X87204640Y-99847369D01*
X87437892Y-99559284D01*
X87437892Y-98943914D01*
X87204640Y-98650212D01*
X86901535Y-98650212D01*
X86901535Y-99847369D01*
X86765736Y-99847369D01*
X86765736Y-98650212D01*
X86632868Y-98650212D01*
X86632868Y-98487424D01*
X87234438Y-98487424D01*
X87261761Y-98493745D01*
G37*
G36*
X88504543Y-98829909D02*
G01*
X88524895Y-98848782D01*
X88657152Y-99017309D01*
X88671660Y-99042111D01*
X88676692Y-99073241D01*
X88676692Y-99856528D01*
X88817376Y-99856528D01*
X88817376Y-100019316D01*
X88055094Y-100019316D01*
X88027643Y-100012992D01*
X88007344Y-99994159D01*
X87875697Y-99819891D01*
X87861205Y-99794571D01*
X87856036Y-99760785D01*
X87856036Y-99625840D01*
X87991835Y-99625840D01*
X87991835Y-99730010D01*
X88086357Y-99856528D01*
X88540893Y-99856528D01*
X88540893Y-99502131D01*
X88087700Y-99502131D01*
X87991835Y-99625840D01*
X87856036Y-99625840D01*
X87856036Y-99592257D01*
X87860726Y-99563388D01*
X87875697Y-99533150D01*
X88008443Y-99361814D01*
X88030393Y-99344948D01*
X88057292Y-99339344D01*
X88540893Y-99339344D01*
X88540893Y-99104870D01*
X88449180Y-98986290D01*
X87989026Y-98986290D01*
X87989026Y-98823503D01*
X88476290Y-98823503D01*
X88504543Y-98829909D01*
G37*
G36*
X89322226Y-98916193D02*
G01*
X89376570Y-98848782D01*
X89396844Y-98829838D01*
X89424075Y-98823503D01*
X89704710Y-98823503D01*
X89728334Y-98828908D01*
X89750139Y-98846095D01*
X89886427Y-99009738D01*
X89902865Y-99042121D01*
X89907676Y-99068845D01*
X89907676Y-100019316D01*
X89774808Y-100019316D01*
X89774808Y-99105115D01*
X89678087Y-98995450D01*
X89451064Y-98995450D01*
X89355687Y-99113541D01*
X89355687Y-100019316D01*
X89219888Y-100019316D01*
X89219888Y-99079836D01*
X89229535Y-99046130D01*
X89189235Y-98986290D01*
X89079204Y-98986290D01*
X89079204Y-98823503D01*
X89220254Y-98823503D01*
X89246907Y-98829395D01*
X89263485Y-98845973D01*
X89322226Y-98916193D01*
G37*
G36*
X90708792Y-98307662D02*
G01*
X90844591Y-98307662D01*
X90844591Y-98479609D01*
X90708792Y-98479609D01*
X90708792Y-98307662D01*
G37*
G36*
X90708792Y-98823503D02*
G01*
X90844591Y-98823503D01*
X90844591Y-100019316D01*
X90708792Y-100019316D01*
X90708792Y-98823503D01*
G37*
G36*
X92170074Y-98830629D02*
G01*
X92193789Y-98854399D01*
X92326535Y-99028545D01*
X92341132Y-99053372D01*
X92346196Y-99084598D01*
X92346196Y-99511290D01*
X91661339Y-99511290D01*
X91661339Y-99735383D01*
X91756838Y-99863000D01*
X92354012Y-99863000D01*
X92354012Y-100019316D01*
X91728750Y-100019316D01*
X91702690Y-100013612D01*
X91684054Y-99996967D01*
X91542393Y-99828196D01*
X91530228Y-99805133D01*
X91525540Y-99769089D01*
X91525540Y-99122334D01*
X91664148Y-99122334D01*
X91664148Y-99339344D01*
X92213328Y-99339344D01*
X92213328Y-99119525D01*
X92116486Y-98995450D01*
X91762334Y-98995450D01*
X91664148Y-99122334D01*
X91525540Y-99122334D01*
X91525540Y-99088506D01*
X91530315Y-99065316D01*
X91548011Y-99032208D01*
X91684909Y-98854521D01*
X91712664Y-98830148D01*
X91735223Y-98823503D01*
X92144818Y-98823503D01*
X92170074Y-98830629D01*
G37*
G36*
X93290928Y-99808168D02*
G01*
X93320725Y-99847369D01*
X93432588Y-99847369D01*
X93432588Y-100019316D01*
X93292393Y-100019316D01*
X93268985Y-100013454D01*
X93246109Y-99994159D01*
X93176133Y-99907208D01*
X93160413Y-99879916D01*
X93155129Y-99848224D01*
X93155129Y-98307662D01*
X93290928Y-98307662D01*
X93290928Y-99808168D01*
G37*
G36*
X95826511Y-98493013D02*
G01*
X95847540Y-98509651D01*
X96121092Y-98839989D01*
X96135795Y-98865604D01*
X96140753Y-98895554D01*
X96140753Y-99073119D01*
X96135931Y-99106647D01*
X96122557Y-99131493D01*
X95847906Y-99472944D01*
X95821481Y-99496981D01*
X95800157Y-99503475D01*
X95330844Y-99503475D01*
X95330844Y-100019316D01*
X95195045Y-100019316D01*
X95195045Y-99331528D01*
X95330844Y-99331528D01*
X95769138Y-99331528D01*
X96004954Y-99042222D01*
X96004954Y-98934877D01*
X95770481Y-98659371D01*
X95330844Y-98659371D01*
X95330844Y-99331528D01*
X95195045Y-99331528D01*
X95195045Y-98487424D01*
X95799790Y-98487424D01*
X95826511Y-98493013D01*
G37*
G36*
X96824633Y-98307662D02*
G01*
X96960432Y-98307662D01*
X96960432Y-98479609D01*
X96824633Y-98479609D01*
X96824633Y-98307662D01*
G37*
G36*
X96824633Y-98823503D02*
G01*
X96960432Y-98823503D01*
X96960432Y-100019316D01*
X96824633Y-100019316D01*
X96824633Y-98823503D01*
G37*
G36*
X98183600Y-99808412D02*
G01*
X98213032Y-99847369D01*
X98323551Y-99847369D01*
X98323551Y-100019316D01*
X98184944Y-100019316D01*
X98161526Y-100013478D01*
X98138660Y-99994281D01*
X98068806Y-99907452D01*
X98053085Y-99880280D01*
X98047801Y-99848712D01*
X98047801Y-98995450D01*
X97766434Y-98995450D01*
X97766434Y-98823503D01*
X98047801Y-98823503D01*
X98047801Y-98307662D01*
X98183600Y-98307662D01*
X98183600Y-98823503D01*
X98462037Y-98823503D01*
X98462037Y-98995450D01*
X98183600Y-98995450D01*
X98183600Y-99808412D01*
G37*
G36*
X99411653Y-99112930D02*
G01*
X99411653Y-100019316D01*
X99275854Y-100019316D01*
X99275854Y-99112930D01*
X99184019Y-98995450D01*
X99100732Y-98995450D01*
X99000348Y-99115739D01*
X99000348Y-100019316D01*
X98864549Y-100019316D01*
X98864549Y-98823503D01*
X99001814Y-98823503D01*
X99001814Y-98872229D01*
X99022941Y-98847805D01*
X99045750Y-98829198D01*
X99069225Y-98823503D01*
X99211130Y-98823503D01*
X99238087Y-98829640D01*
X99261566Y-98848782D01*
X99343021Y-98958203D01*
X99429239Y-98849270D01*
X99452135Y-98829569D01*
X99476500Y-98823503D01*
X99620969Y-98823503D01*
X99645289Y-98829462D01*
X99668230Y-98848782D01*
X99800122Y-99014501D01*
X99815752Y-99041767D01*
X99821004Y-99073363D01*
X99821004Y-100019316D01*
X99685205Y-100019316D01*
X99685205Y-99110122D01*
X99593126Y-98995450D01*
X99505198Y-98995450D01*
X99411653Y-99112930D01*
G37*
G36*
X100736225Y-98829909D02*
G01*
X100756577Y-98848782D01*
X100888834Y-99017309D01*
X100903342Y-99042111D01*
X100908374Y-99073241D01*
X100908374Y-99856528D01*
X101049057Y-99856528D01*
X101049057Y-100019316D01*
X100286775Y-100019316D01*
X100259325Y-100012992D01*
X100239026Y-99994159D01*
X100107379Y-99819891D01*
X100092887Y-99794571D01*
X100087718Y-99760785D01*
X100087718Y-99625840D01*
X100223517Y-99625840D01*
X100223517Y-99730010D01*
X100318039Y-99856528D01*
X100772575Y-99856528D01*
X100772575Y-99502131D01*
X100319382Y-99502131D01*
X100223517Y-99625840D01*
X100087718Y-99625840D01*
X100087718Y-99592257D01*
X100092408Y-99563388D01*
X100107379Y-99533150D01*
X100240125Y-99361814D01*
X100262075Y-99344948D01*
X100288974Y-99339344D01*
X100772575Y-99339344D01*
X100772575Y-99104870D01*
X100680861Y-98986290D01*
X100220708Y-98986290D01*
X100220708Y-98823503D01*
X100707972Y-98823503D01*
X100736225Y-98829909D01*
G37*
G36*
X101553907Y-98916193D02*
G01*
X101608251Y-98848782D01*
X101628526Y-98829838D01*
X101655757Y-98823503D01*
X101936392Y-98823503D01*
X101960016Y-98828908D01*
X101981821Y-98846095D01*
X102118108Y-99009738D01*
X102134547Y-99042121D01*
X102139357Y-99068845D01*
X102139357Y-100019316D01*
X102006489Y-100019316D01*
X102006489Y-99105115D01*
X101909769Y-98995450D01*
X101682745Y-98995450D01*
X101587369Y-99113541D01*
X101587369Y-100019316D01*
X101451570Y-100019316D01*
X101451570Y-99079836D01*
X101461217Y-99046130D01*
X101420917Y-98986290D01*
X101310886Y-98986290D01*
X101310886Y-98823503D01*
X101451936Y-98823503D01*
X101478589Y-98829395D01*
X101495167Y-98845973D01*
X101553907Y-98916193D01*
G37*
G36*
X181132868Y-128487424D02*
G01*
X181268667Y-128487424D01*
X181268667Y-129730132D01*
X181366364Y-129847369D01*
X181850697Y-129847369D01*
X181942777Y-129727323D01*
X181942777Y-128487424D01*
X182078576Y-128487424D01*
X182078576Y-129764448D01*
X182073741Y-129796911D01*
X182060380Y-129820502D01*
X181929099Y-129991472D01*
X181905513Y-130012664D01*
X181878785Y-130019316D01*
X181335711Y-130019316D01*
X181311894Y-130013469D01*
X181288572Y-129994281D01*
X181151430Y-129828928D01*
X181137508Y-129800963D01*
X181132868Y-129770066D01*
X181132868Y-128487424D01*
G37*
G36*
X182356036Y-130019316D02*
G01*
X182356036Y-128487424D01*
X182491835Y-128487424D01*
X183165945Y-129341542D01*
X183165945Y-128487424D01*
X183301744Y-128487424D01*
X183301744Y-130019316D01*
X183165945Y-130019316D01*
X183165945Y-129599218D01*
X182491835Y-128736674D01*
X182491835Y-130019316D01*
X182356036Y-130019316D01*
G37*
G36*
X183579204Y-128487424D02*
G01*
X183715003Y-128487424D01*
X183715003Y-129847369D01*
X184521004Y-129847369D01*
X184521004Y-130019316D01*
X183579204Y-130019316D01*
X183579204Y-128487424D01*
G37*
G36*
X185576020Y-128494216D02*
G01*
X185593719Y-128512704D01*
X185729884Y-128686360D01*
X185743148Y-128710309D01*
X185748080Y-128745223D01*
X185748080Y-129767257D01*
X185742708Y-129802901D01*
X185728419Y-129826120D01*
X185589445Y-129994281D01*
X185566387Y-130013393D01*
X185541817Y-130019316D01*
X185004483Y-130019316D01*
X184975798Y-130013459D01*
X184956734Y-129996967D01*
X184823377Y-129837355D01*
X184807864Y-129810726D01*
X184802372Y-129775683D01*
X184802372Y-128773311D01*
X184943056Y-128773311D01*
X184943056Y-129735505D01*
X185031594Y-129847369D01*
X185513852Y-129847369D01*
X185612281Y-129727079D01*
X185612281Y-128776120D01*
X185513852Y-128650212D01*
X185034403Y-128650212D01*
X184943056Y-128773311D01*
X184802372Y-128773311D01*
X184802372Y-128742414D01*
X184807503Y-128716197D01*
X184824720Y-128686360D01*
X184955390Y-128512704D01*
X184976788Y-128493731D01*
X185004483Y-128487424D01*
X185544504Y-128487424D01*
X185576020Y-128494216D01*
G37*
G36*
X186969173Y-128676102D02*
G01*
X186873918Y-128792484D01*
X186753506Y-128650212D01*
X186533688Y-128650212D01*
X186161339Y-129107923D01*
X186161339Y-129389658D01*
X186536496Y-129847369D01*
X186752163Y-129847369D01*
X186869766Y-129693862D01*
X186969173Y-129811099D01*
X186830565Y-129993792D01*
X186807971Y-130013012D01*
X186780129Y-130019316D01*
X186508531Y-130019316D01*
X186487363Y-130013258D01*
X186462369Y-129991472D01*
X186046545Y-129488210D01*
X186030410Y-129457051D01*
X186025540Y-129429469D01*
X186025540Y-129077271D01*
X186030465Y-129042571D01*
X186043736Y-129018653D01*
X186459560Y-128509773D01*
X186478607Y-128493275D01*
X186507187Y-128487424D01*
X186780129Y-128487424D01*
X186807986Y-128492512D01*
X186827756Y-128506842D01*
X186969173Y-128676102D01*
G37*
G36*
X187389392Y-129630725D02*
G01*
X187389392Y-130019316D01*
X187248709Y-130019316D01*
X187248709Y-128487424D01*
X187389392Y-128487424D01*
X187389392Y-129390390D01*
X188053733Y-128540547D01*
X188053733Y-128487424D01*
X188189532Y-128487424D01*
X188189532Y-128574131D01*
X188184248Y-128605698D01*
X188168527Y-128632871D01*
X187680286Y-129253370D01*
X188169870Y-129873991D01*
X188184453Y-129900038D01*
X188189532Y-129932732D01*
X188189532Y-130019316D01*
X188053733Y-130019316D01*
X188053733Y-129966193D01*
X187583810Y-129370729D01*
X187389392Y-129630725D01*
G37*
G36*
X190234333Y-129120380D02*
G01*
X190234333Y-130019316D01*
X190098534Y-130019316D01*
X190098534Y-129120380D01*
X189716172Y-128633115D01*
X189700361Y-128605917D01*
X189695045Y-128574253D01*
X189695045Y-128487424D01*
X189830844Y-128487424D01*
X189830844Y-128540669D01*
X190170586Y-128966263D01*
X190504954Y-128540669D01*
X190504954Y-128487424D01*
X190640753Y-128487424D01*
X190640753Y-128568635D01*
X190635799Y-128604945D01*
X190622435Y-128630307D01*
X190234333Y-129120380D01*
G37*
G36*
X191691861Y-128494216D02*
G01*
X191709560Y-128512704D01*
X191845725Y-128686360D01*
X191858989Y-128710309D01*
X191863921Y-128745223D01*
X191863921Y-129767257D01*
X191858549Y-129802901D01*
X191844260Y-129826120D01*
X191705286Y-129994281D01*
X191682228Y-130013393D01*
X191657658Y-130019316D01*
X191120324Y-130019316D01*
X191091639Y-130013459D01*
X191072575Y-129996967D01*
X190939218Y-129837355D01*
X190923704Y-129810726D01*
X190918213Y-129775683D01*
X190918213Y-128773311D01*
X191058897Y-128773311D01*
X191058897Y-129735505D01*
X191147435Y-129847369D01*
X191629692Y-129847369D01*
X191728122Y-129727079D01*
X191728122Y-128776120D01*
X191629692Y-128650212D01*
X191150244Y-128650212D01*
X191058897Y-128773311D01*
X190918213Y-128773311D01*
X190918213Y-128742414D01*
X190923343Y-128716197D01*
X190940561Y-128686360D01*
X191071231Y-128512704D01*
X191092629Y-128493731D01*
X191120324Y-128487424D01*
X191660345Y-128487424D01*
X191691861Y-128494216D01*
G37*
G36*
X192141381Y-128487424D02*
G01*
X192277180Y-128487424D01*
X192277180Y-129730132D01*
X192374877Y-129847369D01*
X192859211Y-129847369D01*
X192951290Y-129727323D01*
X192951290Y-128487424D01*
X193087090Y-128487424D01*
X193087090Y-129764448D01*
X193082255Y-129796911D01*
X193068893Y-129820502D01*
X192937613Y-129991472D01*
X192914027Y-130012664D01*
X192887299Y-130019316D01*
X192344225Y-130019316D01*
X192320408Y-130013469D01*
X192297086Y-129994281D01*
X192159944Y-129828928D01*
X192146022Y-129800963D01*
X192141381Y-129770066D01*
X192141381Y-128487424D01*
G37*
G36*
X194128545Y-128493395D02*
G01*
X194151622Y-128512704D01*
X194290596Y-128681475D01*
X194305174Y-128707657D01*
X194310258Y-128740582D01*
X194310258Y-129086186D01*
X194305174Y-129119111D01*
X194290596Y-129145293D01*
X194156140Y-129314064D01*
X194133064Y-129333373D01*
X194108513Y-129339344D01*
X193860484Y-129339344D01*
X194290596Y-129871671D01*
X194305179Y-129897599D01*
X194310258Y-129930167D01*
X194310258Y-130019316D01*
X194174459Y-130019316D01*
X194174459Y-129980359D01*
X193665701Y-129339344D01*
X193500348Y-129339344D01*
X193500348Y-130019316D01*
X193364549Y-130019316D01*
X193364549Y-129167397D01*
X193500348Y-129167397D01*
X194079204Y-129167397D01*
X194174459Y-129050771D01*
X194174459Y-128778684D01*
X194076395Y-128659371D01*
X193500348Y-128659371D01*
X193500348Y-129167397D01*
X193364549Y-129167397D01*
X193364549Y-128487424D01*
X194103995Y-128487424D01*
X194128545Y-128493395D01*
G37*
G36*
X196612979Y-128761831D02*
G01*
X196527739Y-128650212D01*
X196052320Y-128650212D01*
X195954501Y-128770258D01*
X195954501Y-128859528D01*
X196719591Y-129524724D01*
X196741193Y-129554085D01*
X196748778Y-129594577D01*
X196748778Y-129759441D01*
X196744430Y-129786784D01*
X196730582Y-129815373D01*
X196600645Y-129988663D01*
X196574141Y-130012691D01*
X196551796Y-130019316D01*
X196017759Y-130019316D01*
X195993304Y-130013376D01*
X195970254Y-129994159D01*
X195831891Y-129823066D01*
X195816171Y-129795775D01*
X195810886Y-129764082D01*
X195810886Y-129677254D01*
X195946685Y-129677254D01*
X195946685Y-129730254D01*
X196045359Y-129847369D01*
X196523464Y-129847369D01*
X196612979Y-129724637D01*
X196612979Y-129638175D01*
X195848133Y-128975055D01*
X195826339Y-128945790D01*
X195818702Y-128905446D01*
X195818702Y-128738262D01*
X195823984Y-128706820D01*
X195839706Y-128679766D01*
X195976727Y-128509773D01*
X195997566Y-128493047D01*
X196024232Y-128487424D01*
X196553750Y-128487424D01*
X196580427Y-128493021D01*
X196601256Y-128509651D01*
X196734002Y-128670607D01*
X196748589Y-128696518D01*
X196753663Y-128728981D01*
X196753663Y-128817641D01*
X196612979Y-128817641D01*
X196612979Y-128761831D01*
G37*
G36*
X197665520Y-128493013D02*
G01*
X197686549Y-128509651D01*
X197960101Y-128839989D01*
X197974804Y-128865604D01*
X197979762Y-128895554D01*
X197979762Y-129073119D01*
X197974940Y-129106647D01*
X197961566Y-129131493D01*
X197686915Y-129472944D01*
X197660490Y-129496981D01*
X197639166Y-129503475D01*
X197169853Y-129503475D01*
X197169853Y-130019316D01*
X197034054Y-130019316D01*
X197034054Y-129331528D01*
X197169853Y-129331528D01*
X197608147Y-129331528D01*
X197843963Y-129042222D01*
X197843963Y-128934877D01*
X197609490Y-128659371D01*
X197169853Y-128659371D01*
X197169853Y-129331528D01*
X197034054Y-129331528D01*
X197034054Y-128487424D01*
X197638799Y-128487424D01*
X197665520Y-128493013D01*
G37*
G36*
X198257222Y-128487424D02*
G01*
X199199023Y-128487424D01*
X199199023Y-128659371D01*
X198393021Y-128659371D01*
X198393021Y-129159581D01*
X198933286Y-129159581D01*
X198933286Y-129331528D01*
X198393021Y-129331528D01*
X198393021Y-129847369D01*
X199199023Y-129847369D01*
X199199023Y-130019316D01*
X198257222Y-130019316D01*
X198257222Y-128487424D01*
G37*
G36*
X199480390Y-128487424D02*
G01*
X200422191Y-128487424D01*
X200422191Y-128659371D01*
X199616189Y-128659371D01*
X199616189Y-129159581D01*
X200156454Y-129159581D01*
X200156454Y-129331528D01*
X199616189Y-129331528D01*
X199616189Y-129847369D01*
X200422191Y-129847369D01*
X200422191Y-130019316D01*
X199480390Y-130019316D01*
X199480390Y-128487424D01*
G37*
G36*
X201332451Y-128493745D02*
G01*
X201352634Y-128512581D01*
X201624720Y-128853667D01*
X201639208Y-128878767D01*
X201644382Y-128912407D01*
X201644382Y-129594455D01*
X201639585Y-129625528D01*
X201624720Y-129656004D01*
X201351168Y-129991472D01*
X201325882Y-130013037D01*
X201302320Y-130019316D01*
X200703558Y-130019316D01*
X200703558Y-129850177D01*
X200836427Y-129850177D01*
X200836427Y-129847369D01*
X200972226Y-129847369D01*
X201275331Y-129847369D01*
X201508583Y-129559284D01*
X201508583Y-128943914D01*
X201275331Y-128650212D01*
X200972226Y-128650212D01*
X200972226Y-129847369D01*
X200836427Y-129847369D01*
X200836427Y-128650212D01*
X200703558Y-128650212D01*
X200703558Y-128487424D01*
X201305129Y-128487424D01*
X201332451Y-128493745D01*
G37*
G36*
X188572502Y-157117908D02*
G01*
X188958331Y-157297823D01*
X188843548Y-157543974D01*
X188457719Y-157364059D01*
X187601912Y-157555717D01*
X189855792Y-158606718D01*
X189741009Y-158852869D01*
X187121666Y-157631449D01*
X187043481Y-157570135D01*
X187016197Y-157486599D01*
X187022290Y-157433655D01*
X187052482Y-157398215D01*
X187113341Y-157370741D01*
X188228511Y-157113538D01*
X187706090Y-156073580D01*
X187693604Y-156021071D01*
X187706855Y-155965601D01*
X187710923Y-155950520D01*
X187714873Y-155935114D01*
X187728222Y-155919779D01*
X187807560Y-155889083D01*
X187910831Y-155912495D01*
X190540357Y-157138664D01*
X190425574Y-157384815D01*
X188161512Y-156329066D01*
X188572502Y-157117908D01*
G37*
G36*
X187998146Y-155340925D02*
G01*
X188794190Y-153633803D01*
X189105864Y-153779139D01*
X188424602Y-155240110D01*
X189331289Y-155662905D01*
X189787941Y-154683612D01*
X190099615Y-154828948D01*
X189642963Y-155808241D01*
X190577984Y-156244248D01*
X191259246Y-154783277D01*
X191570920Y-154928613D01*
X190774876Y-156635735D01*
X187998146Y-155340925D01*
G37*
G36*
X190891401Y-153093969D02*
G01*
X191347227Y-152116447D01*
X191630567Y-152248570D01*
X191518262Y-152489409D01*
X192495784Y-152945235D01*
X192097143Y-153800124D01*
X192065274Y-153842380D01*
X192016275Y-153867786D01*
X191180792Y-154079431D01*
X191110461Y-154082236D01*
X191056121Y-154067649D01*
X189795038Y-153479596D01*
X189727252Y-153436728D01*
X189693319Y-153392009D01*
X189318307Y-152616171D01*
X189302700Y-152572723D01*
X189317936Y-152510626D01*
X189549255Y-152014560D01*
X189583376Y-151968010D01*
X189632276Y-151941704D01*
X190158809Y-151812367D01*
X190290907Y-152091984D01*
X189821928Y-152200190D01*
X189640671Y-152588896D01*
X189970251Y-153261624D01*
X191106266Y-153791357D01*
X191810655Y-153600777D01*
X192069328Y-153046051D01*
X191403480Y-152735560D01*
X191174741Y-153226092D01*
X190891401Y-153093969D01*
G37*
G36*
X191939482Y-149693386D02*
G01*
X193641956Y-150487262D01*
X193527174Y-150733414D01*
X192535484Y-150270982D01*
X191965702Y-151492884D01*
X192957391Y-151955317D01*
X192842609Y-152201468D01*
X191127739Y-151401811D01*
X191086415Y-151372124D01*
X191044553Y-151316668D01*
X190502218Y-150225327D01*
X190839030Y-150225327D01*
X191309400Y-151183882D01*
X191683497Y-151358326D01*
X192252145Y-150138858D01*
X191883139Y-149966788D01*
X190839030Y-150225327D01*
X190502218Y-150225327D01*
X190469657Y-150159805D01*
X190452544Y-150105998D01*
X190461940Y-150057302D01*
X190498078Y-150009692D01*
X190551409Y-149984488D01*
X191817850Y-149676822D01*
X191872422Y-149672982D01*
X191939482Y-149693386D01*
G37*
G36*
X192638875Y-147320285D02*
G01*
X192960731Y-147470369D01*
X193017430Y-147507449D01*
X193051161Y-147552691D01*
X193437936Y-148339135D01*
X193459169Y-148407350D01*
X193452916Y-148451492D01*
X193056236Y-149302175D01*
X193991257Y-149738183D01*
X193876475Y-149984334D01*
X191099745Y-148689524D01*
X191146756Y-148588708D01*
X191526201Y-148588708D01*
X192744562Y-149156840D01*
X193115024Y-148362381D01*
X192789945Y-147690405D01*
X192595370Y-147599673D01*
X191897799Y-147791815D01*
X191526201Y-148588708D01*
X191146756Y-148588708D01*
X191610898Y-147593353D01*
X191643613Y-147549642D01*
X191691545Y-147525588D01*
X192521538Y-147308958D01*
X192580396Y-147303958D01*
X192638875Y-147320285D01*
G37*
G36*
X194007215Y-145259119D02*
G01*
X195709689Y-146052995D01*
X195594906Y-146299146D01*
X194603217Y-145836714D01*
X194033435Y-147058617D01*
X195025124Y-147521049D01*
X194910341Y-147767201D01*
X193195472Y-146967544D01*
X193154148Y-146937857D01*
X193112286Y-146882401D01*
X192569951Y-145791060D01*
X192906763Y-145791060D01*
X193377133Y-146749614D01*
X193751230Y-146924059D01*
X194319877Y-145704591D01*
X193950872Y-145532521D01*
X192906763Y-145791060D01*
X192569951Y-145791060D01*
X192537390Y-145725538D01*
X192520277Y-145671731D01*
X192529673Y-145623035D01*
X192565811Y-145575425D01*
X192619142Y-145550221D01*
X193885583Y-145242555D01*
X193940155Y-145238714D01*
X194007215Y-145259119D01*
G37*
G36*
X194733027Y-142909116D02*
G01*
X195969318Y-143485608D01*
X196021586Y-143520566D01*
X196064264Y-143573271D01*
X196441122Y-144352665D01*
X196458837Y-144416726D01*
X196450303Y-144464743D01*
X195944208Y-145550067D01*
X195637625Y-145407105D01*
X195749930Y-145166266D01*
X193574855Y-144152012D01*
X193462550Y-144392851D01*
X193167478Y-144255257D01*
X193330404Y-143905861D01*
X193689637Y-143905861D01*
X195859621Y-144917741D01*
X196115817Y-144368327D01*
X195790784Y-143702032D01*
X194675355Y-143181899D01*
X193945833Y-143356447D01*
X193689637Y-143905861D01*
X193330404Y-143905861D01*
X193675947Y-143164841D01*
X193710498Y-143120658D01*
X193761700Y-143099996D01*
X194609934Y-142895105D01*
X194667677Y-142890060D01*
X194733027Y-142909116D01*
G37*
G36*
X87844312Y-96246378D02*
G01*
X87844312Y-96672093D01*
X87572714Y-96672093D01*
X87572714Y-96246378D01*
X87037334Y-95551751D01*
X87037334Y-98038632D01*
X86765736Y-98038632D01*
X86765736Y-95148506D01*
X86788263Y-95051734D01*
X86852442Y-94991702D01*
X86903000Y-94974849D01*
X86947879Y-94987235D01*
X86998499Y-95030781D01*
X87702896Y-95932770D01*
X88424633Y-95019790D01*
X88466946Y-94986282D01*
X88522819Y-94974849D01*
X88538206Y-94972163D01*
X88553838Y-94969232D01*
X88573377Y-94974849D01*
X88634727Y-95033782D01*
X88657152Y-95137271D01*
X88657152Y-98038632D01*
X88385554Y-98038632D01*
X88385554Y-95540516D01*
X87844312Y-96246378D01*
G37*
G36*
X89212072Y-94974849D02*
G01*
X91095673Y-94974849D01*
X91095673Y-95318743D01*
X89483670Y-95318743D01*
X89483670Y-96319162D01*
X90564200Y-96319162D01*
X90564200Y-96663056D01*
X89483670Y-96663056D01*
X89483670Y-97694738D01*
X91095673Y-97694738D01*
X91095673Y-98038632D01*
X89212072Y-98038632D01*
X89212072Y-94974849D01*
G37*
G36*
X92471249Y-96647424D02*
G01*
X93549825Y-96647424D01*
X93549825Y-96960055D01*
X93284089Y-96960055D01*
X93284089Y-98038632D01*
X92340823Y-98038632D01*
X92289057Y-98027606D01*
X92245324Y-97993935D01*
X91700418Y-97326175D01*
X91668153Y-97263619D01*
X91658408Y-97208206D01*
X91658408Y-95816755D01*
X91668612Y-95737203D01*
X91694801Y-95687550D01*
X92239462Y-95019790D01*
X92272244Y-94987284D01*
X92334961Y-94974849D01*
X92882309Y-94974849D01*
X92938918Y-94986100D01*
X92983426Y-95019302D01*
X93323168Y-95441842D01*
X93125575Y-95679734D01*
X92829309Y-95300425D01*
X92400418Y-95300425D01*
X91930006Y-95883433D01*
X91930006Y-97136887D01*
X92400418Y-97694738D01*
X93012491Y-97694738D01*
X93012491Y-96960055D01*
X92471249Y-96960055D01*
X92471249Y-96647424D01*
G37*
G36*
X95100327Y-94987481D02*
G01*
X95145708Y-95025163D01*
X95959769Y-96042923D01*
X95986313Y-96090760D01*
X95996161Y-96160160D01*
X95996161Y-98038632D01*
X95724563Y-98038632D01*
X95724563Y-96944424D01*
X94376343Y-96944424D01*
X94376343Y-98038632D01*
X94104745Y-98038632D01*
X94104745Y-96219023D01*
X94379030Y-96219023D01*
X94379030Y-96631793D01*
X95724563Y-96631793D01*
X95724563Y-96224640D01*
X95048988Y-95387620D01*
X94379030Y-96219023D01*
X94104745Y-96219023D01*
X94104745Y-96146482D01*
X94114186Y-96096484D01*
X94146755Y-96035108D01*
X94952267Y-95025163D01*
X94993801Y-94986914D01*
X95041905Y-94974849D01*
X95100327Y-94987481D01*
G37*
G36*
X97814014Y-94986026D02*
G01*
X97856071Y-95019302D01*
X98403175Y-95679979D01*
X98432580Y-95731209D01*
X98442498Y-95791109D01*
X98442498Y-96146238D01*
X98432853Y-96213295D01*
X98406106Y-96262986D01*
X97856803Y-96945889D01*
X97803953Y-96993962D01*
X97761304Y-97006950D01*
X96822679Y-97006950D01*
X96822679Y-98038632D01*
X96551081Y-98038632D01*
X96551081Y-96663056D01*
X96822679Y-96663056D01*
X97699267Y-96663056D01*
X98170900Y-96084445D01*
X98170900Y-95869755D01*
X97701953Y-95318743D01*
X96822679Y-95318743D01*
X96822679Y-96663056D01*
X96551081Y-96663056D01*
X96551081Y-94974849D01*
X97760572Y-94974849D01*
X97814014Y-94986026D01*
G37*
G36*
X99992999Y-94987481D02*
G01*
X100038381Y-95025163D01*
X100852442Y-96042923D01*
X100878986Y-96090760D01*
X100888834Y-96160160D01*
X100888834Y-98038632D01*
X100617236Y-98038632D01*
X100617236Y-96944424D01*
X99269016Y-96944424D01*
X99269016Y-98038632D01*
X98997418Y-98038632D01*
X98997418Y-96219023D01*
X99271702Y-96219023D01*
X99271702Y-96631793D01*
X100617236Y-96631793D01*
X100617236Y-96224640D01*
X99941660Y-95387620D01*
X99271702Y-96219023D01*
X98997418Y-96219023D01*
X98997418Y-96146482D01*
X99006859Y-96096484D01*
X99039427Y-96035108D01*
X99844940Y-95025163D01*
X99886473Y-94986914D01*
X99934577Y-94974849D01*
X99992999Y-94987481D01*
G37*
G36*
X102701540Y-94987491D02*
G01*
X102741905Y-95025163D01*
X103286078Y-95707334D01*
X103315054Y-95757534D01*
X103325401Y-95824815D01*
X103325401Y-97188911D01*
X103315807Y-97251056D01*
X103286078Y-97312009D01*
X102738974Y-97982944D01*
X102688402Y-98026074D01*
X102641277Y-98038632D01*
X101443754Y-98038632D01*
X101443754Y-97700355D01*
X101709490Y-97700355D01*
X101709490Y-97694738D01*
X101981088Y-97694738D01*
X102587299Y-97694738D01*
X103053803Y-97118569D01*
X103053803Y-95887829D01*
X102587299Y-95300425D01*
X101981088Y-95300425D01*
X101981088Y-97694738D01*
X101709490Y-97694738D01*
X101709490Y-95300425D01*
X101443754Y-95300425D01*
X101443754Y-94974849D01*
X102646894Y-94974849D01*
X102701540Y-94987491D01*
G37*
G36*
X200987424Y-100867131D02*
G01*
X200987424Y-99925331D01*
X201159371Y-99925331D01*
X201159371Y-100731332D01*
X201659581Y-100731332D01*
X201659581Y-100058199D01*
X201815896Y-100058199D01*
X201815896Y-100731332D01*
X202519316Y-100731332D01*
X202519316Y-100867131D01*
X200987424Y-100867131D01*
G37*
G36*
X202519316Y-99440753D02*
G01*
X202513612Y-99466814D01*
X202496967Y-99485450D01*
X202328196Y-99627110D01*
X202305133Y-99639275D01*
X202269089Y-99643963D01*
X201588506Y-99643963D01*
X201565316Y-99639188D01*
X201532208Y-99621493D01*
X201354521Y-99484595D01*
X201330148Y-99456840D01*
X201323503Y-99434281D01*
X201323503Y-99053018D01*
X201495450Y-99053018D01*
X201495450Y-99407170D01*
X201622334Y-99505355D01*
X201839344Y-99505355D01*
X201839344Y-98956175D01*
X201619525Y-98956175D01*
X201495450Y-99053018D01*
X201323503Y-99053018D01*
X201323503Y-99024685D01*
X201330629Y-98999430D01*
X201354399Y-98975715D01*
X201528545Y-98842969D01*
X201553372Y-98828372D01*
X201584598Y-98823307D01*
X202011290Y-98823307D01*
X202011290Y-99508164D01*
X202235383Y-99508164D01*
X202363000Y-99412665D01*
X202363000Y-98815491D01*
X202519316Y-98815491D01*
X202519316Y-99440753D01*
G37*
G36*
X202119946Y-97597199D02*
G01*
X202151120Y-97613328D01*
X202490617Y-97892254D01*
X202505027Y-97911968D01*
X202510157Y-97940003D01*
X202510157Y-98420795D01*
X200807662Y-98420795D01*
X200807662Y-98284996D01*
X201323503Y-98284996D01*
X201323503Y-97958932D01*
X201486290Y-97958932D01*
X201486290Y-98284996D01*
X202347369Y-98284996D01*
X202347369Y-97967358D01*
X202055621Y-97728122D01*
X201778039Y-97728122D01*
X201486290Y-97958932D01*
X201323503Y-97958932D01*
X201323503Y-97931577D01*
X201329844Y-97904241D01*
X201348782Y-97883949D01*
X201688279Y-97613328D01*
X201714531Y-97597708D01*
X201747142Y-97592323D01*
X202092257Y-97592323D01*
X202119946Y-97597199D01*
G37*
G36*
X201324357Y-95833775D02*
G01*
X201324357Y-95969574D01*
X201234598Y-95969574D01*
X201203845Y-95964384D01*
X201175614Y-95948569D01*
X200832941Y-95674162D01*
X200813633Y-95651085D01*
X200807662Y-95626535D01*
X200807662Y-95231594D01*
X200813735Y-95206147D01*
X200832819Y-95184089D01*
X201002934Y-95045481D01*
X201028948Y-95030890D01*
X201061430Y-95025819D01*
X201412896Y-95025819D01*
X201444540Y-95030801D01*
X201471514Y-95045481D01*
X202347369Y-95741939D01*
X202347369Y-95025819D01*
X202519316Y-95025819D01*
X202519316Y-95907292D01*
X202513400Y-95931757D01*
X202494281Y-95954797D01*
X202468148Y-95969388D01*
X202435540Y-95974459D01*
X202402943Y-95969412D01*
X202376922Y-95954919D01*
X201382732Y-95161618D01*
X201099166Y-95161618D01*
X200979609Y-95259071D01*
X200979609Y-95600034D01*
X201268792Y-95833775D01*
X201324357Y-95833775D01*
G37*
G36*
X202157600Y-93810654D02*
G01*
X202183970Y-93825244D01*
X202532993Y-94108565D01*
X202552362Y-94130649D01*
X202558394Y-94154972D01*
X202558394Y-94403367D01*
X202552403Y-94427929D01*
X202532993Y-94451116D01*
X202188489Y-94730286D01*
X202132069Y-94751290D01*
X202129260Y-94751290D01*
X201235942Y-94751290D01*
X201204240Y-94746033D01*
X201176957Y-94730408D01*
X200775177Y-94406786D01*
X200893147Y-94309455D01*
X201269281Y-94615491D01*
X201735052Y-94615491D01*
X201522316Y-94443422D01*
X201502950Y-94421199D01*
X201496793Y-94395551D01*
X201496793Y-94175488D01*
X201659581Y-94175488D01*
X201659581Y-94368684D01*
X201964274Y-94615491D01*
X202092868Y-94615491D01*
X202386448Y-94378576D01*
X202386448Y-94183914D01*
X202087372Y-93941381D01*
X201947543Y-93941381D01*
X201659581Y-94175488D01*
X201496793Y-94175488D01*
X201496793Y-94144469D01*
X201502698Y-94121058D01*
X201522194Y-94098063D01*
X201862913Y-93825366D01*
X201890117Y-93810589D01*
X201921898Y-93805582D01*
X202124741Y-93805582D01*
X202157600Y-93810654D01*
G37*
D10*
G36*
X61632868Y-120487424D02*
G01*
X61768667Y-120487424D01*
X61768667Y-121847369D01*
X62574668Y-121847369D01*
X62574668Y-122019316D01*
X61632868Y-122019316D01*
X61632868Y-120487424D01*
G37*
G36*
X62856036Y-120487424D02*
G01*
X63797836Y-120487424D01*
X63797836Y-120659371D01*
X62991835Y-120659371D01*
X62991835Y-121159581D01*
X63532100Y-121159581D01*
X63532100Y-121331528D01*
X62991835Y-121331528D01*
X62991835Y-121847369D01*
X63797836Y-121847369D01*
X63797836Y-122019316D01*
X62856036Y-122019316D01*
X62856036Y-120487424D01*
G37*
G36*
X64079204Y-120487424D02*
G01*
X65024912Y-120487424D01*
X65024912Y-120659371D01*
X64618492Y-120659371D01*
X64618492Y-122019316D01*
X64482693Y-122019316D01*
X64482693Y-120659371D01*
X64079204Y-120659371D01*
X64079204Y-120487424D01*
G37*
G36*
X66525540Y-120487424D02*
G01*
X67471249Y-120487424D01*
X67471249Y-120659371D01*
X67064829Y-120659371D01*
X67064829Y-122019316D01*
X66929030Y-122019316D01*
X66929030Y-120659371D01*
X66525540Y-120659371D01*
X66525540Y-120487424D01*
G37*
G36*
X67748709Y-120487424D02*
G01*
X67884508Y-120487424D01*
X67884508Y-121159581D01*
X68558618Y-121159581D01*
X68558618Y-120487424D01*
X68694417Y-120487424D01*
X68694417Y-122019316D01*
X68558618Y-122019316D01*
X68558618Y-121315896D01*
X67884508Y-121315896D01*
X67884508Y-122019316D01*
X67748709Y-122019316D01*
X67748709Y-120487424D01*
G37*
G36*
X68971877Y-120487424D02*
G01*
X69913677Y-120487424D01*
X69913677Y-120659371D01*
X69107676Y-120659371D01*
X69107676Y-121159581D01*
X69647941Y-121159581D01*
X69647941Y-121331528D01*
X69107676Y-121331528D01*
X69107676Y-121847369D01*
X69913677Y-121847369D01*
X69913677Y-122019316D01*
X68971877Y-122019316D01*
X68971877Y-120487424D01*
G37*
G36*
X70959041Y-120493395D02*
G01*
X70982117Y-120512704D01*
X71121092Y-120681475D01*
X71135669Y-120707657D01*
X71140753Y-120740582D01*
X71140753Y-121086186D01*
X71135669Y-121119111D01*
X71121092Y-121145293D01*
X70986636Y-121314064D01*
X70963559Y-121333373D01*
X70939009Y-121339344D01*
X70690980Y-121339344D01*
X71121092Y-121871671D01*
X71135675Y-121897599D01*
X71140753Y-121930167D01*
X71140753Y-122019316D01*
X71004954Y-122019316D01*
X71004954Y-121980359D01*
X70496196Y-121339344D01*
X70330844Y-121339344D01*
X70330844Y-122019316D01*
X70195045Y-122019316D01*
X70195045Y-121167397D01*
X70330844Y-121167397D01*
X70909699Y-121167397D01*
X71004954Y-121050771D01*
X71004954Y-120778684D01*
X70906891Y-120659371D01*
X70330844Y-120659371D01*
X70330844Y-121167397D01*
X70195045Y-121167397D01*
X70195045Y-120487424D01*
X70934490Y-120487424D01*
X70959041Y-120493395D01*
G37*
G36*
X71418213Y-120487424D02*
G01*
X72360013Y-120487424D01*
X72360013Y-120659371D01*
X71554012Y-120659371D01*
X71554012Y-121159581D01*
X72094277Y-121159581D01*
X72094277Y-121331528D01*
X71554012Y-121331528D01*
X71554012Y-121847369D01*
X72360013Y-121847369D01*
X72360013Y-122019316D01*
X71418213Y-122019316D01*
X71418213Y-120487424D01*
G37*
G36*
X74491747Y-120492740D02*
G01*
X74515701Y-120509651D01*
X74788154Y-120856109D01*
X74801622Y-120880484D01*
X74806350Y-120911552D01*
X74801185Y-120947641D01*
X74786688Y-120975300D01*
X74557222Y-121244089D01*
X74786688Y-121523136D01*
X74801375Y-121549039D01*
X74806350Y-121579556D01*
X74801269Y-121613900D01*
X74786688Y-121641594D01*
X74510083Y-121994036D01*
X74487024Y-122013352D01*
X74462578Y-122019316D01*
X73864549Y-122019316D01*
X73864549Y-121847369D01*
X73997418Y-121847369D01*
X74133217Y-121847369D01*
X74432658Y-121847369D01*
X74642585Y-121583831D01*
X74435467Y-121331528D01*
X74133217Y-121331528D01*
X74133217Y-121847369D01*
X73997418Y-121847369D01*
X73997418Y-121159581D01*
X74133217Y-121159581D01*
X74432658Y-121159581D01*
X74642585Y-120910453D01*
X74436933Y-120650212D01*
X74133217Y-120650212D01*
X74133217Y-121159581D01*
X73997418Y-121159581D01*
X73997418Y-120650212D01*
X73864549Y-120650212D01*
X73864549Y-120487424D01*
X74466730Y-120487424D01*
X74491747Y-120492740D01*
G37*
G36*
X75087718Y-120487424D02*
G01*
X76029518Y-120487424D01*
X76029518Y-120659371D01*
X75223517Y-120659371D01*
X75223517Y-121159581D01*
X75763782Y-121159581D01*
X75763782Y-121331528D01*
X75223517Y-121331528D01*
X75223517Y-121847369D01*
X76029518Y-121847369D01*
X76029518Y-122019316D01*
X75087718Y-122019316D01*
X75087718Y-120487424D01*
G37*
G36*
X77534054Y-120487424D02*
G01*
X77669853Y-120487424D01*
X77669853Y-121847369D01*
X78475854Y-121847369D01*
X78475854Y-122019316D01*
X77534054Y-122019316D01*
X77534054Y-120487424D01*
G37*
G36*
X79030774Y-120487424D02*
G01*
X79437194Y-120487424D01*
X79437194Y-120659371D01*
X79299441Y-120659371D01*
X79299441Y-121847369D01*
X79437194Y-121847369D01*
X79437194Y-122019316D01*
X79030774Y-122019316D01*
X79030774Y-121847369D01*
X79163642Y-121847369D01*
X79163642Y-120659371D01*
X79030774Y-120659371D01*
X79030774Y-120487424D01*
G37*
G36*
X80386810Y-121323712D02*
G01*
X80926099Y-121323712D01*
X80926099Y-121480027D01*
X80793230Y-121480027D01*
X80793230Y-122019316D01*
X80321598Y-122019316D01*
X80295715Y-122013803D01*
X80273848Y-121996967D01*
X80001395Y-121663087D01*
X79985262Y-121631809D01*
X79980390Y-121604103D01*
X79980390Y-120908377D01*
X79985492Y-120868601D01*
X79998586Y-120843775D01*
X80270917Y-120509895D01*
X80287308Y-120493642D01*
X80318667Y-120487424D01*
X80592341Y-120487424D01*
X80620645Y-120493050D01*
X80642899Y-120509651D01*
X80812770Y-120720921D01*
X80713974Y-120839867D01*
X80565840Y-120650212D01*
X80351395Y-120650212D01*
X80116189Y-120941716D01*
X80116189Y-121568443D01*
X80351395Y-121847369D01*
X80657431Y-121847369D01*
X80657431Y-121480027D01*
X80386810Y-121480027D01*
X80386810Y-121323712D01*
G37*
G36*
X81203558Y-120487424D02*
G01*
X81339357Y-120487424D01*
X81339357Y-121159581D01*
X82013468Y-121159581D01*
X82013468Y-120487424D01*
X82149267Y-120487424D01*
X82149267Y-122019316D01*
X82013468Y-122019316D01*
X82013468Y-121315896D01*
X81339357Y-121315896D01*
X81339357Y-122019316D01*
X81203558Y-122019316D01*
X81203558Y-120487424D01*
G37*
G36*
X82426727Y-120487424D02*
G01*
X83372435Y-120487424D01*
X83372435Y-120659371D01*
X82966015Y-120659371D01*
X82966015Y-122019316D01*
X82830216Y-122019316D01*
X82830216Y-120659371D01*
X82426727Y-120659371D01*
X82426727Y-120487424D01*
G37*
X168370476Y-114453200D02*
X168513333Y-114500819D01*
X168513333Y-114500819D02*
X168751428Y-114500819D01*
X168751428Y-114500819D02*
X168846666Y-114453200D01*
X168846666Y-114453200D02*
X168894285Y-114405580D01*
X168894285Y-114405580D02*
X168941904Y-114310342D01*
X168941904Y-114310342D02*
X168941904Y-114215104D01*
X168941904Y-114215104D02*
X168894285Y-114119866D01*
X168894285Y-114119866D02*
X168846666Y-114072247D01*
X168846666Y-114072247D02*
X168751428Y-114024628D01*
X168751428Y-114024628D02*
X168560952Y-113977009D01*
X168560952Y-113977009D02*
X168465714Y-113929390D01*
X168465714Y-113929390D02*
X168418095Y-113881771D01*
X168418095Y-113881771D02*
X168370476Y-113786533D01*
X168370476Y-113786533D02*
X168370476Y-113691295D01*
X168370476Y-113691295D02*
X168418095Y-113596057D01*
X168418095Y-113596057D02*
X168465714Y-113548438D01*
X168465714Y-113548438D02*
X168560952Y-113500819D01*
X168560952Y-113500819D02*
X168799047Y-113500819D01*
X168799047Y-113500819D02*
X168941904Y-113548438D01*
X169275238Y-113500819D02*
X169513333Y-114500819D01*
X169513333Y-114500819D02*
X169703809Y-113786533D01*
X169703809Y-113786533D02*
X169894285Y-114500819D01*
X169894285Y-114500819D02*
X170132381Y-113500819D01*
X171037142Y-114500819D02*
X170465714Y-114500819D01*
X170751428Y-114500819D02*
X170751428Y-113500819D01*
X170751428Y-113500819D02*
X170656190Y-113643676D01*
X170656190Y-113643676D02*
X170560952Y-113738914D01*
X170560952Y-113738914D02*
X170465714Y-113786533D01*
X171894285Y-113834152D02*
X171894285Y-114500819D01*
X171656190Y-113453200D02*
X171418095Y-114167485D01*
X171418095Y-114167485D02*
X172037142Y-114167485D01*
X111696667Y-114453200D02*
X111839524Y-114500819D01*
X111839524Y-114500819D02*
X112077619Y-114500819D01*
X112077619Y-114500819D02*
X112172857Y-114453200D01*
X112172857Y-114453200D02*
X112220476Y-114405580D01*
X112220476Y-114405580D02*
X112268095Y-114310342D01*
X112268095Y-114310342D02*
X112268095Y-114215104D01*
X112268095Y-114215104D02*
X112220476Y-114119866D01*
X112220476Y-114119866D02*
X112172857Y-114072247D01*
X112172857Y-114072247D02*
X112077619Y-114024628D01*
X112077619Y-114024628D02*
X111887143Y-113977009D01*
X111887143Y-113977009D02*
X111791905Y-113929390D01*
X111791905Y-113929390D02*
X111744286Y-113881771D01*
X111744286Y-113881771D02*
X111696667Y-113786533D01*
X111696667Y-113786533D02*
X111696667Y-113691295D01*
X111696667Y-113691295D02*
X111744286Y-113596057D01*
X111744286Y-113596057D02*
X111791905Y-113548438D01*
X111791905Y-113548438D02*
X111887143Y-113500819D01*
X111887143Y-113500819D02*
X112125238Y-113500819D01*
X112125238Y-113500819D02*
X112268095Y-113548438D01*
X112601429Y-113500819D02*
X112839524Y-114500819D01*
X112839524Y-114500819D02*
X113030000Y-113786533D01*
X113030000Y-113786533D02*
X113220476Y-114500819D01*
X113220476Y-114500819D02*
X113458572Y-113500819D01*
X113791905Y-113596057D02*
X113839524Y-113548438D01*
X113839524Y-113548438D02*
X113934762Y-113500819D01*
X113934762Y-113500819D02*
X114172857Y-113500819D01*
X114172857Y-113500819D02*
X114268095Y-113548438D01*
X114268095Y-113548438D02*
X114315714Y-113596057D01*
X114315714Y-113596057D02*
X114363333Y-113691295D01*
X114363333Y-113691295D02*
X114363333Y-113786533D01*
X114363333Y-113786533D02*
X114315714Y-113929390D01*
X114315714Y-113929390D02*
X113744286Y-114500819D01*
X113744286Y-114500819D02*
X114363333Y-114500819D01*
X193140476Y-107937200D02*
X193283333Y-107984819D01*
X193283333Y-107984819D02*
X193521428Y-107984819D01*
X193521428Y-107984819D02*
X193616666Y-107937200D01*
X193616666Y-107937200D02*
X193664285Y-107889580D01*
X193664285Y-107889580D02*
X193711904Y-107794342D01*
X193711904Y-107794342D02*
X193711904Y-107699104D01*
X193711904Y-107699104D02*
X193664285Y-107603866D01*
X193664285Y-107603866D02*
X193616666Y-107556247D01*
X193616666Y-107556247D02*
X193521428Y-107508628D01*
X193521428Y-107508628D02*
X193330952Y-107461009D01*
X193330952Y-107461009D02*
X193235714Y-107413390D01*
X193235714Y-107413390D02*
X193188095Y-107365771D01*
X193188095Y-107365771D02*
X193140476Y-107270533D01*
X193140476Y-107270533D02*
X193140476Y-107175295D01*
X193140476Y-107175295D02*
X193188095Y-107080057D01*
X193188095Y-107080057D02*
X193235714Y-107032438D01*
X193235714Y-107032438D02*
X193330952Y-106984819D01*
X193330952Y-106984819D02*
X193569047Y-106984819D01*
X193569047Y-106984819D02*
X193711904Y-107032438D01*
X194045238Y-106984819D02*
X194283333Y-107984819D01*
X194283333Y-107984819D02*
X194473809Y-107270533D01*
X194473809Y-107270533D02*
X194664285Y-107984819D01*
X194664285Y-107984819D02*
X194902381Y-106984819D01*
X195807142Y-107984819D02*
X195235714Y-107984819D01*
X195521428Y-107984819D02*
X195521428Y-106984819D01*
X195521428Y-106984819D02*
X195426190Y-107127676D01*
X195426190Y-107127676D02*
X195330952Y-107222914D01*
X195330952Y-107222914D02*
X195235714Y-107270533D01*
X196378571Y-107413390D02*
X196283333Y-107365771D01*
X196283333Y-107365771D02*
X196235714Y-107318152D01*
X196235714Y-107318152D02*
X196188095Y-107222914D01*
X196188095Y-107222914D02*
X196188095Y-107175295D01*
X196188095Y-107175295D02*
X196235714Y-107080057D01*
X196235714Y-107080057D02*
X196283333Y-107032438D01*
X196283333Y-107032438D02*
X196378571Y-106984819D01*
X196378571Y-106984819D02*
X196569047Y-106984819D01*
X196569047Y-106984819D02*
X196664285Y-107032438D01*
X196664285Y-107032438D02*
X196711904Y-107080057D01*
X196711904Y-107080057D02*
X196759523Y-107175295D01*
X196759523Y-107175295D02*
X196759523Y-107222914D01*
X196759523Y-107222914D02*
X196711904Y-107318152D01*
X196711904Y-107318152D02*
X196664285Y-107365771D01*
X196664285Y-107365771D02*
X196569047Y-107413390D01*
X196569047Y-107413390D02*
X196378571Y-107413390D01*
X196378571Y-107413390D02*
X196283333Y-107461009D01*
X196283333Y-107461009D02*
X196235714Y-107508628D01*
X196235714Y-107508628D02*
X196188095Y-107603866D01*
X196188095Y-107603866D02*
X196188095Y-107794342D01*
X196188095Y-107794342D02*
X196235714Y-107889580D01*
X196235714Y-107889580D02*
X196283333Y-107937200D01*
X196283333Y-107937200D02*
X196378571Y-107984819D01*
X196378571Y-107984819D02*
X196569047Y-107984819D01*
X196569047Y-107984819D02*
X196664285Y-107937200D01*
X196664285Y-107937200D02*
X196711904Y-107889580D01*
X196711904Y-107889580D02*
X196759523Y-107794342D01*
X196759523Y-107794342D02*
X196759523Y-107603866D01*
X196759523Y-107603866D02*
X196711904Y-107508628D01*
X196711904Y-107508628D02*
X196664285Y-107461009D01*
X196664285Y-107461009D02*
X196569047Y-107413390D01*
D12*
X73349398Y-139818218D02*
X73349398Y-138818218D01*
X73349398Y-138818218D02*
X73587493Y-138818218D01*
X73587493Y-138818218D02*
X73730350Y-138865837D01*
X73730350Y-138865837D02*
X73825588Y-138961075D01*
X73825588Y-138961075D02*
X73873207Y-139056313D01*
X73873207Y-139056313D02*
X73920826Y-139246789D01*
X73920826Y-139246789D02*
X73920826Y-139389646D01*
X73920826Y-139389646D02*
X73873207Y-139580122D01*
X73873207Y-139580122D02*
X73825588Y-139675360D01*
X73825588Y-139675360D02*
X73730350Y-139770599D01*
X73730350Y-139770599D02*
X73587493Y-139818218D01*
X73587493Y-139818218D02*
X73349398Y-139818218D01*
X74301779Y-138913456D02*
X74349398Y-138865837D01*
X74349398Y-138865837D02*
X74444636Y-138818218D01*
X74444636Y-138818218D02*
X74682731Y-138818218D01*
X74682731Y-138818218D02*
X74777969Y-138865837D01*
X74777969Y-138865837D02*
X74825588Y-138913456D01*
X74825588Y-138913456D02*
X74873207Y-139008694D01*
X74873207Y-139008694D02*
X74873207Y-139103932D01*
X74873207Y-139103932D02*
X74825588Y-139246789D01*
X74825588Y-139246789D02*
X74254160Y-139818218D01*
X74254160Y-139818218D02*
X74873207Y-139818218D01*
X75825588Y-139818218D02*
X75254160Y-139818218D01*
X75539874Y-139818218D02*
X75539874Y-138818218D01*
X75539874Y-138818218D02*
X75444636Y-138961075D01*
X75444636Y-138961075D02*
X75349398Y-139056313D01*
X75349398Y-139056313D02*
X75254160Y-139103932D01*
X64713398Y-139818218D02*
X64713398Y-138818218D01*
X64713398Y-138818218D02*
X64951493Y-138818218D01*
X64951493Y-138818218D02*
X65094350Y-138865837D01*
X65094350Y-138865837D02*
X65189588Y-138961075D01*
X65189588Y-138961075D02*
X65237207Y-139056313D01*
X65237207Y-139056313D02*
X65284826Y-139246789D01*
X65284826Y-139246789D02*
X65284826Y-139389646D01*
X65284826Y-139389646D02*
X65237207Y-139580122D01*
X65237207Y-139580122D02*
X65189588Y-139675360D01*
X65189588Y-139675360D02*
X65094350Y-139770599D01*
X65094350Y-139770599D02*
X64951493Y-139818218D01*
X64951493Y-139818218D02*
X64713398Y-139818218D01*
X65665779Y-138913456D02*
X65713398Y-138865837D01*
X65713398Y-138865837D02*
X65808636Y-138818218D01*
X65808636Y-138818218D02*
X66046731Y-138818218D01*
X66046731Y-138818218D02*
X66141969Y-138865837D01*
X66141969Y-138865837D02*
X66189588Y-138913456D01*
X66189588Y-138913456D02*
X66237207Y-139008694D01*
X66237207Y-139008694D02*
X66237207Y-139103932D01*
X66237207Y-139103932D02*
X66189588Y-139246789D01*
X66189588Y-139246789D02*
X65618160Y-139818218D01*
X65618160Y-139818218D02*
X66237207Y-139818218D01*
X67141969Y-138818218D02*
X66665779Y-138818218D01*
X66665779Y-138818218D02*
X66618160Y-139294408D01*
X66618160Y-139294408D02*
X66665779Y-139246789D01*
X66665779Y-139246789D02*
X66761017Y-139199170D01*
X66761017Y-139199170D02*
X66999112Y-139199170D01*
X66999112Y-139199170D02*
X67094350Y-139246789D01*
X67094350Y-139246789D02*
X67141969Y-139294408D01*
X67141969Y-139294408D02*
X67189588Y-139389646D01*
X67189588Y-139389646D02*
X67189588Y-139627741D01*
X67189588Y-139627741D02*
X67141969Y-139722979D01*
X67141969Y-139722979D02*
X67094350Y-139770599D01*
X67094350Y-139770599D02*
X66999112Y-139818218D01*
X66999112Y-139818218D02*
X66761017Y-139818218D01*
X66761017Y-139818218D02*
X66665779Y-139770599D01*
X66665779Y-139770599D02*
X66618160Y-139722979D01*
D10*
X111696667Y-152553200D02*
X111839524Y-152600819D01*
X111839524Y-152600819D02*
X112077619Y-152600819D01*
X112077619Y-152600819D02*
X112172857Y-152553200D01*
X112172857Y-152553200D02*
X112220476Y-152505580D01*
X112220476Y-152505580D02*
X112268095Y-152410342D01*
X112268095Y-152410342D02*
X112268095Y-152315104D01*
X112268095Y-152315104D02*
X112220476Y-152219866D01*
X112220476Y-152219866D02*
X112172857Y-152172247D01*
X112172857Y-152172247D02*
X112077619Y-152124628D01*
X112077619Y-152124628D02*
X111887143Y-152077009D01*
X111887143Y-152077009D02*
X111791905Y-152029390D01*
X111791905Y-152029390D02*
X111744286Y-151981771D01*
X111744286Y-151981771D02*
X111696667Y-151886533D01*
X111696667Y-151886533D02*
X111696667Y-151791295D01*
X111696667Y-151791295D02*
X111744286Y-151696057D01*
X111744286Y-151696057D02*
X111791905Y-151648438D01*
X111791905Y-151648438D02*
X111887143Y-151600819D01*
X111887143Y-151600819D02*
X112125238Y-151600819D01*
X112125238Y-151600819D02*
X112268095Y-151648438D01*
X112601429Y-151600819D02*
X112839524Y-152600819D01*
X112839524Y-152600819D02*
X113030000Y-151886533D01*
X113030000Y-151886533D02*
X113220476Y-152600819D01*
X113220476Y-152600819D02*
X113458572Y-151600819D01*
X114268095Y-151934152D02*
X114268095Y-152600819D01*
X114030000Y-151553200D02*
X113791905Y-152267485D01*
X113791905Y-152267485D02*
X114410952Y-152267485D01*
D12*
X64713398Y-147692218D02*
X64713398Y-146692218D01*
X64713398Y-146692218D02*
X64951493Y-146692218D01*
X64951493Y-146692218D02*
X65094350Y-146739837D01*
X65094350Y-146739837D02*
X65189588Y-146835075D01*
X65189588Y-146835075D02*
X65237207Y-146930313D01*
X65237207Y-146930313D02*
X65284826Y-147120789D01*
X65284826Y-147120789D02*
X65284826Y-147263646D01*
X65284826Y-147263646D02*
X65237207Y-147454122D01*
X65237207Y-147454122D02*
X65189588Y-147549360D01*
X65189588Y-147549360D02*
X65094350Y-147644599D01*
X65094350Y-147644599D02*
X64951493Y-147692218D01*
X64951493Y-147692218D02*
X64713398Y-147692218D01*
X65665779Y-146787456D02*
X65713398Y-146739837D01*
X65713398Y-146739837D02*
X65808636Y-146692218D01*
X65808636Y-146692218D02*
X66046731Y-146692218D01*
X66046731Y-146692218D02*
X66141969Y-146739837D01*
X66141969Y-146739837D02*
X66189588Y-146787456D01*
X66189588Y-146787456D02*
X66237207Y-146882694D01*
X66237207Y-146882694D02*
X66237207Y-146977932D01*
X66237207Y-146977932D02*
X66189588Y-147120789D01*
X66189588Y-147120789D02*
X65618160Y-147692218D01*
X65618160Y-147692218D02*
X66237207Y-147692218D01*
X67094350Y-146692218D02*
X66903874Y-146692218D01*
X66903874Y-146692218D02*
X66808636Y-146739837D01*
X66808636Y-146739837D02*
X66761017Y-146787456D01*
X66761017Y-146787456D02*
X66665779Y-146930313D01*
X66665779Y-146930313D02*
X66618160Y-147120789D01*
X66618160Y-147120789D02*
X66618160Y-147501741D01*
X66618160Y-147501741D02*
X66665779Y-147596979D01*
X66665779Y-147596979D02*
X66713398Y-147644599D01*
X66713398Y-147644599D02*
X66808636Y-147692218D01*
X66808636Y-147692218D02*
X66999112Y-147692218D01*
X66999112Y-147692218D02*
X67094350Y-147644599D01*
X67094350Y-147644599D02*
X67141969Y-147596979D01*
X67141969Y-147596979D02*
X67189588Y-147501741D01*
X67189588Y-147501741D02*
X67189588Y-147263646D01*
X67189588Y-147263646D02*
X67141969Y-147168408D01*
X67141969Y-147168408D02*
X67094350Y-147120789D01*
X67094350Y-147120789D02*
X66999112Y-147073170D01*
X66999112Y-147073170D02*
X66808636Y-147073170D01*
X66808636Y-147073170D02*
X66713398Y-147120789D01*
X66713398Y-147120789D02*
X66665779Y-147168408D01*
X66665779Y-147168408D02*
X66618160Y-147263646D01*
D10*
X149320476Y-133503200D02*
X149463333Y-133550819D01*
X149463333Y-133550819D02*
X149701428Y-133550819D01*
X149701428Y-133550819D02*
X149796666Y-133503200D01*
X149796666Y-133503200D02*
X149844285Y-133455580D01*
X149844285Y-133455580D02*
X149891904Y-133360342D01*
X149891904Y-133360342D02*
X149891904Y-133265104D01*
X149891904Y-133265104D02*
X149844285Y-133169866D01*
X149844285Y-133169866D02*
X149796666Y-133122247D01*
X149796666Y-133122247D02*
X149701428Y-133074628D01*
X149701428Y-133074628D02*
X149510952Y-133027009D01*
X149510952Y-133027009D02*
X149415714Y-132979390D01*
X149415714Y-132979390D02*
X149368095Y-132931771D01*
X149368095Y-132931771D02*
X149320476Y-132836533D01*
X149320476Y-132836533D02*
X149320476Y-132741295D01*
X149320476Y-132741295D02*
X149368095Y-132646057D01*
X149368095Y-132646057D02*
X149415714Y-132598438D01*
X149415714Y-132598438D02*
X149510952Y-132550819D01*
X149510952Y-132550819D02*
X149749047Y-132550819D01*
X149749047Y-132550819D02*
X149891904Y-132598438D01*
X150225238Y-132550819D02*
X150463333Y-133550819D01*
X150463333Y-133550819D02*
X150653809Y-132836533D01*
X150653809Y-132836533D02*
X150844285Y-133550819D01*
X150844285Y-133550819D02*
X151082381Y-132550819D01*
X151987142Y-133550819D02*
X151415714Y-133550819D01*
X151701428Y-133550819D02*
X151701428Y-132550819D01*
X151701428Y-132550819D02*
X151606190Y-132693676D01*
X151606190Y-132693676D02*
X151510952Y-132788914D01*
X151510952Y-132788914D02*
X151415714Y-132836533D01*
X152939523Y-133550819D02*
X152368095Y-133550819D01*
X152653809Y-133550819D02*
X152653809Y-132550819D01*
X152653809Y-132550819D02*
X152558571Y-132693676D01*
X152558571Y-132693676D02*
X152463333Y-132788914D01*
X152463333Y-132788914D02*
X152368095Y-132836533D01*
D12*
X69031398Y-147692218D02*
X69031398Y-146692218D01*
X69031398Y-146692218D02*
X69269493Y-146692218D01*
X69269493Y-146692218D02*
X69412350Y-146739837D01*
X69412350Y-146739837D02*
X69507588Y-146835075D01*
X69507588Y-146835075D02*
X69555207Y-146930313D01*
X69555207Y-146930313D02*
X69602826Y-147120789D01*
X69602826Y-147120789D02*
X69602826Y-147263646D01*
X69602826Y-147263646D02*
X69555207Y-147454122D01*
X69555207Y-147454122D02*
X69507588Y-147549360D01*
X69507588Y-147549360D02*
X69412350Y-147644599D01*
X69412350Y-147644599D02*
X69269493Y-147692218D01*
X69269493Y-147692218D02*
X69031398Y-147692218D01*
X69936160Y-146692218D02*
X70555207Y-146692218D01*
X70555207Y-146692218D02*
X70221874Y-147073170D01*
X70221874Y-147073170D02*
X70364731Y-147073170D01*
X70364731Y-147073170D02*
X70459969Y-147120789D01*
X70459969Y-147120789D02*
X70507588Y-147168408D01*
X70507588Y-147168408D02*
X70555207Y-147263646D01*
X70555207Y-147263646D02*
X70555207Y-147501741D01*
X70555207Y-147501741D02*
X70507588Y-147596979D01*
X70507588Y-147596979D02*
X70459969Y-147644599D01*
X70459969Y-147644599D02*
X70364731Y-147692218D01*
X70364731Y-147692218D02*
X70079017Y-147692218D01*
X70079017Y-147692218D02*
X69983779Y-147644599D01*
X69983779Y-147644599D02*
X69936160Y-147596979D01*
X71507588Y-147692218D02*
X70936160Y-147692218D01*
X71221874Y-147692218D02*
X71221874Y-146692218D01*
X71221874Y-146692218D02*
X71126636Y-146835075D01*
X71126636Y-146835075D02*
X71031398Y-146930313D01*
X71031398Y-146930313D02*
X70936160Y-146977932D01*
X64713398Y-124070218D02*
X64713398Y-123070218D01*
X64713398Y-123070218D02*
X64951493Y-123070218D01*
X64951493Y-123070218D02*
X65094350Y-123117837D01*
X65094350Y-123117837D02*
X65189588Y-123213075D01*
X65189588Y-123213075D02*
X65237207Y-123308313D01*
X65237207Y-123308313D02*
X65284826Y-123498789D01*
X65284826Y-123498789D02*
X65284826Y-123641646D01*
X65284826Y-123641646D02*
X65237207Y-123832122D01*
X65237207Y-123832122D02*
X65189588Y-123927360D01*
X65189588Y-123927360D02*
X65094350Y-124022599D01*
X65094350Y-124022599D02*
X64951493Y-124070218D01*
X64951493Y-124070218D02*
X64713398Y-124070218D01*
X65665779Y-123165456D02*
X65713398Y-123117837D01*
X65713398Y-123117837D02*
X65808636Y-123070218D01*
X65808636Y-123070218D02*
X66046731Y-123070218D01*
X66046731Y-123070218D02*
X66141969Y-123117837D01*
X66141969Y-123117837D02*
X66189588Y-123165456D01*
X66189588Y-123165456D02*
X66237207Y-123260694D01*
X66237207Y-123260694D02*
X66237207Y-123355932D01*
X66237207Y-123355932D02*
X66189588Y-123498789D01*
X66189588Y-123498789D02*
X65618160Y-124070218D01*
X65618160Y-124070218D02*
X66237207Y-124070218D01*
X66570541Y-123070218D02*
X67189588Y-123070218D01*
X67189588Y-123070218D02*
X66856255Y-123451170D01*
X66856255Y-123451170D02*
X66999112Y-123451170D01*
X66999112Y-123451170D02*
X67094350Y-123498789D01*
X67094350Y-123498789D02*
X67141969Y-123546408D01*
X67141969Y-123546408D02*
X67189588Y-123641646D01*
X67189588Y-123641646D02*
X67189588Y-123879741D01*
X67189588Y-123879741D02*
X67141969Y-123974979D01*
X67141969Y-123974979D02*
X67094350Y-124022599D01*
X67094350Y-124022599D02*
X66999112Y-124070218D01*
X66999112Y-124070218D02*
X66713398Y-124070218D01*
X66713398Y-124070218D02*
X66618160Y-124022599D01*
X66618160Y-124022599D02*
X66570541Y-123974979D01*
D10*
X111696667Y-95403200D02*
X111839524Y-95450819D01*
X111839524Y-95450819D02*
X112077619Y-95450819D01*
X112077619Y-95450819D02*
X112172857Y-95403200D01*
X112172857Y-95403200D02*
X112220476Y-95355580D01*
X112220476Y-95355580D02*
X112268095Y-95260342D01*
X112268095Y-95260342D02*
X112268095Y-95165104D01*
X112268095Y-95165104D02*
X112220476Y-95069866D01*
X112220476Y-95069866D02*
X112172857Y-95022247D01*
X112172857Y-95022247D02*
X112077619Y-94974628D01*
X112077619Y-94974628D02*
X111887143Y-94927009D01*
X111887143Y-94927009D02*
X111791905Y-94879390D01*
X111791905Y-94879390D02*
X111744286Y-94831771D01*
X111744286Y-94831771D02*
X111696667Y-94736533D01*
X111696667Y-94736533D02*
X111696667Y-94641295D01*
X111696667Y-94641295D02*
X111744286Y-94546057D01*
X111744286Y-94546057D02*
X111791905Y-94498438D01*
X111791905Y-94498438D02*
X111887143Y-94450819D01*
X111887143Y-94450819D02*
X112125238Y-94450819D01*
X112125238Y-94450819D02*
X112268095Y-94498438D01*
X112601429Y-94450819D02*
X112839524Y-95450819D01*
X112839524Y-95450819D02*
X113030000Y-94736533D01*
X113030000Y-94736533D02*
X113220476Y-95450819D01*
X113220476Y-95450819D02*
X113458572Y-94450819D01*
X114363333Y-95450819D02*
X113791905Y-95450819D01*
X114077619Y-95450819D02*
X114077619Y-94450819D01*
X114077619Y-94450819D02*
X113982381Y-94593676D01*
X113982381Y-94593676D02*
X113887143Y-94688914D01*
X113887143Y-94688914D02*
X113791905Y-94736533D01*
X130746667Y-114453200D02*
X130889524Y-114500819D01*
X130889524Y-114500819D02*
X131127619Y-114500819D01*
X131127619Y-114500819D02*
X131222857Y-114453200D01*
X131222857Y-114453200D02*
X131270476Y-114405580D01*
X131270476Y-114405580D02*
X131318095Y-114310342D01*
X131318095Y-114310342D02*
X131318095Y-114215104D01*
X131318095Y-114215104D02*
X131270476Y-114119866D01*
X131270476Y-114119866D02*
X131222857Y-114072247D01*
X131222857Y-114072247D02*
X131127619Y-114024628D01*
X131127619Y-114024628D02*
X130937143Y-113977009D01*
X130937143Y-113977009D02*
X130841905Y-113929390D01*
X130841905Y-113929390D02*
X130794286Y-113881771D01*
X130794286Y-113881771D02*
X130746667Y-113786533D01*
X130746667Y-113786533D02*
X130746667Y-113691295D01*
X130746667Y-113691295D02*
X130794286Y-113596057D01*
X130794286Y-113596057D02*
X130841905Y-113548438D01*
X130841905Y-113548438D02*
X130937143Y-113500819D01*
X130937143Y-113500819D02*
X131175238Y-113500819D01*
X131175238Y-113500819D02*
X131318095Y-113548438D01*
X131651429Y-113500819D02*
X131889524Y-114500819D01*
X131889524Y-114500819D02*
X132080000Y-113786533D01*
X132080000Y-113786533D02*
X132270476Y-114500819D01*
X132270476Y-114500819D02*
X132508572Y-113500819D01*
X133318095Y-113500819D02*
X133127619Y-113500819D01*
X133127619Y-113500819D02*
X133032381Y-113548438D01*
X133032381Y-113548438D02*
X132984762Y-113596057D01*
X132984762Y-113596057D02*
X132889524Y-113738914D01*
X132889524Y-113738914D02*
X132841905Y-113929390D01*
X132841905Y-113929390D02*
X132841905Y-114310342D01*
X132841905Y-114310342D02*
X132889524Y-114405580D01*
X132889524Y-114405580D02*
X132937143Y-114453200D01*
X132937143Y-114453200D02*
X133032381Y-114500819D01*
X133032381Y-114500819D02*
X133222857Y-114500819D01*
X133222857Y-114500819D02*
X133318095Y-114453200D01*
X133318095Y-114453200D02*
X133365714Y-114405580D01*
X133365714Y-114405580D02*
X133413333Y-114310342D01*
X133413333Y-114310342D02*
X133413333Y-114072247D01*
X133413333Y-114072247D02*
X133365714Y-113977009D01*
X133365714Y-113977009D02*
X133318095Y-113929390D01*
X133318095Y-113929390D02*
X133222857Y-113881771D01*
X133222857Y-113881771D02*
X133032381Y-113881771D01*
X133032381Y-113881771D02*
X132937143Y-113929390D01*
X132937143Y-113929390D02*
X132889524Y-113977009D01*
X132889524Y-113977009D02*
X132841905Y-114072247D01*
D12*
X69031398Y-124070218D02*
X69031398Y-123070218D01*
X69031398Y-123070218D02*
X69269493Y-123070218D01*
X69269493Y-123070218D02*
X69412350Y-123117837D01*
X69412350Y-123117837D02*
X69507588Y-123213075D01*
X69507588Y-123213075D02*
X69555207Y-123308313D01*
X69555207Y-123308313D02*
X69602826Y-123498789D01*
X69602826Y-123498789D02*
X69602826Y-123641646D01*
X69602826Y-123641646D02*
X69555207Y-123832122D01*
X69555207Y-123832122D02*
X69507588Y-123927360D01*
X69507588Y-123927360D02*
X69412350Y-124022599D01*
X69412350Y-124022599D02*
X69269493Y-124070218D01*
X69269493Y-124070218D02*
X69031398Y-124070218D01*
X69936160Y-123070218D02*
X70555207Y-123070218D01*
X70555207Y-123070218D02*
X70221874Y-123451170D01*
X70221874Y-123451170D02*
X70364731Y-123451170D01*
X70364731Y-123451170D02*
X70459969Y-123498789D01*
X70459969Y-123498789D02*
X70507588Y-123546408D01*
X70507588Y-123546408D02*
X70555207Y-123641646D01*
X70555207Y-123641646D02*
X70555207Y-123879741D01*
X70555207Y-123879741D02*
X70507588Y-123974979D01*
X70507588Y-123974979D02*
X70459969Y-124022599D01*
X70459969Y-124022599D02*
X70364731Y-124070218D01*
X70364731Y-124070218D02*
X70079017Y-124070218D01*
X70079017Y-124070218D02*
X69983779Y-124022599D01*
X69983779Y-124022599D02*
X69936160Y-123974979D01*
X71412350Y-123403551D02*
X71412350Y-124070218D01*
X71174255Y-123022599D02*
X70936160Y-123736884D01*
X70936160Y-123736884D02*
X71555207Y-123736884D01*
X77667398Y-147946218D02*
X77667398Y-146946218D01*
X77667398Y-146946218D02*
X77905493Y-146946218D01*
X77905493Y-146946218D02*
X78048350Y-146993837D01*
X78048350Y-146993837D02*
X78143588Y-147089075D01*
X78143588Y-147089075D02*
X78191207Y-147184313D01*
X78191207Y-147184313D02*
X78238826Y-147374789D01*
X78238826Y-147374789D02*
X78238826Y-147517646D01*
X78238826Y-147517646D02*
X78191207Y-147708122D01*
X78191207Y-147708122D02*
X78143588Y-147803360D01*
X78143588Y-147803360D02*
X78048350Y-147898599D01*
X78048350Y-147898599D02*
X77905493Y-147946218D01*
X77905493Y-147946218D02*
X77667398Y-147946218D01*
X78619779Y-147041456D02*
X78667398Y-146993837D01*
X78667398Y-146993837D02*
X78762636Y-146946218D01*
X78762636Y-146946218D02*
X79000731Y-146946218D01*
X79000731Y-146946218D02*
X79095969Y-146993837D01*
X79095969Y-146993837D02*
X79143588Y-147041456D01*
X79143588Y-147041456D02*
X79191207Y-147136694D01*
X79191207Y-147136694D02*
X79191207Y-147231932D01*
X79191207Y-147231932D02*
X79143588Y-147374789D01*
X79143588Y-147374789D02*
X78572160Y-147946218D01*
X78572160Y-147946218D02*
X79191207Y-147946218D01*
X79524541Y-146946218D02*
X80191207Y-146946218D01*
X80191207Y-146946218D02*
X79762636Y-147946218D01*
D10*
X130746667Y-152553200D02*
X130889524Y-152600819D01*
X130889524Y-152600819D02*
X131127619Y-152600819D01*
X131127619Y-152600819D02*
X131222857Y-152553200D01*
X131222857Y-152553200D02*
X131270476Y-152505580D01*
X131270476Y-152505580D02*
X131318095Y-152410342D01*
X131318095Y-152410342D02*
X131318095Y-152315104D01*
X131318095Y-152315104D02*
X131270476Y-152219866D01*
X131270476Y-152219866D02*
X131222857Y-152172247D01*
X131222857Y-152172247D02*
X131127619Y-152124628D01*
X131127619Y-152124628D02*
X130937143Y-152077009D01*
X130937143Y-152077009D02*
X130841905Y-152029390D01*
X130841905Y-152029390D02*
X130794286Y-151981771D01*
X130794286Y-151981771D02*
X130746667Y-151886533D01*
X130746667Y-151886533D02*
X130746667Y-151791295D01*
X130746667Y-151791295D02*
X130794286Y-151696057D01*
X130794286Y-151696057D02*
X130841905Y-151648438D01*
X130841905Y-151648438D02*
X130937143Y-151600819D01*
X130937143Y-151600819D02*
X131175238Y-151600819D01*
X131175238Y-151600819D02*
X131318095Y-151648438D01*
X131651429Y-151600819D02*
X131889524Y-152600819D01*
X131889524Y-152600819D02*
X132080000Y-151886533D01*
X132080000Y-151886533D02*
X132270476Y-152600819D01*
X132270476Y-152600819D02*
X132508572Y-151600819D01*
X133032381Y-152029390D02*
X132937143Y-151981771D01*
X132937143Y-151981771D02*
X132889524Y-151934152D01*
X132889524Y-151934152D02*
X132841905Y-151838914D01*
X132841905Y-151838914D02*
X132841905Y-151791295D01*
X132841905Y-151791295D02*
X132889524Y-151696057D01*
X132889524Y-151696057D02*
X132937143Y-151648438D01*
X132937143Y-151648438D02*
X133032381Y-151600819D01*
X133032381Y-151600819D02*
X133222857Y-151600819D01*
X133222857Y-151600819D02*
X133318095Y-151648438D01*
X133318095Y-151648438D02*
X133365714Y-151696057D01*
X133365714Y-151696057D02*
X133413333Y-151791295D01*
X133413333Y-151791295D02*
X133413333Y-151838914D01*
X133413333Y-151838914D02*
X133365714Y-151934152D01*
X133365714Y-151934152D02*
X133318095Y-151981771D01*
X133318095Y-151981771D02*
X133222857Y-152029390D01*
X133222857Y-152029390D02*
X133032381Y-152029390D01*
X133032381Y-152029390D02*
X132937143Y-152077009D01*
X132937143Y-152077009D02*
X132889524Y-152124628D01*
X132889524Y-152124628D02*
X132841905Y-152219866D01*
X132841905Y-152219866D02*
X132841905Y-152410342D01*
X132841905Y-152410342D02*
X132889524Y-152505580D01*
X132889524Y-152505580D02*
X132937143Y-152553200D01*
X132937143Y-152553200D02*
X133032381Y-152600819D01*
X133032381Y-152600819D02*
X133222857Y-152600819D01*
X133222857Y-152600819D02*
X133318095Y-152553200D01*
X133318095Y-152553200D02*
X133365714Y-152505580D01*
X133365714Y-152505580D02*
X133413333Y-152410342D01*
X133413333Y-152410342D02*
X133413333Y-152219866D01*
X133413333Y-152219866D02*
X133365714Y-152124628D01*
X133365714Y-152124628D02*
X133318095Y-152077009D01*
X133318095Y-152077009D02*
X133222857Y-152029390D01*
X149796667Y-95403200D02*
X149939524Y-95450819D01*
X149939524Y-95450819D02*
X150177619Y-95450819D01*
X150177619Y-95450819D02*
X150272857Y-95403200D01*
X150272857Y-95403200D02*
X150320476Y-95355580D01*
X150320476Y-95355580D02*
X150368095Y-95260342D01*
X150368095Y-95260342D02*
X150368095Y-95165104D01*
X150368095Y-95165104D02*
X150320476Y-95069866D01*
X150320476Y-95069866D02*
X150272857Y-95022247D01*
X150272857Y-95022247D02*
X150177619Y-94974628D01*
X150177619Y-94974628D02*
X149987143Y-94927009D01*
X149987143Y-94927009D02*
X149891905Y-94879390D01*
X149891905Y-94879390D02*
X149844286Y-94831771D01*
X149844286Y-94831771D02*
X149796667Y-94736533D01*
X149796667Y-94736533D02*
X149796667Y-94641295D01*
X149796667Y-94641295D02*
X149844286Y-94546057D01*
X149844286Y-94546057D02*
X149891905Y-94498438D01*
X149891905Y-94498438D02*
X149987143Y-94450819D01*
X149987143Y-94450819D02*
X150225238Y-94450819D01*
X150225238Y-94450819D02*
X150368095Y-94498438D01*
X150701429Y-94450819D02*
X150939524Y-95450819D01*
X150939524Y-95450819D02*
X151130000Y-94736533D01*
X151130000Y-94736533D02*
X151320476Y-95450819D01*
X151320476Y-95450819D02*
X151558572Y-94450819D01*
X151987143Y-95450819D02*
X152177619Y-95450819D01*
X152177619Y-95450819D02*
X152272857Y-95403200D01*
X152272857Y-95403200D02*
X152320476Y-95355580D01*
X152320476Y-95355580D02*
X152415714Y-95212723D01*
X152415714Y-95212723D02*
X152463333Y-95022247D01*
X152463333Y-95022247D02*
X152463333Y-94641295D01*
X152463333Y-94641295D02*
X152415714Y-94546057D01*
X152415714Y-94546057D02*
X152368095Y-94498438D01*
X152368095Y-94498438D02*
X152272857Y-94450819D01*
X152272857Y-94450819D02*
X152082381Y-94450819D01*
X152082381Y-94450819D02*
X151987143Y-94498438D01*
X151987143Y-94498438D02*
X151939524Y-94546057D01*
X151939524Y-94546057D02*
X151891905Y-94641295D01*
X151891905Y-94641295D02*
X151891905Y-94879390D01*
X151891905Y-94879390D02*
X151939524Y-94974628D01*
X151939524Y-94974628D02*
X151987143Y-95022247D01*
X151987143Y-95022247D02*
X152082381Y-95069866D01*
X152082381Y-95069866D02*
X152272857Y-95069866D01*
X152272857Y-95069866D02*
X152368095Y-95022247D01*
X152368095Y-95022247D02*
X152415714Y-94974628D01*
X152415714Y-94974628D02*
X152463333Y-94879390D01*
X193140476Y-124447200D02*
X193283333Y-124494819D01*
X193283333Y-124494819D02*
X193521428Y-124494819D01*
X193521428Y-124494819D02*
X193616666Y-124447200D01*
X193616666Y-124447200D02*
X193664285Y-124399580D01*
X193664285Y-124399580D02*
X193711904Y-124304342D01*
X193711904Y-124304342D02*
X193711904Y-124209104D01*
X193711904Y-124209104D02*
X193664285Y-124113866D01*
X193664285Y-124113866D02*
X193616666Y-124066247D01*
X193616666Y-124066247D02*
X193521428Y-124018628D01*
X193521428Y-124018628D02*
X193330952Y-123971009D01*
X193330952Y-123971009D02*
X193235714Y-123923390D01*
X193235714Y-123923390D02*
X193188095Y-123875771D01*
X193188095Y-123875771D02*
X193140476Y-123780533D01*
X193140476Y-123780533D02*
X193140476Y-123685295D01*
X193140476Y-123685295D02*
X193188095Y-123590057D01*
X193188095Y-123590057D02*
X193235714Y-123542438D01*
X193235714Y-123542438D02*
X193330952Y-123494819D01*
X193330952Y-123494819D02*
X193569047Y-123494819D01*
X193569047Y-123494819D02*
X193711904Y-123542438D01*
X194045238Y-123494819D02*
X194283333Y-124494819D01*
X194283333Y-124494819D02*
X194473809Y-123780533D01*
X194473809Y-123780533D02*
X194664285Y-124494819D01*
X194664285Y-124494819D02*
X194902381Y-123494819D01*
X195807142Y-124494819D02*
X195235714Y-124494819D01*
X195521428Y-124494819D02*
X195521428Y-123494819D01*
X195521428Y-123494819D02*
X195426190Y-123637676D01*
X195426190Y-123637676D02*
X195330952Y-123732914D01*
X195330952Y-123732914D02*
X195235714Y-123780533D01*
X196140476Y-123494819D02*
X196807142Y-123494819D01*
X196807142Y-123494819D02*
X196378571Y-124494819D01*
D12*
X69031398Y-131944218D02*
X69031398Y-130944218D01*
X69031398Y-130944218D02*
X69269493Y-130944218D01*
X69269493Y-130944218D02*
X69412350Y-130991837D01*
X69412350Y-130991837D02*
X69507588Y-131087075D01*
X69507588Y-131087075D02*
X69555207Y-131182313D01*
X69555207Y-131182313D02*
X69602826Y-131372789D01*
X69602826Y-131372789D02*
X69602826Y-131515646D01*
X69602826Y-131515646D02*
X69555207Y-131706122D01*
X69555207Y-131706122D02*
X69507588Y-131801360D01*
X69507588Y-131801360D02*
X69412350Y-131896599D01*
X69412350Y-131896599D02*
X69269493Y-131944218D01*
X69269493Y-131944218D02*
X69031398Y-131944218D01*
X69936160Y-130944218D02*
X70555207Y-130944218D01*
X70555207Y-130944218D02*
X70221874Y-131325170D01*
X70221874Y-131325170D02*
X70364731Y-131325170D01*
X70364731Y-131325170D02*
X70459969Y-131372789D01*
X70459969Y-131372789D02*
X70507588Y-131420408D01*
X70507588Y-131420408D02*
X70555207Y-131515646D01*
X70555207Y-131515646D02*
X70555207Y-131753741D01*
X70555207Y-131753741D02*
X70507588Y-131848979D01*
X70507588Y-131848979D02*
X70459969Y-131896599D01*
X70459969Y-131896599D02*
X70364731Y-131944218D01*
X70364731Y-131944218D02*
X70079017Y-131944218D01*
X70079017Y-131944218D02*
X69983779Y-131896599D01*
X69983779Y-131896599D02*
X69936160Y-131848979D01*
X70888541Y-130944218D02*
X71507588Y-130944218D01*
X71507588Y-130944218D02*
X71174255Y-131325170D01*
X71174255Y-131325170D02*
X71317112Y-131325170D01*
X71317112Y-131325170D02*
X71412350Y-131372789D01*
X71412350Y-131372789D02*
X71459969Y-131420408D01*
X71459969Y-131420408D02*
X71507588Y-131515646D01*
X71507588Y-131515646D02*
X71507588Y-131753741D01*
X71507588Y-131753741D02*
X71459969Y-131848979D01*
X71459969Y-131848979D02*
X71412350Y-131896599D01*
X71412350Y-131896599D02*
X71317112Y-131944218D01*
X71317112Y-131944218D02*
X71031398Y-131944218D01*
X71031398Y-131944218D02*
X70936160Y-131896599D01*
X70936160Y-131896599D02*
X70888541Y-131848979D01*
X69031398Y-139818218D02*
X69031398Y-138818218D01*
X69031398Y-138818218D02*
X69269493Y-138818218D01*
X69269493Y-138818218D02*
X69412350Y-138865837D01*
X69412350Y-138865837D02*
X69507588Y-138961075D01*
X69507588Y-138961075D02*
X69555207Y-139056313D01*
X69555207Y-139056313D02*
X69602826Y-139246789D01*
X69602826Y-139246789D02*
X69602826Y-139389646D01*
X69602826Y-139389646D02*
X69555207Y-139580122D01*
X69555207Y-139580122D02*
X69507588Y-139675360D01*
X69507588Y-139675360D02*
X69412350Y-139770599D01*
X69412350Y-139770599D02*
X69269493Y-139818218D01*
X69269493Y-139818218D02*
X69031398Y-139818218D01*
X69936160Y-138818218D02*
X70555207Y-138818218D01*
X70555207Y-138818218D02*
X70221874Y-139199170D01*
X70221874Y-139199170D02*
X70364731Y-139199170D01*
X70364731Y-139199170D02*
X70459969Y-139246789D01*
X70459969Y-139246789D02*
X70507588Y-139294408D01*
X70507588Y-139294408D02*
X70555207Y-139389646D01*
X70555207Y-139389646D02*
X70555207Y-139627741D01*
X70555207Y-139627741D02*
X70507588Y-139722979D01*
X70507588Y-139722979D02*
X70459969Y-139770599D01*
X70459969Y-139770599D02*
X70364731Y-139818218D01*
X70364731Y-139818218D02*
X70079017Y-139818218D01*
X70079017Y-139818218D02*
X69983779Y-139770599D01*
X69983779Y-139770599D02*
X69936160Y-139722979D01*
X70936160Y-138913456D02*
X70983779Y-138865837D01*
X70983779Y-138865837D02*
X71079017Y-138818218D01*
X71079017Y-138818218D02*
X71317112Y-138818218D01*
X71317112Y-138818218D02*
X71412350Y-138865837D01*
X71412350Y-138865837D02*
X71459969Y-138913456D01*
X71459969Y-138913456D02*
X71507588Y-139008694D01*
X71507588Y-139008694D02*
X71507588Y-139103932D01*
X71507588Y-139103932D02*
X71459969Y-139246789D01*
X71459969Y-139246789D02*
X70888541Y-139818218D01*
X70888541Y-139818218D02*
X71507588Y-139818218D01*
D10*
X111696667Y-133503200D02*
X111839524Y-133550819D01*
X111839524Y-133550819D02*
X112077619Y-133550819D01*
X112077619Y-133550819D02*
X112172857Y-133503200D01*
X112172857Y-133503200D02*
X112220476Y-133455580D01*
X112220476Y-133455580D02*
X112268095Y-133360342D01*
X112268095Y-133360342D02*
X112268095Y-133265104D01*
X112268095Y-133265104D02*
X112220476Y-133169866D01*
X112220476Y-133169866D02*
X112172857Y-133122247D01*
X112172857Y-133122247D02*
X112077619Y-133074628D01*
X112077619Y-133074628D02*
X111887143Y-133027009D01*
X111887143Y-133027009D02*
X111791905Y-132979390D01*
X111791905Y-132979390D02*
X111744286Y-132931771D01*
X111744286Y-132931771D02*
X111696667Y-132836533D01*
X111696667Y-132836533D02*
X111696667Y-132741295D01*
X111696667Y-132741295D02*
X111744286Y-132646057D01*
X111744286Y-132646057D02*
X111791905Y-132598438D01*
X111791905Y-132598438D02*
X111887143Y-132550819D01*
X111887143Y-132550819D02*
X112125238Y-132550819D01*
X112125238Y-132550819D02*
X112268095Y-132598438D01*
X112601429Y-132550819D02*
X112839524Y-133550819D01*
X112839524Y-133550819D02*
X113030000Y-132836533D01*
X113030000Y-132836533D02*
X113220476Y-133550819D01*
X113220476Y-133550819D02*
X113458572Y-132550819D01*
X113744286Y-132550819D02*
X114363333Y-132550819D01*
X114363333Y-132550819D02*
X114030000Y-132931771D01*
X114030000Y-132931771D02*
X114172857Y-132931771D01*
X114172857Y-132931771D02*
X114268095Y-132979390D01*
X114268095Y-132979390D02*
X114315714Y-133027009D01*
X114315714Y-133027009D02*
X114363333Y-133122247D01*
X114363333Y-133122247D02*
X114363333Y-133360342D01*
X114363333Y-133360342D02*
X114315714Y-133455580D01*
X114315714Y-133455580D02*
X114268095Y-133503200D01*
X114268095Y-133503200D02*
X114172857Y-133550819D01*
X114172857Y-133550819D02*
X113887143Y-133550819D01*
X113887143Y-133550819D02*
X113791905Y-133503200D01*
X113791905Y-133503200D02*
X113744286Y-133455580D01*
X130746667Y-95403200D02*
X130889524Y-95450819D01*
X130889524Y-95450819D02*
X131127619Y-95450819D01*
X131127619Y-95450819D02*
X131222857Y-95403200D01*
X131222857Y-95403200D02*
X131270476Y-95355580D01*
X131270476Y-95355580D02*
X131318095Y-95260342D01*
X131318095Y-95260342D02*
X131318095Y-95165104D01*
X131318095Y-95165104D02*
X131270476Y-95069866D01*
X131270476Y-95069866D02*
X131222857Y-95022247D01*
X131222857Y-95022247D02*
X131127619Y-94974628D01*
X131127619Y-94974628D02*
X130937143Y-94927009D01*
X130937143Y-94927009D02*
X130841905Y-94879390D01*
X130841905Y-94879390D02*
X130794286Y-94831771D01*
X130794286Y-94831771D02*
X130746667Y-94736533D01*
X130746667Y-94736533D02*
X130746667Y-94641295D01*
X130746667Y-94641295D02*
X130794286Y-94546057D01*
X130794286Y-94546057D02*
X130841905Y-94498438D01*
X130841905Y-94498438D02*
X130937143Y-94450819D01*
X130937143Y-94450819D02*
X131175238Y-94450819D01*
X131175238Y-94450819D02*
X131318095Y-94498438D01*
X131651429Y-94450819D02*
X131889524Y-95450819D01*
X131889524Y-95450819D02*
X132080000Y-94736533D01*
X132080000Y-94736533D02*
X132270476Y-95450819D01*
X132270476Y-95450819D02*
X132508572Y-94450819D01*
X133365714Y-94450819D02*
X132889524Y-94450819D01*
X132889524Y-94450819D02*
X132841905Y-94927009D01*
X132841905Y-94927009D02*
X132889524Y-94879390D01*
X132889524Y-94879390D02*
X132984762Y-94831771D01*
X132984762Y-94831771D02*
X133222857Y-94831771D01*
X133222857Y-94831771D02*
X133318095Y-94879390D01*
X133318095Y-94879390D02*
X133365714Y-94927009D01*
X133365714Y-94927009D02*
X133413333Y-95022247D01*
X133413333Y-95022247D02*
X133413333Y-95260342D01*
X133413333Y-95260342D02*
X133365714Y-95355580D01*
X133365714Y-95355580D02*
X133318095Y-95403200D01*
X133318095Y-95403200D02*
X133222857Y-95450819D01*
X133222857Y-95450819D02*
X132984762Y-95450819D01*
X132984762Y-95450819D02*
X132889524Y-95403200D01*
X132889524Y-95403200D02*
X132841905Y-95355580D01*
D12*
X64713398Y-131944218D02*
X64713398Y-130944218D01*
X64713398Y-130944218D02*
X64951493Y-130944218D01*
X64951493Y-130944218D02*
X65094350Y-130991837D01*
X65094350Y-130991837D02*
X65189588Y-131087075D01*
X65189588Y-131087075D02*
X65237207Y-131182313D01*
X65237207Y-131182313D02*
X65284826Y-131372789D01*
X65284826Y-131372789D02*
X65284826Y-131515646D01*
X65284826Y-131515646D02*
X65237207Y-131706122D01*
X65237207Y-131706122D02*
X65189588Y-131801360D01*
X65189588Y-131801360D02*
X65094350Y-131896599D01*
X65094350Y-131896599D02*
X64951493Y-131944218D01*
X64951493Y-131944218D02*
X64713398Y-131944218D01*
X65665779Y-131039456D02*
X65713398Y-130991837D01*
X65713398Y-130991837D02*
X65808636Y-130944218D01*
X65808636Y-130944218D02*
X66046731Y-130944218D01*
X66046731Y-130944218D02*
X66141969Y-130991837D01*
X66141969Y-130991837D02*
X66189588Y-131039456D01*
X66189588Y-131039456D02*
X66237207Y-131134694D01*
X66237207Y-131134694D02*
X66237207Y-131229932D01*
X66237207Y-131229932D02*
X66189588Y-131372789D01*
X66189588Y-131372789D02*
X65618160Y-131944218D01*
X65618160Y-131944218D02*
X66237207Y-131944218D01*
X67094350Y-131277551D02*
X67094350Y-131944218D01*
X66856255Y-130896599D02*
X66618160Y-131610884D01*
X66618160Y-131610884D02*
X67237207Y-131610884D01*
D10*
X149320476Y-152553200D02*
X149463333Y-152600819D01*
X149463333Y-152600819D02*
X149701428Y-152600819D01*
X149701428Y-152600819D02*
X149796666Y-152553200D01*
X149796666Y-152553200D02*
X149844285Y-152505580D01*
X149844285Y-152505580D02*
X149891904Y-152410342D01*
X149891904Y-152410342D02*
X149891904Y-152315104D01*
X149891904Y-152315104D02*
X149844285Y-152219866D01*
X149844285Y-152219866D02*
X149796666Y-152172247D01*
X149796666Y-152172247D02*
X149701428Y-152124628D01*
X149701428Y-152124628D02*
X149510952Y-152077009D01*
X149510952Y-152077009D02*
X149415714Y-152029390D01*
X149415714Y-152029390D02*
X149368095Y-151981771D01*
X149368095Y-151981771D02*
X149320476Y-151886533D01*
X149320476Y-151886533D02*
X149320476Y-151791295D01*
X149320476Y-151791295D02*
X149368095Y-151696057D01*
X149368095Y-151696057D02*
X149415714Y-151648438D01*
X149415714Y-151648438D02*
X149510952Y-151600819D01*
X149510952Y-151600819D02*
X149749047Y-151600819D01*
X149749047Y-151600819D02*
X149891904Y-151648438D01*
X150225238Y-151600819D02*
X150463333Y-152600819D01*
X150463333Y-152600819D02*
X150653809Y-151886533D01*
X150653809Y-151886533D02*
X150844285Y-152600819D01*
X150844285Y-152600819D02*
X151082381Y-151600819D01*
X151987142Y-152600819D02*
X151415714Y-152600819D01*
X151701428Y-152600819D02*
X151701428Y-151600819D01*
X151701428Y-151600819D02*
X151606190Y-151743676D01*
X151606190Y-151743676D02*
X151510952Y-151838914D01*
X151510952Y-151838914D02*
X151415714Y-151886533D01*
X152368095Y-151696057D02*
X152415714Y-151648438D01*
X152415714Y-151648438D02*
X152510952Y-151600819D01*
X152510952Y-151600819D02*
X152749047Y-151600819D01*
X152749047Y-151600819D02*
X152844285Y-151648438D01*
X152844285Y-151648438D02*
X152891904Y-151696057D01*
X152891904Y-151696057D02*
X152939523Y-151791295D01*
X152939523Y-151791295D02*
X152939523Y-151886533D01*
X152939523Y-151886533D02*
X152891904Y-152029390D01*
X152891904Y-152029390D02*
X152320476Y-152600819D01*
X152320476Y-152600819D02*
X152939523Y-152600819D01*
D13*
X71707666Y-110006985D02*
X71707666Y-110726652D01*
X71707666Y-110726652D02*
X71750000Y-110811318D01*
X71750000Y-110811318D02*
X71792333Y-110853652D01*
X71792333Y-110853652D02*
X71877000Y-110895985D01*
X71877000Y-110895985D02*
X72046333Y-110895985D01*
X72046333Y-110895985D02*
X72131000Y-110853652D01*
X72131000Y-110853652D02*
X72173333Y-110811318D01*
X72173333Y-110811318D02*
X72215666Y-110726652D01*
X72215666Y-110726652D02*
X72215666Y-110006985D01*
X73104666Y-110895985D02*
X72596666Y-110895985D01*
X72850666Y-110895985D02*
X72850666Y-110006985D01*
X72850666Y-110006985D02*
X72765999Y-110133985D01*
X72765999Y-110133985D02*
X72681333Y-110218652D01*
X72681333Y-110218652D02*
X72596666Y-110260985D01*
D10*
X70861191Y-107904819D02*
X71527857Y-108904819D01*
X71527857Y-107904819D02*
X70861191Y-108904819D01*
X71908810Y-108904819D02*
X71908810Y-107904819D01*
X72337381Y-108619104D02*
X72813571Y-108619104D01*
X72242143Y-108904819D02*
X72575476Y-107904819D01*
X72575476Y-107904819D02*
X72908809Y-108904819D01*
X73432619Y-107904819D02*
X73623095Y-107904819D01*
X73623095Y-107904819D02*
X73718333Y-107952438D01*
X73718333Y-107952438D02*
X73813571Y-108047676D01*
X73813571Y-108047676D02*
X73861190Y-108238152D01*
X73861190Y-108238152D02*
X73861190Y-108571485D01*
X73861190Y-108571485D02*
X73813571Y-108761961D01*
X73813571Y-108761961D02*
X73718333Y-108857200D01*
X73718333Y-108857200D02*
X73623095Y-108904819D01*
X73623095Y-108904819D02*
X73432619Y-108904819D01*
X73432619Y-108904819D02*
X73337381Y-108857200D01*
X73337381Y-108857200D02*
X73242143Y-108761961D01*
X73242143Y-108761961D02*
X73194524Y-108571485D01*
X73194524Y-108571485D02*
X73194524Y-108238152D01*
X73194524Y-108238152D02*
X73242143Y-108047676D01*
X73242143Y-108047676D02*
X73337381Y-107952438D01*
X73337381Y-107952438D02*
X73432619Y-107904819D01*
X67623095Y-106857200D02*
X67765952Y-106904819D01*
X67765952Y-106904819D02*
X68004047Y-106904819D01*
X68004047Y-106904819D02*
X68099285Y-106857200D01*
X68099285Y-106857200D02*
X68146904Y-106809580D01*
X68146904Y-106809580D02*
X68194523Y-106714342D01*
X68194523Y-106714342D02*
X68194523Y-106619104D01*
X68194523Y-106619104D02*
X68146904Y-106523866D01*
X68146904Y-106523866D02*
X68099285Y-106476247D01*
X68099285Y-106476247D02*
X68004047Y-106428628D01*
X68004047Y-106428628D02*
X67813571Y-106381009D01*
X67813571Y-106381009D02*
X67718333Y-106333390D01*
X67718333Y-106333390D02*
X67670714Y-106285771D01*
X67670714Y-106285771D02*
X67623095Y-106190533D01*
X67623095Y-106190533D02*
X67623095Y-106095295D01*
X67623095Y-106095295D02*
X67670714Y-106000057D01*
X67670714Y-106000057D02*
X67718333Y-105952438D01*
X67718333Y-105952438D02*
X67813571Y-105904819D01*
X67813571Y-105904819D02*
X68051666Y-105904819D01*
X68051666Y-105904819D02*
X68194523Y-105952438D01*
X69004047Y-106857200D02*
X68908809Y-106904819D01*
X68908809Y-106904819D02*
X68718333Y-106904819D01*
X68718333Y-106904819D02*
X68623095Y-106857200D01*
X68623095Y-106857200D02*
X68575476Y-106761961D01*
X68575476Y-106761961D02*
X68575476Y-106381009D01*
X68575476Y-106381009D02*
X68623095Y-106285771D01*
X68623095Y-106285771D02*
X68718333Y-106238152D01*
X68718333Y-106238152D02*
X68908809Y-106238152D01*
X68908809Y-106238152D02*
X69004047Y-106285771D01*
X69004047Y-106285771D02*
X69051666Y-106381009D01*
X69051666Y-106381009D02*
X69051666Y-106476247D01*
X69051666Y-106476247D02*
X68575476Y-106571485D01*
X69861190Y-106857200D02*
X69765952Y-106904819D01*
X69765952Y-106904819D02*
X69575476Y-106904819D01*
X69575476Y-106904819D02*
X69480238Y-106857200D01*
X69480238Y-106857200D02*
X69432619Y-106761961D01*
X69432619Y-106761961D02*
X69432619Y-106381009D01*
X69432619Y-106381009D02*
X69480238Y-106285771D01*
X69480238Y-106285771D02*
X69575476Y-106238152D01*
X69575476Y-106238152D02*
X69765952Y-106238152D01*
X69765952Y-106238152D02*
X69861190Y-106285771D01*
X69861190Y-106285771D02*
X69908809Y-106381009D01*
X69908809Y-106381009D02*
X69908809Y-106476247D01*
X69908809Y-106476247D02*
X69432619Y-106571485D01*
X70718333Y-106857200D02*
X70623095Y-106904819D01*
X70623095Y-106904819D02*
X70432619Y-106904819D01*
X70432619Y-106904819D02*
X70337381Y-106857200D01*
X70337381Y-106857200D02*
X70289762Y-106761961D01*
X70289762Y-106761961D02*
X70289762Y-106381009D01*
X70289762Y-106381009D02*
X70337381Y-106285771D01*
X70337381Y-106285771D02*
X70432619Y-106238152D01*
X70432619Y-106238152D02*
X70623095Y-106238152D01*
X70623095Y-106238152D02*
X70718333Y-106285771D01*
X70718333Y-106285771D02*
X70765952Y-106381009D01*
X70765952Y-106381009D02*
X70765952Y-106476247D01*
X70765952Y-106476247D02*
X70289762Y-106571485D01*
X71623095Y-106904819D02*
X71623095Y-105904819D01*
X71623095Y-106857200D02*
X71527857Y-106904819D01*
X71527857Y-106904819D02*
X71337381Y-106904819D01*
X71337381Y-106904819D02*
X71242143Y-106857200D01*
X71242143Y-106857200D02*
X71194524Y-106809580D01*
X71194524Y-106809580D02*
X71146905Y-106714342D01*
X71146905Y-106714342D02*
X71146905Y-106428628D01*
X71146905Y-106428628D02*
X71194524Y-106333390D01*
X71194524Y-106333390D02*
X71242143Y-106285771D01*
X71242143Y-106285771D02*
X71337381Y-106238152D01*
X71337381Y-106238152D02*
X71527857Y-106238152D01*
X71527857Y-106238152D02*
X71623095Y-106285771D01*
X72813572Y-106857200D02*
X72956429Y-106904819D01*
X72956429Y-106904819D02*
X73194524Y-106904819D01*
X73194524Y-106904819D02*
X73289762Y-106857200D01*
X73289762Y-106857200D02*
X73337381Y-106809580D01*
X73337381Y-106809580D02*
X73385000Y-106714342D01*
X73385000Y-106714342D02*
X73385000Y-106619104D01*
X73385000Y-106619104D02*
X73337381Y-106523866D01*
X73337381Y-106523866D02*
X73289762Y-106476247D01*
X73289762Y-106476247D02*
X73194524Y-106428628D01*
X73194524Y-106428628D02*
X73004048Y-106381009D01*
X73004048Y-106381009D02*
X72908810Y-106333390D01*
X72908810Y-106333390D02*
X72861191Y-106285771D01*
X72861191Y-106285771D02*
X72813572Y-106190533D01*
X72813572Y-106190533D02*
X72813572Y-106095295D01*
X72813572Y-106095295D02*
X72861191Y-106000057D01*
X72861191Y-106000057D02*
X72908810Y-105952438D01*
X72908810Y-105952438D02*
X73004048Y-105904819D01*
X73004048Y-105904819D02*
X73242143Y-105904819D01*
X73242143Y-105904819D02*
X73385000Y-105952438D01*
X73670715Y-106238152D02*
X74051667Y-106238152D01*
X73813572Y-105904819D02*
X73813572Y-106761961D01*
X73813572Y-106761961D02*
X73861191Y-106857200D01*
X73861191Y-106857200D02*
X73956429Y-106904819D01*
X73956429Y-106904819D02*
X74051667Y-106904819D01*
X74813572Y-106238152D02*
X74813572Y-106904819D01*
X74385001Y-106238152D02*
X74385001Y-106761961D01*
X74385001Y-106761961D02*
X74432620Y-106857200D01*
X74432620Y-106857200D02*
X74527858Y-106904819D01*
X74527858Y-106904819D02*
X74670715Y-106904819D01*
X74670715Y-106904819D02*
X74765953Y-106857200D01*
X74765953Y-106857200D02*
X74813572Y-106809580D01*
X75718334Y-106904819D02*
X75718334Y-105904819D01*
X75718334Y-106857200D02*
X75623096Y-106904819D01*
X75623096Y-106904819D02*
X75432620Y-106904819D01*
X75432620Y-106904819D02*
X75337382Y-106857200D01*
X75337382Y-106857200D02*
X75289763Y-106809580D01*
X75289763Y-106809580D02*
X75242144Y-106714342D01*
X75242144Y-106714342D02*
X75242144Y-106428628D01*
X75242144Y-106428628D02*
X75289763Y-106333390D01*
X75289763Y-106333390D02*
X75337382Y-106285771D01*
X75337382Y-106285771D02*
X75432620Y-106238152D01*
X75432620Y-106238152D02*
X75623096Y-106238152D01*
X75623096Y-106238152D02*
X75718334Y-106285771D01*
X76194525Y-106904819D02*
X76194525Y-106238152D01*
X76194525Y-105904819D02*
X76146906Y-105952438D01*
X76146906Y-105952438D02*
X76194525Y-106000057D01*
X76194525Y-106000057D02*
X76242144Y-105952438D01*
X76242144Y-105952438D02*
X76194525Y-105904819D01*
X76194525Y-105904819D02*
X76194525Y-106000057D01*
X76813572Y-106904819D02*
X76718334Y-106857200D01*
X76718334Y-106857200D02*
X76670715Y-106809580D01*
X76670715Y-106809580D02*
X76623096Y-106714342D01*
X76623096Y-106714342D02*
X76623096Y-106428628D01*
X76623096Y-106428628D02*
X76670715Y-106333390D01*
X76670715Y-106333390D02*
X76718334Y-106285771D01*
X76718334Y-106285771D02*
X76813572Y-106238152D01*
X76813572Y-106238152D02*
X76956429Y-106238152D01*
X76956429Y-106238152D02*
X77051667Y-106285771D01*
X77051667Y-106285771D02*
X77099286Y-106333390D01*
X77099286Y-106333390D02*
X77146905Y-106428628D01*
X77146905Y-106428628D02*
X77146905Y-106714342D01*
X77146905Y-106714342D02*
X77099286Y-106809580D01*
X77099286Y-106809580D02*
X77051667Y-106857200D01*
X77051667Y-106857200D02*
X76956429Y-106904819D01*
X76956429Y-106904819D02*
X76813572Y-106904819D01*
D12*
X77667398Y-131944218D02*
X77667398Y-130944218D01*
X77667398Y-130944218D02*
X77905493Y-130944218D01*
X77905493Y-130944218D02*
X78048350Y-130991837D01*
X78048350Y-130991837D02*
X78143588Y-131087075D01*
X78143588Y-131087075D02*
X78191207Y-131182313D01*
X78191207Y-131182313D02*
X78238826Y-131372789D01*
X78238826Y-131372789D02*
X78238826Y-131515646D01*
X78238826Y-131515646D02*
X78191207Y-131706122D01*
X78191207Y-131706122D02*
X78143588Y-131801360D01*
X78143588Y-131801360D02*
X78048350Y-131896599D01*
X78048350Y-131896599D02*
X77905493Y-131944218D01*
X77905493Y-131944218D02*
X77667398Y-131944218D01*
X78619779Y-131039456D02*
X78667398Y-130991837D01*
X78667398Y-130991837D02*
X78762636Y-130944218D01*
X78762636Y-130944218D02*
X79000731Y-130944218D01*
X79000731Y-130944218D02*
X79095969Y-130991837D01*
X79095969Y-130991837D02*
X79143588Y-131039456D01*
X79143588Y-131039456D02*
X79191207Y-131134694D01*
X79191207Y-131134694D02*
X79191207Y-131229932D01*
X79191207Y-131229932D02*
X79143588Y-131372789D01*
X79143588Y-131372789D02*
X78572160Y-131944218D01*
X78572160Y-131944218D02*
X79191207Y-131944218D01*
X79667398Y-131944218D02*
X79857874Y-131944218D01*
X79857874Y-131944218D02*
X79953112Y-131896599D01*
X79953112Y-131896599D02*
X80000731Y-131848979D01*
X80000731Y-131848979D02*
X80095969Y-131706122D01*
X80095969Y-131706122D02*
X80143588Y-131515646D01*
X80143588Y-131515646D02*
X80143588Y-131134694D01*
X80143588Y-131134694D02*
X80095969Y-131039456D01*
X80095969Y-131039456D02*
X80048350Y-130991837D01*
X80048350Y-130991837D02*
X79953112Y-130944218D01*
X79953112Y-130944218D02*
X79762636Y-130944218D01*
X79762636Y-130944218D02*
X79667398Y-130991837D01*
X79667398Y-130991837D02*
X79619779Y-131039456D01*
X79619779Y-131039456D02*
X79572160Y-131134694D01*
X79572160Y-131134694D02*
X79572160Y-131372789D01*
X79572160Y-131372789D02*
X79619779Y-131468027D01*
X79619779Y-131468027D02*
X79667398Y-131515646D01*
X79667398Y-131515646D02*
X79762636Y-131563265D01*
X79762636Y-131563265D02*
X79953112Y-131563265D01*
X79953112Y-131563265D02*
X80048350Y-131515646D01*
X80048350Y-131515646D02*
X80095969Y-131468027D01*
X80095969Y-131468027D02*
X80143588Y-131372789D01*
D10*
X168370476Y-133503200D02*
X168513333Y-133550819D01*
X168513333Y-133550819D02*
X168751428Y-133550819D01*
X168751428Y-133550819D02*
X168846666Y-133503200D01*
X168846666Y-133503200D02*
X168894285Y-133455580D01*
X168894285Y-133455580D02*
X168941904Y-133360342D01*
X168941904Y-133360342D02*
X168941904Y-133265104D01*
X168941904Y-133265104D02*
X168894285Y-133169866D01*
X168894285Y-133169866D02*
X168846666Y-133122247D01*
X168846666Y-133122247D02*
X168751428Y-133074628D01*
X168751428Y-133074628D02*
X168560952Y-133027009D01*
X168560952Y-133027009D02*
X168465714Y-132979390D01*
X168465714Y-132979390D02*
X168418095Y-132931771D01*
X168418095Y-132931771D02*
X168370476Y-132836533D01*
X168370476Y-132836533D02*
X168370476Y-132741295D01*
X168370476Y-132741295D02*
X168418095Y-132646057D01*
X168418095Y-132646057D02*
X168465714Y-132598438D01*
X168465714Y-132598438D02*
X168560952Y-132550819D01*
X168560952Y-132550819D02*
X168799047Y-132550819D01*
X168799047Y-132550819D02*
X168941904Y-132598438D01*
X169275238Y-132550819D02*
X169513333Y-133550819D01*
X169513333Y-133550819D02*
X169703809Y-132836533D01*
X169703809Y-132836533D02*
X169894285Y-133550819D01*
X169894285Y-133550819D02*
X170132381Y-132550819D01*
X171037142Y-133550819D02*
X170465714Y-133550819D01*
X170751428Y-133550819D02*
X170751428Y-132550819D01*
X170751428Y-132550819D02*
X170656190Y-132693676D01*
X170656190Y-132693676D02*
X170560952Y-132788914D01*
X170560952Y-132788914D02*
X170465714Y-132836533D01*
X171941904Y-132550819D02*
X171465714Y-132550819D01*
X171465714Y-132550819D02*
X171418095Y-133027009D01*
X171418095Y-133027009D02*
X171465714Y-132979390D01*
X171465714Y-132979390D02*
X171560952Y-132931771D01*
X171560952Y-132931771D02*
X171799047Y-132931771D01*
X171799047Y-132931771D02*
X171894285Y-132979390D01*
X171894285Y-132979390D02*
X171941904Y-133027009D01*
X171941904Y-133027009D02*
X171989523Y-133122247D01*
X171989523Y-133122247D02*
X171989523Y-133360342D01*
X171989523Y-133360342D02*
X171941904Y-133455580D01*
X171941904Y-133455580D02*
X171894285Y-133503200D01*
X171894285Y-133503200D02*
X171799047Y-133550819D01*
X171799047Y-133550819D02*
X171560952Y-133550819D01*
X171560952Y-133550819D02*
X171465714Y-133503200D01*
X171465714Y-133503200D02*
X171418095Y-133455580D01*
X168370476Y-152553200D02*
X168513333Y-152600819D01*
X168513333Y-152600819D02*
X168751428Y-152600819D01*
X168751428Y-152600819D02*
X168846666Y-152553200D01*
X168846666Y-152553200D02*
X168894285Y-152505580D01*
X168894285Y-152505580D02*
X168941904Y-152410342D01*
X168941904Y-152410342D02*
X168941904Y-152315104D01*
X168941904Y-152315104D02*
X168894285Y-152219866D01*
X168894285Y-152219866D02*
X168846666Y-152172247D01*
X168846666Y-152172247D02*
X168751428Y-152124628D01*
X168751428Y-152124628D02*
X168560952Y-152077009D01*
X168560952Y-152077009D02*
X168465714Y-152029390D01*
X168465714Y-152029390D02*
X168418095Y-151981771D01*
X168418095Y-151981771D02*
X168370476Y-151886533D01*
X168370476Y-151886533D02*
X168370476Y-151791295D01*
X168370476Y-151791295D02*
X168418095Y-151696057D01*
X168418095Y-151696057D02*
X168465714Y-151648438D01*
X168465714Y-151648438D02*
X168560952Y-151600819D01*
X168560952Y-151600819D02*
X168799047Y-151600819D01*
X168799047Y-151600819D02*
X168941904Y-151648438D01*
X169275238Y-151600819D02*
X169513333Y-152600819D01*
X169513333Y-152600819D02*
X169703809Y-151886533D01*
X169703809Y-151886533D02*
X169894285Y-152600819D01*
X169894285Y-152600819D02*
X170132381Y-151600819D01*
X171037142Y-152600819D02*
X170465714Y-152600819D01*
X170751428Y-152600819D02*
X170751428Y-151600819D01*
X170751428Y-151600819D02*
X170656190Y-151743676D01*
X170656190Y-151743676D02*
X170560952Y-151838914D01*
X170560952Y-151838914D02*
X170465714Y-151886533D01*
X171894285Y-151600819D02*
X171703809Y-151600819D01*
X171703809Y-151600819D02*
X171608571Y-151648438D01*
X171608571Y-151648438D02*
X171560952Y-151696057D01*
X171560952Y-151696057D02*
X171465714Y-151838914D01*
X171465714Y-151838914D02*
X171418095Y-152029390D01*
X171418095Y-152029390D02*
X171418095Y-152410342D01*
X171418095Y-152410342D02*
X171465714Y-152505580D01*
X171465714Y-152505580D02*
X171513333Y-152553200D01*
X171513333Y-152553200D02*
X171608571Y-152600819D01*
X171608571Y-152600819D02*
X171799047Y-152600819D01*
X171799047Y-152600819D02*
X171894285Y-152553200D01*
X171894285Y-152553200D02*
X171941904Y-152505580D01*
X171941904Y-152505580D02*
X171989523Y-152410342D01*
X171989523Y-152410342D02*
X171989523Y-152172247D01*
X171989523Y-152172247D02*
X171941904Y-152077009D01*
X171941904Y-152077009D02*
X171894285Y-152029390D01*
X171894285Y-152029390D02*
X171799047Y-151981771D01*
X171799047Y-151981771D02*
X171608571Y-151981771D01*
X171608571Y-151981771D02*
X171513333Y-152029390D01*
X171513333Y-152029390D02*
X171465714Y-152077009D01*
X171465714Y-152077009D02*
X171418095Y-152172247D01*
D12*
X77667398Y-124070218D02*
X77667398Y-123070218D01*
X77667398Y-123070218D02*
X77905493Y-123070218D01*
X77905493Y-123070218D02*
X78048350Y-123117837D01*
X78048350Y-123117837D02*
X78143588Y-123213075D01*
X78143588Y-123213075D02*
X78191207Y-123308313D01*
X78191207Y-123308313D02*
X78238826Y-123498789D01*
X78238826Y-123498789D02*
X78238826Y-123641646D01*
X78238826Y-123641646D02*
X78191207Y-123832122D01*
X78191207Y-123832122D02*
X78143588Y-123927360D01*
X78143588Y-123927360D02*
X78048350Y-124022599D01*
X78048350Y-124022599D02*
X77905493Y-124070218D01*
X77905493Y-124070218D02*
X77667398Y-124070218D01*
X78572160Y-123070218D02*
X79191207Y-123070218D01*
X79191207Y-123070218D02*
X78857874Y-123451170D01*
X78857874Y-123451170D02*
X79000731Y-123451170D01*
X79000731Y-123451170D02*
X79095969Y-123498789D01*
X79095969Y-123498789D02*
X79143588Y-123546408D01*
X79143588Y-123546408D02*
X79191207Y-123641646D01*
X79191207Y-123641646D02*
X79191207Y-123879741D01*
X79191207Y-123879741D02*
X79143588Y-123974979D01*
X79143588Y-123974979D02*
X79095969Y-124022599D01*
X79095969Y-124022599D02*
X79000731Y-124070218D01*
X79000731Y-124070218D02*
X78715017Y-124070218D01*
X78715017Y-124070218D02*
X78619779Y-124022599D01*
X78619779Y-124022599D02*
X78572160Y-123974979D01*
X79810255Y-123070218D02*
X79905493Y-123070218D01*
X79905493Y-123070218D02*
X80000731Y-123117837D01*
X80000731Y-123117837D02*
X80048350Y-123165456D01*
X80048350Y-123165456D02*
X80095969Y-123260694D01*
X80095969Y-123260694D02*
X80143588Y-123451170D01*
X80143588Y-123451170D02*
X80143588Y-123689265D01*
X80143588Y-123689265D02*
X80095969Y-123879741D01*
X80095969Y-123879741D02*
X80048350Y-123974979D01*
X80048350Y-123974979D02*
X80000731Y-124022599D01*
X80000731Y-124022599D02*
X79905493Y-124070218D01*
X79905493Y-124070218D02*
X79810255Y-124070218D01*
X79810255Y-124070218D02*
X79715017Y-124022599D01*
X79715017Y-124022599D02*
X79667398Y-123974979D01*
X79667398Y-123974979D02*
X79619779Y-123879741D01*
X79619779Y-123879741D02*
X79572160Y-123689265D01*
X79572160Y-123689265D02*
X79572160Y-123451170D01*
X79572160Y-123451170D02*
X79619779Y-123260694D01*
X79619779Y-123260694D02*
X79667398Y-123165456D01*
X79667398Y-123165456D02*
X79715017Y-123117837D01*
X79715017Y-123117837D02*
X79810255Y-123070218D01*
D10*
X94488095Y-110154819D02*
X94488095Y-110964342D01*
X94488095Y-110964342D02*
X94535714Y-111059580D01*
X94535714Y-111059580D02*
X94583333Y-111107200D01*
X94583333Y-111107200D02*
X94678571Y-111154819D01*
X94678571Y-111154819D02*
X94869047Y-111154819D01*
X94869047Y-111154819D02*
X94964285Y-111107200D01*
X94964285Y-111107200D02*
X95011904Y-111059580D01*
X95011904Y-111059580D02*
X95059523Y-110964342D01*
X95059523Y-110964342D02*
X95059523Y-110154819D01*
X95440476Y-110154819D02*
X96059523Y-110154819D01*
X96059523Y-110154819D02*
X95726190Y-110535771D01*
X95726190Y-110535771D02*
X95869047Y-110535771D01*
X95869047Y-110535771D02*
X95964285Y-110583390D01*
X95964285Y-110583390D02*
X96011904Y-110631009D01*
X96011904Y-110631009D02*
X96059523Y-110726247D01*
X96059523Y-110726247D02*
X96059523Y-110964342D01*
X96059523Y-110964342D02*
X96011904Y-111059580D01*
X96011904Y-111059580D02*
X95964285Y-111107200D01*
X95964285Y-111107200D02*
X95869047Y-111154819D01*
X95869047Y-111154819D02*
X95583333Y-111154819D01*
X95583333Y-111154819D02*
X95488095Y-111107200D01*
X95488095Y-111107200D02*
X95440476Y-111059580D01*
X97719819Y-164138333D02*
X98434104Y-164138333D01*
X98434104Y-164138333D02*
X98576961Y-164185952D01*
X98576961Y-164185952D02*
X98672200Y-164281190D01*
X98672200Y-164281190D02*
X98719819Y-164424047D01*
X98719819Y-164424047D02*
X98719819Y-164519285D01*
X98719819Y-163138333D02*
X98719819Y-163709761D01*
X98719819Y-163424047D02*
X97719819Y-163424047D01*
X97719819Y-163424047D02*
X97862676Y-163519285D01*
X97862676Y-163519285D02*
X97957914Y-163614523D01*
X97957914Y-163614523D02*
X98005533Y-163709761D01*
X65254164Y-165984999D02*
X66004164Y-165734999D01*
X66004164Y-165734999D02*
X65254164Y-165484999D01*
X65932735Y-164806428D02*
X65968450Y-164842142D01*
X65968450Y-164842142D02*
X66004164Y-164949285D01*
X66004164Y-164949285D02*
X66004164Y-165020713D01*
X66004164Y-165020713D02*
X65968450Y-165127856D01*
X65968450Y-165127856D02*
X65897021Y-165199285D01*
X65897021Y-165199285D02*
X65825592Y-165234999D01*
X65825592Y-165234999D02*
X65682735Y-165270713D01*
X65682735Y-165270713D02*
X65575592Y-165270713D01*
X65575592Y-165270713D02*
X65432735Y-165234999D01*
X65432735Y-165234999D02*
X65361307Y-165199285D01*
X65361307Y-165199285D02*
X65289878Y-165127856D01*
X65289878Y-165127856D02*
X65254164Y-165020713D01*
X65254164Y-165020713D02*
X65254164Y-164949285D01*
X65254164Y-164949285D02*
X65289878Y-164842142D01*
X65289878Y-164842142D02*
X65325592Y-164806428D01*
X65932735Y-164056428D02*
X65968450Y-164092142D01*
X65968450Y-164092142D02*
X66004164Y-164199285D01*
X66004164Y-164199285D02*
X66004164Y-164270713D01*
X66004164Y-164270713D02*
X65968450Y-164377856D01*
X65968450Y-164377856D02*
X65897021Y-164449285D01*
X65897021Y-164449285D02*
X65825592Y-164484999D01*
X65825592Y-164484999D02*
X65682735Y-164520713D01*
X65682735Y-164520713D02*
X65575592Y-164520713D01*
X65575592Y-164520713D02*
X65432735Y-164484999D01*
X65432735Y-164484999D02*
X65361307Y-164449285D01*
X65361307Y-164449285D02*
X65289878Y-164377856D01*
X65289878Y-164377856D02*
X65254164Y-164270713D01*
X65254164Y-164270713D02*
X65254164Y-164199285D01*
X65254164Y-164199285D02*
X65289878Y-164092142D01*
X65289878Y-164092142D02*
X65325592Y-164056428D01*
X77236428Y-163169819D02*
X77426904Y-163169819D01*
X77426904Y-163169819D02*
X77522142Y-163217438D01*
X77522142Y-163217438D02*
X77617380Y-163312676D01*
X77617380Y-163312676D02*
X77664999Y-163503152D01*
X77664999Y-163503152D02*
X77664999Y-163836485D01*
X77664999Y-163836485D02*
X77617380Y-164026961D01*
X77617380Y-164026961D02*
X77522142Y-164122200D01*
X77522142Y-164122200D02*
X77426904Y-164169819D01*
X77426904Y-164169819D02*
X77236428Y-164169819D01*
X77236428Y-164169819D02*
X77141190Y-164122200D01*
X77141190Y-164122200D02*
X77045952Y-164026961D01*
X77045952Y-164026961D02*
X76998333Y-163836485D01*
X76998333Y-163836485D02*
X76998333Y-163503152D01*
X76998333Y-163503152D02*
X77045952Y-163312676D01*
X77045952Y-163312676D02*
X77141190Y-163217438D01*
X77141190Y-163217438D02*
X77236428Y-163169819D01*
X78569761Y-164169819D02*
X78093571Y-164169819D01*
X78093571Y-164169819D02*
X78093571Y-163169819D01*
X78903095Y-163646009D02*
X79236428Y-163646009D01*
X79379285Y-164169819D02*
X78903095Y-164169819D01*
X78903095Y-164169819D02*
X78903095Y-163169819D01*
X78903095Y-163169819D02*
X79379285Y-163169819D01*
X79807857Y-164169819D02*
X79807857Y-163169819D01*
X79807857Y-163169819D02*
X80045952Y-163169819D01*
X80045952Y-163169819D02*
X80188809Y-163217438D01*
X80188809Y-163217438D02*
X80284047Y-163312676D01*
X80284047Y-163312676D02*
X80331666Y-163407914D01*
X80331666Y-163407914D02*
X80379285Y-163598390D01*
X80379285Y-163598390D02*
X80379285Y-163741247D01*
X80379285Y-163741247D02*
X80331666Y-163931723D01*
X80331666Y-163931723D02*
X80284047Y-164026961D01*
X80284047Y-164026961D02*
X80188809Y-164122200D01*
X80188809Y-164122200D02*
X80045952Y-164169819D01*
X80045952Y-164169819D02*
X79807857Y-164169819D01*
X81569762Y-164169819D02*
X81569762Y-163169819D01*
X81569762Y-163169819D02*
X81950714Y-163169819D01*
X81950714Y-163169819D02*
X82045952Y-163217438D01*
X82045952Y-163217438D02*
X82093571Y-163265057D01*
X82093571Y-163265057D02*
X82141190Y-163360295D01*
X82141190Y-163360295D02*
X82141190Y-163503152D01*
X82141190Y-163503152D02*
X82093571Y-163598390D01*
X82093571Y-163598390D02*
X82045952Y-163646009D01*
X82045952Y-163646009D02*
X81950714Y-163693628D01*
X81950714Y-163693628D02*
X81569762Y-163693628D01*
X82998333Y-164169819D02*
X82998333Y-163646009D01*
X82998333Y-163646009D02*
X82950714Y-163550771D01*
X82950714Y-163550771D02*
X82855476Y-163503152D01*
X82855476Y-163503152D02*
X82665000Y-163503152D01*
X82665000Y-163503152D02*
X82569762Y-163550771D01*
X82998333Y-164122200D02*
X82903095Y-164169819D01*
X82903095Y-164169819D02*
X82665000Y-164169819D01*
X82665000Y-164169819D02*
X82569762Y-164122200D01*
X82569762Y-164122200D02*
X82522143Y-164026961D01*
X82522143Y-164026961D02*
X82522143Y-163931723D01*
X82522143Y-163931723D02*
X82569762Y-163836485D01*
X82569762Y-163836485D02*
X82665000Y-163788866D01*
X82665000Y-163788866D02*
X82903095Y-163788866D01*
X82903095Y-163788866D02*
X82998333Y-163741247D01*
X83474524Y-163503152D02*
X83474524Y-164169819D01*
X83474524Y-163598390D02*
X83522143Y-163550771D01*
X83522143Y-163550771D02*
X83617381Y-163503152D01*
X83617381Y-163503152D02*
X83760238Y-163503152D01*
X83760238Y-163503152D02*
X83855476Y-163550771D01*
X83855476Y-163550771D02*
X83903095Y-163646009D01*
X83903095Y-163646009D02*
X83903095Y-164169819D01*
X84760238Y-164122200D02*
X84665000Y-164169819D01*
X84665000Y-164169819D02*
X84474524Y-164169819D01*
X84474524Y-164169819D02*
X84379286Y-164122200D01*
X84379286Y-164122200D02*
X84331667Y-164026961D01*
X84331667Y-164026961D02*
X84331667Y-163646009D01*
X84331667Y-163646009D02*
X84379286Y-163550771D01*
X84379286Y-163550771D02*
X84474524Y-163503152D01*
X84474524Y-163503152D02*
X84665000Y-163503152D01*
X84665000Y-163503152D02*
X84760238Y-163550771D01*
X84760238Y-163550771D02*
X84807857Y-163646009D01*
X84807857Y-163646009D02*
X84807857Y-163741247D01*
X84807857Y-163741247D02*
X84331667Y-163836485D01*
X85379286Y-164169819D02*
X85284048Y-164122200D01*
X85284048Y-164122200D02*
X85236429Y-164026961D01*
X85236429Y-164026961D02*
X85236429Y-163169819D01*
X65968450Y-163337856D02*
X66004164Y-163230714D01*
X66004164Y-163230714D02*
X66004164Y-163052142D01*
X66004164Y-163052142D02*
X65968450Y-162980714D01*
X65968450Y-162980714D02*
X65932735Y-162944999D01*
X65932735Y-162944999D02*
X65861307Y-162909285D01*
X65861307Y-162909285D02*
X65789878Y-162909285D01*
X65789878Y-162909285D02*
X65718450Y-162944999D01*
X65718450Y-162944999D02*
X65682735Y-162980714D01*
X65682735Y-162980714D02*
X65647021Y-163052142D01*
X65647021Y-163052142D02*
X65611307Y-163194999D01*
X65611307Y-163194999D02*
X65575592Y-163266428D01*
X65575592Y-163266428D02*
X65539878Y-163302142D01*
X65539878Y-163302142D02*
X65468450Y-163337856D01*
X65468450Y-163337856D02*
X65397021Y-163337856D01*
X65397021Y-163337856D02*
X65325592Y-163302142D01*
X65325592Y-163302142D02*
X65289878Y-163266428D01*
X65289878Y-163266428D02*
X65254164Y-163194999D01*
X65254164Y-163194999D02*
X65254164Y-163016428D01*
X65254164Y-163016428D02*
X65289878Y-162909285D01*
X65932735Y-162159285D02*
X65968450Y-162194999D01*
X65968450Y-162194999D02*
X66004164Y-162302142D01*
X66004164Y-162302142D02*
X66004164Y-162373570D01*
X66004164Y-162373570D02*
X65968450Y-162480713D01*
X65968450Y-162480713D02*
X65897021Y-162552142D01*
X65897021Y-162552142D02*
X65825592Y-162587856D01*
X65825592Y-162587856D02*
X65682735Y-162623570D01*
X65682735Y-162623570D02*
X65575592Y-162623570D01*
X65575592Y-162623570D02*
X65432735Y-162587856D01*
X65432735Y-162587856D02*
X65361307Y-162552142D01*
X65361307Y-162552142D02*
X65289878Y-162480713D01*
X65289878Y-162480713D02*
X65254164Y-162373570D01*
X65254164Y-162373570D02*
X65254164Y-162302142D01*
X65254164Y-162302142D02*
X65289878Y-162194999D01*
X65289878Y-162194999D02*
X65325592Y-162159285D01*
X66004164Y-161480713D02*
X66004164Y-161837856D01*
X66004164Y-161837856D02*
X65254164Y-161837856D01*
X65289878Y-168096428D02*
X65254164Y-168167857D01*
X65254164Y-168167857D02*
X65254164Y-168274999D01*
X65254164Y-168274999D02*
X65289878Y-168382142D01*
X65289878Y-168382142D02*
X65361307Y-168453571D01*
X65361307Y-168453571D02*
X65432735Y-168489285D01*
X65432735Y-168489285D02*
X65575592Y-168524999D01*
X65575592Y-168524999D02*
X65682735Y-168524999D01*
X65682735Y-168524999D02*
X65825592Y-168489285D01*
X65825592Y-168489285D02*
X65897021Y-168453571D01*
X65897021Y-168453571D02*
X65968450Y-168382142D01*
X65968450Y-168382142D02*
X66004164Y-168274999D01*
X66004164Y-168274999D02*
X66004164Y-168203571D01*
X66004164Y-168203571D02*
X65968450Y-168096428D01*
X65968450Y-168096428D02*
X65932735Y-168060714D01*
X65932735Y-168060714D02*
X65682735Y-168060714D01*
X65682735Y-168060714D02*
X65682735Y-168203571D01*
X66004164Y-167739285D02*
X65254164Y-167739285D01*
X65254164Y-167739285D02*
X66004164Y-167310714D01*
X66004164Y-167310714D02*
X65254164Y-167310714D01*
X66004164Y-166953571D02*
X65254164Y-166953571D01*
X65254164Y-166953571D02*
X65254164Y-166775000D01*
X65254164Y-166775000D02*
X65289878Y-166667857D01*
X65289878Y-166667857D02*
X65361307Y-166596428D01*
X65361307Y-166596428D02*
X65432735Y-166560714D01*
X65432735Y-166560714D02*
X65575592Y-166525000D01*
X65575592Y-166525000D02*
X65682735Y-166525000D01*
X65682735Y-166525000D02*
X65825592Y-166560714D01*
X65825592Y-166560714D02*
X65897021Y-166596428D01*
X65897021Y-166596428D02*
X65968450Y-166667857D01*
X65968450Y-166667857D02*
X66004164Y-166775000D01*
X66004164Y-166775000D02*
X66004164Y-166953571D01*
X65968450Y-160815713D02*
X66004164Y-160708571D01*
X66004164Y-160708571D02*
X66004164Y-160529999D01*
X66004164Y-160529999D02*
X65968450Y-160458571D01*
X65968450Y-160458571D02*
X65932735Y-160422856D01*
X65932735Y-160422856D02*
X65861307Y-160387142D01*
X65861307Y-160387142D02*
X65789878Y-160387142D01*
X65789878Y-160387142D02*
X65718450Y-160422856D01*
X65718450Y-160422856D02*
X65682735Y-160458571D01*
X65682735Y-160458571D02*
X65647021Y-160529999D01*
X65647021Y-160529999D02*
X65611307Y-160672856D01*
X65611307Y-160672856D02*
X65575592Y-160744285D01*
X65575592Y-160744285D02*
X65539878Y-160779999D01*
X65539878Y-160779999D02*
X65468450Y-160815713D01*
X65468450Y-160815713D02*
X65397021Y-160815713D01*
X65397021Y-160815713D02*
X65325592Y-160779999D01*
X65325592Y-160779999D02*
X65289878Y-160744285D01*
X65289878Y-160744285D02*
X65254164Y-160672856D01*
X65254164Y-160672856D02*
X65254164Y-160494285D01*
X65254164Y-160494285D02*
X65289878Y-160387142D01*
X66004164Y-160065713D02*
X65254164Y-160065713D01*
X65254164Y-160065713D02*
X65254164Y-159887142D01*
X65254164Y-159887142D02*
X65289878Y-159779999D01*
X65289878Y-159779999D02*
X65361307Y-159708570D01*
X65361307Y-159708570D02*
X65432735Y-159672856D01*
X65432735Y-159672856D02*
X65575592Y-159637142D01*
X65575592Y-159637142D02*
X65682735Y-159637142D01*
X65682735Y-159637142D02*
X65825592Y-159672856D01*
X65825592Y-159672856D02*
X65897021Y-159708570D01*
X65897021Y-159708570D02*
X65968450Y-159779999D01*
X65968450Y-159779999D02*
X66004164Y-159887142D01*
X66004164Y-159887142D02*
X66004164Y-160065713D01*
X65789878Y-159351427D02*
X65789878Y-158994285D01*
X66004164Y-159422856D02*
X65254164Y-159172856D01*
X65254164Y-159172856D02*
X66004164Y-158922856D01*
D12*
X77667398Y-139818218D02*
X77667398Y-138818218D01*
X77667398Y-138818218D02*
X77905493Y-138818218D01*
X77905493Y-138818218D02*
X78048350Y-138865837D01*
X78048350Y-138865837D02*
X78143588Y-138961075D01*
X78143588Y-138961075D02*
X78191207Y-139056313D01*
X78191207Y-139056313D02*
X78238826Y-139246789D01*
X78238826Y-139246789D02*
X78238826Y-139389646D01*
X78238826Y-139389646D02*
X78191207Y-139580122D01*
X78191207Y-139580122D02*
X78143588Y-139675360D01*
X78143588Y-139675360D02*
X78048350Y-139770599D01*
X78048350Y-139770599D02*
X77905493Y-139818218D01*
X77905493Y-139818218D02*
X77667398Y-139818218D01*
X78619779Y-138913456D02*
X78667398Y-138865837D01*
X78667398Y-138865837D02*
X78762636Y-138818218D01*
X78762636Y-138818218D02*
X79000731Y-138818218D01*
X79000731Y-138818218D02*
X79095969Y-138865837D01*
X79095969Y-138865837D02*
X79143588Y-138913456D01*
X79143588Y-138913456D02*
X79191207Y-139008694D01*
X79191207Y-139008694D02*
X79191207Y-139103932D01*
X79191207Y-139103932D02*
X79143588Y-139246789D01*
X79143588Y-139246789D02*
X78572160Y-139818218D01*
X78572160Y-139818218D02*
X79191207Y-139818218D01*
X79762636Y-139246789D02*
X79667398Y-139199170D01*
X79667398Y-139199170D02*
X79619779Y-139151551D01*
X79619779Y-139151551D02*
X79572160Y-139056313D01*
X79572160Y-139056313D02*
X79572160Y-139008694D01*
X79572160Y-139008694D02*
X79619779Y-138913456D01*
X79619779Y-138913456D02*
X79667398Y-138865837D01*
X79667398Y-138865837D02*
X79762636Y-138818218D01*
X79762636Y-138818218D02*
X79953112Y-138818218D01*
X79953112Y-138818218D02*
X80048350Y-138865837D01*
X80048350Y-138865837D02*
X80095969Y-138913456D01*
X80095969Y-138913456D02*
X80143588Y-139008694D01*
X80143588Y-139008694D02*
X80143588Y-139056313D01*
X80143588Y-139056313D02*
X80095969Y-139151551D01*
X80095969Y-139151551D02*
X80048350Y-139199170D01*
X80048350Y-139199170D02*
X79953112Y-139246789D01*
X79953112Y-139246789D02*
X79762636Y-139246789D01*
X79762636Y-139246789D02*
X79667398Y-139294408D01*
X79667398Y-139294408D02*
X79619779Y-139342027D01*
X79619779Y-139342027D02*
X79572160Y-139437265D01*
X79572160Y-139437265D02*
X79572160Y-139627741D01*
X79572160Y-139627741D02*
X79619779Y-139722979D01*
X79619779Y-139722979D02*
X79667398Y-139770599D01*
X79667398Y-139770599D02*
X79762636Y-139818218D01*
X79762636Y-139818218D02*
X79953112Y-139818218D01*
X79953112Y-139818218D02*
X80048350Y-139770599D01*
X80048350Y-139770599D02*
X80095969Y-139722979D01*
X80095969Y-139722979D02*
X80143588Y-139627741D01*
X80143588Y-139627741D02*
X80143588Y-139437265D01*
X80143588Y-139437265D02*
X80095969Y-139342027D01*
X80095969Y-139342027D02*
X80048350Y-139294408D01*
X80048350Y-139294408D02*
X79953112Y-139246789D01*
D10*
X149320476Y-114453200D02*
X149463333Y-114500819D01*
X149463333Y-114500819D02*
X149701428Y-114500819D01*
X149701428Y-114500819D02*
X149796666Y-114453200D01*
X149796666Y-114453200D02*
X149844285Y-114405580D01*
X149844285Y-114405580D02*
X149891904Y-114310342D01*
X149891904Y-114310342D02*
X149891904Y-114215104D01*
X149891904Y-114215104D02*
X149844285Y-114119866D01*
X149844285Y-114119866D02*
X149796666Y-114072247D01*
X149796666Y-114072247D02*
X149701428Y-114024628D01*
X149701428Y-114024628D02*
X149510952Y-113977009D01*
X149510952Y-113977009D02*
X149415714Y-113929390D01*
X149415714Y-113929390D02*
X149368095Y-113881771D01*
X149368095Y-113881771D02*
X149320476Y-113786533D01*
X149320476Y-113786533D02*
X149320476Y-113691295D01*
X149320476Y-113691295D02*
X149368095Y-113596057D01*
X149368095Y-113596057D02*
X149415714Y-113548438D01*
X149415714Y-113548438D02*
X149510952Y-113500819D01*
X149510952Y-113500819D02*
X149749047Y-113500819D01*
X149749047Y-113500819D02*
X149891904Y-113548438D01*
X150225238Y-113500819D02*
X150463333Y-114500819D01*
X150463333Y-114500819D02*
X150653809Y-113786533D01*
X150653809Y-113786533D02*
X150844285Y-114500819D01*
X150844285Y-114500819D02*
X151082381Y-113500819D01*
X151987142Y-114500819D02*
X151415714Y-114500819D01*
X151701428Y-114500819D02*
X151701428Y-113500819D01*
X151701428Y-113500819D02*
X151606190Y-113643676D01*
X151606190Y-113643676D02*
X151510952Y-113738914D01*
X151510952Y-113738914D02*
X151415714Y-113786533D01*
X152606190Y-113500819D02*
X152701428Y-113500819D01*
X152701428Y-113500819D02*
X152796666Y-113548438D01*
X152796666Y-113548438D02*
X152844285Y-113596057D01*
X152844285Y-113596057D02*
X152891904Y-113691295D01*
X152891904Y-113691295D02*
X152939523Y-113881771D01*
X152939523Y-113881771D02*
X152939523Y-114119866D01*
X152939523Y-114119866D02*
X152891904Y-114310342D01*
X152891904Y-114310342D02*
X152844285Y-114405580D01*
X152844285Y-114405580D02*
X152796666Y-114453200D01*
X152796666Y-114453200D02*
X152701428Y-114500819D01*
X152701428Y-114500819D02*
X152606190Y-114500819D01*
X152606190Y-114500819D02*
X152510952Y-114453200D01*
X152510952Y-114453200D02*
X152463333Y-114405580D01*
X152463333Y-114405580D02*
X152415714Y-114310342D01*
X152415714Y-114310342D02*
X152368095Y-114119866D01*
X152368095Y-114119866D02*
X152368095Y-113881771D01*
X152368095Y-113881771D02*
X152415714Y-113691295D01*
X152415714Y-113691295D02*
X152463333Y-113596057D01*
X152463333Y-113596057D02*
X152510952Y-113548438D01*
X152510952Y-113548438D02*
X152606190Y-113500819D01*
D12*
X73349398Y-124070218D02*
X73349398Y-123070218D01*
X73349398Y-123070218D02*
X73587493Y-123070218D01*
X73587493Y-123070218D02*
X73730350Y-123117837D01*
X73730350Y-123117837D02*
X73825588Y-123213075D01*
X73825588Y-123213075D02*
X73873207Y-123308313D01*
X73873207Y-123308313D02*
X73920826Y-123498789D01*
X73920826Y-123498789D02*
X73920826Y-123641646D01*
X73920826Y-123641646D02*
X73873207Y-123832122D01*
X73873207Y-123832122D02*
X73825588Y-123927360D01*
X73825588Y-123927360D02*
X73730350Y-124022599D01*
X73730350Y-124022599D02*
X73587493Y-124070218D01*
X73587493Y-124070218D02*
X73349398Y-124070218D01*
X74873207Y-124070218D02*
X74301779Y-124070218D01*
X74587493Y-124070218D02*
X74587493Y-123070218D01*
X74587493Y-123070218D02*
X74492255Y-123213075D01*
X74492255Y-123213075D02*
X74397017Y-123308313D01*
X74397017Y-123308313D02*
X74301779Y-123355932D01*
X75349398Y-124070218D02*
X75539874Y-124070218D01*
X75539874Y-124070218D02*
X75635112Y-124022599D01*
X75635112Y-124022599D02*
X75682731Y-123974979D01*
X75682731Y-123974979D02*
X75777969Y-123832122D01*
X75777969Y-123832122D02*
X75825588Y-123641646D01*
X75825588Y-123641646D02*
X75825588Y-123260694D01*
X75825588Y-123260694D02*
X75777969Y-123165456D01*
X75777969Y-123165456D02*
X75730350Y-123117837D01*
X75730350Y-123117837D02*
X75635112Y-123070218D01*
X75635112Y-123070218D02*
X75444636Y-123070218D01*
X75444636Y-123070218D02*
X75349398Y-123117837D01*
X75349398Y-123117837D02*
X75301779Y-123165456D01*
X75301779Y-123165456D02*
X75254160Y-123260694D01*
X75254160Y-123260694D02*
X75254160Y-123498789D01*
X75254160Y-123498789D02*
X75301779Y-123594027D01*
X75301779Y-123594027D02*
X75349398Y-123641646D01*
X75349398Y-123641646D02*
X75444636Y-123689265D01*
X75444636Y-123689265D02*
X75635112Y-123689265D01*
X75635112Y-123689265D02*
X75730350Y-123641646D01*
X75730350Y-123641646D02*
X75777969Y-123594027D01*
X75777969Y-123594027D02*
X75825588Y-123498789D01*
D10*
X168370476Y-95403200D02*
X168513333Y-95450819D01*
X168513333Y-95450819D02*
X168751428Y-95450819D01*
X168751428Y-95450819D02*
X168846666Y-95403200D01*
X168846666Y-95403200D02*
X168894285Y-95355580D01*
X168894285Y-95355580D02*
X168941904Y-95260342D01*
X168941904Y-95260342D02*
X168941904Y-95165104D01*
X168941904Y-95165104D02*
X168894285Y-95069866D01*
X168894285Y-95069866D02*
X168846666Y-95022247D01*
X168846666Y-95022247D02*
X168751428Y-94974628D01*
X168751428Y-94974628D02*
X168560952Y-94927009D01*
X168560952Y-94927009D02*
X168465714Y-94879390D01*
X168465714Y-94879390D02*
X168418095Y-94831771D01*
X168418095Y-94831771D02*
X168370476Y-94736533D01*
X168370476Y-94736533D02*
X168370476Y-94641295D01*
X168370476Y-94641295D02*
X168418095Y-94546057D01*
X168418095Y-94546057D02*
X168465714Y-94498438D01*
X168465714Y-94498438D02*
X168560952Y-94450819D01*
X168560952Y-94450819D02*
X168799047Y-94450819D01*
X168799047Y-94450819D02*
X168941904Y-94498438D01*
X169275238Y-94450819D02*
X169513333Y-95450819D01*
X169513333Y-95450819D02*
X169703809Y-94736533D01*
X169703809Y-94736533D02*
X169894285Y-95450819D01*
X169894285Y-95450819D02*
X170132381Y-94450819D01*
X171037142Y-95450819D02*
X170465714Y-95450819D01*
X170751428Y-95450819D02*
X170751428Y-94450819D01*
X170751428Y-94450819D02*
X170656190Y-94593676D01*
X170656190Y-94593676D02*
X170560952Y-94688914D01*
X170560952Y-94688914D02*
X170465714Y-94736533D01*
X171370476Y-94450819D02*
X171989523Y-94450819D01*
X171989523Y-94450819D02*
X171656190Y-94831771D01*
X171656190Y-94831771D02*
X171799047Y-94831771D01*
X171799047Y-94831771D02*
X171894285Y-94879390D01*
X171894285Y-94879390D02*
X171941904Y-94927009D01*
X171941904Y-94927009D02*
X171989523Y-95022247D01*
X171989523Y-95022247D02*
X171989523Y-95260342D01*
X171989523Y-95260342D02*
X171941904Y-95355580D01*
X171941904Y-95355580D02*
X171894285Y-95403200D01*
X171894285Y-95403200D02*
X171799047Y-95450819D01*
X171799047Y-95450819D02*
X171513333Y-95450819D01*
X171513333Y-95450819D02*
X171418095Y-95403200D01*
X171418095Y-95403200D02*
X171370476Y-95355580D01*
X130746667Y-133503200D02*
X130889524Y-133550819D01*
X130889524Y-133550819D02*
X131127619Y-133550819D01*
X131127619Y-133550819D02*
X131222857Y-133503200D01*
X131222857Y-133503200D02*
X131270476Y-133455580D01*
X131270476Y-133455580D02*
X131318095Y-133360342D01*
X131318095Y-133360342D02*
X131318095Y-133265104D01*
X131318095Y-133265104D02*
X131270476Y-133169866D01*
X131270476Y-133169866D02*
X131222857Y-133122247D01*
X131222857Y-133122247D02*
X131127619Y-133074628D01*
X131127619Y-133074628D02*
X130937143Y-133027009D01*
X130937143Y-133027009D02*
X130841905Y-132979390D01*
X130841905Y-132979390D02*
X130794286Y-132931771D01*
X130794286Y-132931771D02*
X130746667Y-132836533D01*
X130746667Y-132836533D02*
X130746667Y-132741295D01*
X130746667Y-132741295D02*
X130794286Y-132646057D01*
X130794286Y-132646057D02*
X130841905Y-132598438D01*
X130841905Y-132598438D02*
X130937143Y-132550819D01*
X130937143Y-132550819D02*
X131175238Y-132550819D01*
X131175238Y-132550819D02*
X131318095Y-132598438D01*
X131651429Y-132550819D02*
X131889524Y-133550819D01*
X131889524Y-133550819D02*
X132080000Y-132836533D01*
X132080000Y-132836533D02*
X132270476Y-133550819D01*
X132270476Y-133550819D02*
X132508572Y-132550819D01*
X132794286Y-132550819D02*
X133460952Y-132550819D01*
X133460952Y-132550819D02*
X133032381Y-133550819D01*
D12*
X73349398Y-147692218D02*
X73349398Y-146692218D01*
X73349398Y-146692218D02*
X73587493Y-146692218D01*
X73587493Y-146692218D02*
X73730350Y-146739837D01*
X73730350Y-146739837D02*
X73825588Y-146835075D01*
X73825588Y-146835075D02*
X73873207Y-146930313D01*
X73873207Y-146930313D02*
X73920826Y-147120789D01*
X73920826Y-147120789D02*
X73920826Y-147263646D01*
X73920826Y-147263646D02*
X73873207Y-147454122D01*
X73873207Y-147454122D02*
X73825588Y-147549360D01*
X73825588Y-147549360D02*
X73730350Y-147644599D01*
X73730350Y-147644599D02*
X73587493Y-147692218D01*
X73587493Y-147692218D02*
X73349398Y-147692218D01*
X74301779Y-146787456D02*
X74349398Y-146739837D01*
X74349398Y-146739837D02*
X74444636Y-146692218D01*
X74444636Y-146692218D02*
X74682731Y-146692218D01*
X74682731Y-146692218D02*
X74777969Y-146739837D01*
X74777969Y-146739837D02*
X74825588Y-146787456D01*
X74825588Y-146787456D02*
X74873207Y-146882694D01*
X74873207Y-146882694D02*
X74873207Y-146977932D01*
X74873207Y-146977932D02*
X74825588Y-147120789D01*
X74825588Y-147120789D02*
X74254160Y-147692218D01*
X74254160Y-147692218D02*
X74873207Y-147692218D01*
X75254160Y-146787456D02*
X75301779Y-146739837D01*
X75301779Y-146739837D02*
X75397017Y-146692218D01*
X75397017Y-146692218D02*
X75635112Y-146692218D01*
X75635112Y-146692218D02*
X75730350Y-146739837D01*
X75730350Y-146739837D02*
X75777969Y-146787456D01*
X75777969Y-146787456D02*
X75825588Y-146882694D01*
X75825588Y-146882694D02*
X75825588Y-146977932D01*
X75825588Y-146977932D02*
X75777969Y-147120789D01*
X75777969Y-147120789D02*
X75206541Y-147692218D01*
X75206541Y-147692218D02*
X75825588Y-147692218D01*
X73349398Y-131944218D02*
X73349398Y-130944218D01*
X73349398Y-130944218D02*
X73587493Y-130944218D01*
X73587493Y-130944218D02*
X73730350Y-130991837D01*
X73730350Y-130991837D02*
X73825588Y-131087075D01*
X73825588Y-131087075D02*
X73873207Y-131182313D01*
X73873207Y-131182313D02*
X73920826Y-131372789D01*
X73920826Y-131372789D02*
X73920826Y-131515646D01*
X73920826Y-131515646D02*
X73873207Y-131706122D01*
X73873207Y-131706122D02*
X73825588Y-131801360D01*
X73825588Y-131801360D02*
X73730350Y-131896599D01*
X73730350Y-131896599D02*
X73587493Y-131944218D01*
X73587493Y-131944218D02*
X73349398Y-131944218D01*
X74301779Y-131039456D02*
X74349398Y-130991837D01*
X74349398Y-130991837D02*
X74444636Y-130944218D01*
X74444636Y-130944218D02*
X74682731Y-130944218D01*
X74682731Y-130944218D02*
X74777969Y-130991837D01*
X74777969Y-130991837D02*
X74825588Y-131039456D01*
X74825588Y-131039456D02*
X74873207Y-131134694D01*
X74873207Y-131134694D02*
X74873207Y-131229932D01*
X74873207Y-131229932D02*
X74825588Y-131372789D01*
X74825588Y-131372789D02*
X74254160Y-131944218D01*
X74254160Y-131944218D02*
X74873207Y-131944218D01*
X75492255Y-130944218D02*
X75587493Y-130944218D01*
X75587493Y-130944218D02*
X75682731Y-130991837D01*
X75682731Y-130991837D02*
X75730350Y-131039456D01*
X75730350Y-131039456D02*
X75777969Y-131134694D01*
X75777969Y-131134694D02*
X75825588Y-131325170D01*
X75825588Y-131325170D02*
X75825588Y-131563265D01*
X75825588Y-131563265D02*
X75777969Y-131753741D01*
X75777969Y-131753741D02*
X75730350Y-131848979D01*
X75730350Y-131848979D02*
X75682731Y-131896599D01*
X75682731Y-131896599D02*
X75587493Y-131944218D01*
X75587493Y-131944218D02*
X75492255Y-131944218D01*
X75492255Y-131944218D02*
X75397017Y-131896599D01*
X75397017Y-131896599D02*
X75349398Y-131848979D01*
X75349398Y-131848979D02*
X75301779Y-131753741D01*
X75301779Y-131753741D02*
X75254160Y-131563265D01*
X75254160Y-131563265D02*
X75254160Y-131325170D01*
X75254160Y-131325170D02*
X75301779Y-131134694D01*
X75301779Y-131134694D02*
X75349398Y-131039456D01*
X75349398Y-131039456D02*
X75397017Y-130991837D01*
X75397017Y-130991837D02*
X75492255Y-130944218D01*
D14*
%TO.C,SW14*%
X163195000Y-114935000D02*
X177165000Y-114935000D01*
X163195000Y-128905000D02*
X163195000Y-114935000D01*
X177165000Y-114935000D02*
X177165000Y-128905000D01*
X177165000Y-128905000D02*
X163195000Y-128905000D01*
%TO.C,SW2*%
X106045000Y-114935000D02*
X120015000Y-114935000D01*
X106045000Y-128905000D02*
X106045000Y-114935000D01*
X120015000Y-114935000D02*
X120015000Y-128905000D01*
X120015000Y-128905000D02*
X106045000Y-128905000D01*
%TO.C,SW18*%
X184150000Y-94430000D02*
X188250000Y-94430000D01*
X184150000Y-96830000D02*
X184150000Y-94430000D01*
X184150000Y-101630000D02*
X184150000Y-99030000D01*
X184150000Y-106230000D02*
X184150000Y-103830000D01*
X188250000Y-106230000D02*
X184150000Y-106230000D01*
X190250000Y-100830000D02*
X190250000Y-99830000D01*
X190750000Y-100330000D02*
X189750000Y-100330000D01*
X192250000Y-94430000D02*
X196350000Y-94430000D01*
X192250000Y-106230000D02*
X196350000Y-106230000D01*
X196350000Y-106230000D02*
X196350000Y-94430000D01*
X197450000Y-104430000D02*
X197750000Y-104130000D01*
X197750000Y-104130000D02*
X198050000Y-104430000D01*
X198050000Y-104430000D02*
X197450000Y-104430000D01*
X193250000Y-100330000D02*
G75*
G02*
X187250000Y-100330000I-3000000J0D01*
G01*
X187250000Y-100330000D02*
G75*
G02*
X193250000Y-100330000I3000000J0D01*
G01*
%TO.C,SW4*%
X106045000Y-153035000D02*
X120015000Y-153035000D01*
X106045000Y-167005000D02*
X106045000Y-153035000D01*
X120015000Y-153035000D02*
X120015000Y-167005000D01*
X120015000Y-167005000D02*
X106045000Y-167005000D01*
%TO.C,SW11*%
X144145000Y-133985000D02*
X158115000Y-133985000D01*
X144145000Y-147955000D02*
X144145000Y-133985000D01*
X158115000Y-133985000D02*
X158115000Y-147955000D01*
X158115000Y-147955000D02*
X144145000Y-147955000D01*
%TO.C,SW1*%
X106045000Y-95885000D02*
X120015000Y-95885000D01*
X106045000Y-109855000D02*
X106045000Y-95885000D01*
X120015000Y-95885000D02*
X120015000Y-109855000D01*
X120015000Y-109855000D02*
X106045000Y-109855000D01*
%TO.C,SW6*%
X125095000Y-114935000D02*
X139065000Y-114935000D01*
X125095000Y-128905000D02*
X125095000Y-114935000D01*
X139065000Y-114935000D02*
X139065000Y-128905000D01*
X139065000Y-128905000D02*
X125095000Y-128905000D01*
%TO.C,SW8*%
X125095000Y-153035000D02*
X139065000Y-153035000D01*
X125095000Y-167005000D02*
X125095000Y-153035000D01*
X139065000Y-153035000D02*
X139065000Y-167005000D01*
X139065000Y-167005000D02*
X125095000Y-167005000D01*
%TO.C,SW9*%
X144145000Y-95885000D02*
X158115000Y-95885000D01*
X144145000Y-109855000D02*
X144145000Y-95885000D01*
X158115000Y-95885000D02*
X158115000Y-109855000D01*
X158115000Y-109855000D02*
X144145000Y-109855000D01*
%TO.C,SW17*%
X184150000Y-110940000D02*
X188250000Y-110940000D01*
X184150000Y-113340000D02*
X184150000Y-110940000D01*
X184150000Y-118140000D02*
X184150000Y-115540000D01*
X184150000Y-122740000D02*
X184150000Y-120340000D01*
X188250000Y-122740000D02*
X184150000Y-122740000D01*
X190250000Y-117340000D02*
X190250000Y-116340000D01*
X190750000Y-116840000D02*
X189750000Y-116840000D01*
X192250000Y-110940000D02*
X196350000Y-110940000D01*
X192250000Y-122740000D02*
X196350000Y-122740000D01*
X196350000Y-122740000D02*
X196350000Y-110940000D01*
X197450000Y-120940000D02*
X197750000Y-120640000D01*
X197750000Y-120640000D02*
X198050000Y-120940000D01*
X198050000Y-120940000D02*
X197450000Y-120940000D01*
X193250000Y-116840000D02*
G75*
G02*
X187250000Y-116840000I-3000000J0D01*
G01*
X187250000Y-116840000D02*
G75*
G02*
X193250000Y-116840000I3000000J0D01*
G01*
%TO.C,SW3*%
X106045000Y-133985000D02*
X120015000Y-133985000D01*
X106045000Y-147955000D02*
X106045000Y-133985000D01*
X120015000Y-133985000D02*
X120015000Y-147955000D01*
X120015000Y-147955000D02*
X106045000Y-147955000D01*
%TO.C,SW5*%
X125095000Y-95885000D02*
X139065000Y-95885000D01*
X125095000Y-109855000D02*
X125095000Y-95885000D01*
X139065000Y-95885000D02*
X139065000Y-109855000D01*
X139065000Y-109855000D02*
X125095000Y-109855000D01*
%TO.C,SW12*%
X144145000Y-153035000D02*
X158115000Y-153035000D01*
X144145000Y-167005000D02*
X144145000Y-153035000D01*
X158115000Y-153035000D02*
X158115000Y-167005000D01*
X158115000Y-167005000D02*
X144145000Y-167005000D01*
D15*
%TO.C,U1*%
X63485000Y-99450000D02*
X63485000Y-116450000D01*
X65485000Y-118450000D02*
X79285000Y-118450000D01*
X67885000Y-96025970D02*
X76885000Y-96025970D01*
X67885000Y-103379270D02*
X67885000Y-96025970D01*
X76885000Y-96025970D02*
X76885000Y-103379270D01*
X76885000Y-103379270D02*
X67885000Y-103379270D01*
X79285000Y-97450910D02*
X65485000Y-97450910D01*
X81285000Y-116450000D02*
X81285000Y-99450000D01*
D14*
X63485000Y-99450000D02*
G75*
G02*
X65485000Y-97450000I2044612J-44612D01*
G01*
X65485000Y-118450000D02*
G75*
G02*
X63485000Y-116450000I44857J2044857D01*
G01*
X79285000Y-97450000D02*
G75*
G02*
X81285000Y-99450000I-44610J-2044610D01*
G01*
X81285000Y-116450000D02*
G75*
G02*
X79285000Y-118450000I-2000000J0D01*
G01*
D16*
X61512000Y-99150000D02*
G75*
G02*
X61258000Y-99150000I-127000J0D01*
G01*
X61258000Y-99150000D02*
G75*
G02*
X61512000Y-99150000I127000J0D01*
G01*
D17*
X63497285Y-99388295D02*
X63500333Y-99339527D01*
X63504397Y-99290506D01*
X63497285Y-99388295D01*
X81272713Y-116520850D02*
X81269665Y-116569618D01*
X81265601Y-116618639D01*
X81260268Y-116667407D01*
X81253664Y-116716175D01*
X81246044Y-116764690D01*
X81237153Y-116812950D01*
X81227248Y-116860955D01*
X81274492Y-116471574D01*
X81272713Y-116520850D01*
D14*
%TO.C,SW15*%
X163195000Y-133985000D02*
X177165000Y-133985000D01*
X163195000Y-147955000D02*
X163195000Y-133985000D01*
X177165000Y-133985000D02*
X177165000Y-147955000D01*
X177165000Y-147955000D02*
X163195000Y-147955000D01*
%TO.C,SW16*%
X163195000Y-153035000D02*
X177165000Y-153035000D01*
X163195000Y-167005000D02*
X163195000Y-153035000D01*
X177165000Y-153035000D02*
X177165000Y-167005000D01*
X177165000Y-167005000D02*
X163195000Y-167005000D01*
%TO.C,U3*%
X92600000Y-111700000D02*
X92600000Y-147380000D01*
X92600000Y-147380000D02*
X97900000Y-147380000D01*
X94250000Y-111700000D02*
X92600000Y-111700000D01*
X97900000Y-111700000D02*
X96250000Y-111700000D01*
X97900000Y-147380000D02*
X97900000Y-111700000D01*
X96250000Y-111700000D02*
G75*
G02*
X94250000Y-111700000I-1000000J0D01*
G01*
D18*
%TO.C,J1*%
X62165000Y-157715000D02*
X62165000Y-169715000D01*
X62165000Y-169715000D02*
X100165000Y-169715000D01*
X67165000Y-169715000D02*
X67165000Y-157715000D01*
X96665000Y-169715000D02*
X96665000Y-157715000D01*
X100165000Y-157715000D02*
X62165000Y-157715000D01*
X100165000Y-169715000D02*
X100165000Y-157715000D01*
D14*
%TO.C,SW10*%
X144145000Y-114935000D02*
X158115000Y-114935000D01*
X144145000Y-128905000D02*
X144145000Y-114935000D01*
X158115000Y-114935000D02*
X158115000Y-128905000D01*
X158115000Y-128905000D02*
X144145000Y-128905000D01*
%TO.C,SW13*%
X163195000Y-95885000D02*
X177165000Y-95885000D01*
X163195000Y-109855000D02*
X163195000Y-95885000D01*
X177165000Y-95885000D02*
X177165000Y-109855000D01*
X177165000Y-109855000D02*
X163195000Y-109855000D01*
%TO.C,SW7*%
X125095000Y-133985000D02*
X139065000Y-133985000D01*
X125095000Y-147955000D02*
X125095000Y-133985000D01*
X139065000Y-133985000D02*
X139065000Y-147955000D01*
X139065000Y-147955000D02*
X125095000Y-147955000D01*
%TD*%
%LPC*%
D19*
%TO.C,SW14*%
X165100000Y-121920000D03*
D20*
X170180000Y-121920000D03*
D19*
X175260000Y-121920000D03*
D21*
X172720000Y-116840000D03*
X166370000Y-119380000D03*
%TD*%
D19*
%TO.C,SW2*%
X107950000Y-121920000D03*
D20*
X113030000Y-121920000D03*
D19*
X118110000Y-121920000D03*
D21*
X115570000Y-116840000D03*
X109220000Y-119380000D03*
%TD*%
D22*
%TO.C,SW18*%
X197750000Y-102830000D03*
D23*
X197750000Y-97830000D03*
X197750000Y-100330000D03*
D24*
X190250000Y-105930000D03*
X190250000Y-94730000D03*
D23*
X183250000Y-97830000D03*
X183250000Y-102830000D03*
%TD*%
D19*
%TO.C,SW4*%
X107950000Y-160020000D03*
D20*
X113030000Y-160020000D03*
D19*
X118110000Y-160020000D03*
D21*
X115570000Y-154940000D03*
X109220000Y-157480000D03*
%TD*%
D19*
%TO.C,SW11*%
X146050000Y-140970000D03*
D20*
X151130000Y-140970000D03*
D19*
X156210000Y-140970000D03*
D21*
X153670000Y-135890000D03*
X147320000Y-138430000D03*
%TD*%
D19*
%TO.C,SW1*%
X107950000Y-102870000D03*
D20*
X113030000Y-102870000D03*
D19*
X118110000Y-102870000D03*
D21*
X115570000Y-97790000D03*
X109220000Y-100330000D03*
%TD*%
D19*
%TO.C,SW6*%
X127000000Y-121920000D03*
D20*
X132080000Y-121920000D03*
D19*
X137160000Y-121920000D03*
D21*
X134620000Y-116840000D03*
X128270000Y-119380000D03*
%TD*%
D19*
%TO.C,SW8*%
X127000000Y-160020000D03*
D20*
X132080000Y-160020000D03*
D19*
X137160000Y-160020000D03*
D21*
X134620000Y-154940000D03*
X128270000Y-157480000D03*
%TD*%
D19*
%TO.C,SW9*%
X146050000Y-102870000D03*
D20*
X151130000Y-102870000D03*
D19*
X156210000Y-102870000D03*
D21*
X153670000Y-97790000D03*
X147320000Y-100330000D03*
%TD*%
D22*
%TO.C,SW17*%
X197750000Y-119340000D03*
D23*
X197750000Y-114340000D03*
X197750000Y-116840000D03*
D24*
X190250000Y-122440000D03*
X190250000Y-111240000D03*
D23*
X183250000Y-114340000D03*
X183250000Y-119340000D03*
%TD*%
D19*
%TO.C,SW3*%
X107950000Y-140970000D03*
D20*
X113030000Y-140970000D03*
D19*
X118110000Y-140970000D03*
D21*
X115570000Y-135890000D03*
X109220000Y-138430000D03*
%TD*%
D19*
%TO.C,SW5*%
X127000000Y-102870000D03*
D20*
X132080000Y-102870000D03*
D19*
X137160000Y-102870000D03*
D21*
X134620000Y-97790000D03*
X128270000Y-100330000D03*
%TD*%
D19*
%TO.C,SW12*%
X146050000Y-160020000D03*
D20*
X151130000Y-160020000D03*
D19*
X156210000Y-160020000D03*
D21*
X153670000Y-154940000D03*
X147320000Y-157480000D03*
%TD*%
D25*
%TO.C,U1*%
X63760000Y-100330000D03*
D26*
X63760000Y-102870000D03*
X63760000Y-105410000D03*
X63760000Y-107950000D03*
X63760000Y-110490000D03*
X63760000Y-113030000D03*
X63760000Y-115570000D03*
X81010000Y-115570000D03*
X81010000Y-113030000D03*
X81010000Y-110490000D03*
D27*
X81010000Y-107950000D03*
X81010000Y-105410000D03*
X81010000Y-102870000D03*
X81010000Y-100330000D03*
%TD*%
D19*
%TO.C,SW15*%
X165100000Y-140970000D03*
D20*
X170180000Y-140970000D03*
D19*
X175260000Y-140970000D03*
D21*
X172720000Y-135890000D03*
X166370000Y-138430000D03*
%TD*%
D19*
%TO.C,SW16*%
X165100000Y-160020000D03*
D20*
X170180000Y-160020000D03*
D19*
X175260000Y-160020000D03*
D21*
X172720000Y-154940000D03*
X166370000Y-157480000D03*
%TD*%
D28*
%TO.C,U3*%
X91440000Y-113030000D03*
D29*
X91440000Y-115570000D03*
X91440000Y-118110000D03*
X91440000Y-120650000D03*
X91440000Y-123190000D03*
X91440000Y-125730000D03*
X91440000Y-128270000D03*
X91440000Y-130810000D03*
X91440000Y-133350000D03*
X91440000Y-135890000D03*
X91440000Y-138430000D03*
X91440000Y-140970000D03*
X91440000Y-143510000D03*
X91440000Y-146050000D03*
X99060000Y-146050000D03*
X99060000Y-143510000D03*
X99060000Y-140970000D03*
X99060000Y-138430000D03*
X99060000Y-135890000D03*
X99060000Y-133350000D03*
X99060000Y-130810000D03*
X99060000Y-128270000D03*
X99060000Y-125730000D03*
X99060000Y-123190000D03*
X99060000Y-120650000D03*
X99060000Y-118110000D03*
X99060000Y-115570000D03*
X99060000Y-113030000D03*
%TD*%
D30*
%TO.C,J1*%
X63665000Y-167525000D03*
D31*
X63665000Y-164985000D03*
X63665000Y-162445000D03*
X63665000Y-159905000D03*
%TD*%
D19*
%TO.C,SW10*%
X146050000Y-121920000D03*
D20*
X151130000Y-121920000D03*
D19*
X156210000Y-121920000D03*
D21*
X153670000Y-116840000D03*
X147320000Y-119380000D03*
%TD*%
D19*
%TO.C,SW13*%
X165100000Y-102870000D03*
D20*
X170180000Y-102870000D03*
D19*
X175260000Y-102870000D03*
D21*
X172720000Y-97790000D03*
X166370000Y-100330000D03*
%TD*%
D19*
%TO.C,SW7*%
X127000000Y-140970000D03*
D20*
X132080000Y-140970000D03*
D19*
X137160000Y-140970000D03*
D21*
X134620000Y-135890000D03*
X128270000Y-138430000D03*
%TD*%
D32*
%TO.C,D11*%
X154940000Y-149860000D03*
D29*
X147320000Y-149860000D03*
%TD*%
D32*
%TO.C,D4*%
X116840000Y-168910000D03*
D29*
X109220000Y-168910000D03*
%TD*%
D32*
%TO.C,D9*%
X154940000Y-111760000D03*
D29*
X147320000Y-111760000D03*
%TD*%
D32*
%TO.C,D14*%
X173990000Y-130810000D03*
D29*
X166370000Y-130810000D03*
%TD*%
D33*
%TO.C,D17*%
X201930000Y-115570000D03*
D29*
X201930000Y-123190000D03*
%TD*%
D32*
%TO.C,D7*%
X135890000Y-149860000D03*
D29*
X128270000Y-149860000D03*
%TD*%
D32*
%TO.C,D6*%
X135890000Y-130810000D03*
D29*
X128270000Y-130810000D03*
%TD*%
D32*
%TO.C,D10*%
X154940000Y-130810000D03*
D29*
X147320000Y-130810000D03*
%TD*%
D32*
%TO.C,D13*%
X173990000Y-111760000D03*
D29*
X166370000Y-111760000D03*
%TD*%
D32*
%TO.C,D16*%
X173990000Y-168910000D03*
D29*
X166370000Y-168910000D03*
%TD*%
D32*
%TO.C,D1*%
X116840000Y-111760000D03*
D29*
X109220000Y-111760000D03*
%TD*%
D32*
%TO.C,D8*%
X135890000Y-168910000D03*
D29*
X128270000Y-168910000D03*
%TD*%
D32*
%TO.C,D5*%
X135890000Y-111760000D03*
D29*
X128270000Y-111760000D03*
%TD*%
D32*
%TO.C,D12*%
X154940000Y-168910000D03*
D29*
X147320000Y-168910000D03*
%TD*%
D32*
%TO.C,D2*%
X116840000Y-130810000D03*
D29*
X109220000Y-130810000D03*
%TD*%
D34*
%TO.C,D18*%
X201930000Y-111760000D03*
D29*
X201930000Y-104140000D03*
%TD*%
D32*
%TO.C,D3*%
X116840000Y-149860000D03*
D29*
X109220000Y-149860000D03*
%TD*%
D32*
%TO.C,D15*%
X173990000Y-149860000D03*
D29*
X166370000Y-149860000D03*
%TD*%
%LPD*%
M02*
