%TF.GenerationSoftware,KiCad,Pcbnew,9.0.7*%
%TF.CreationDate,2026-02-18T17:18:56+00:00*%
%TF.ProjectId,hc_real_pad,68635f72-6561-46c5-9f70-61642e6b6963,rev?*%
%TF.SameCoordinates,Original*%
%TF.FileFunction,Profile,NP*%
%FSLAX46Y46*%
G04 Gerber Fmt 4.6, Leading zero omitted, Abs format (unit mm)*
G04 Created by KiCad (PCBNEW 9.0.7) date 2026-02-18 17:18:56*
%MOMM*%
%LPD*%
G01*
G04 APERTURE LIST*
%TA.AperFunction,Profile*%
%ADD10C,0.050000*%
%TD*%
%TA.AperFunction,Profile*%
%ADD11C,0.100000*%
%TD*%
G04 APERTURE END LIST*
D10*
X205740000Y-125878806D02*
X205740000Y-96440000D01*
X192100000Y-136000000D02*
G75*
G02*
X188900000Y-136000000I-1600000J0D01*
G01*
X188900000Y-136000000D02*
G75*
G02*
X192100000Y-136000000I1600000J0D01*
G01*
X185502902Y-169855031D02*
X205261243Y-128013838D01*
X60880000Y-172720000D02*
X180981659Y-172720000D01*
X79613333Y-97155000D02*
X60880000Y-97155000D01*
X200740000Y-91440000D02*
X90566667Y-91440000D01*
X205740000Y-125878806D02*
G75*
G02*
X205261241Y-128013837I-5000000J6D01*
G01*
X200740000Y-91440000D02*
G75*
G02*
X205740000Y-96440000I0J-5000000D01*
G01*
X87600000Y-138000000D02*
G75*
G02*
X84400000Y-138000000I-1600000J0D01*
G01*
X84400000Y-138000000D02*
G75*
G02*
X87600000Y-138000000I1600000J0D01*
G01*
X87566667Y-92440000D02*
G75*
G02*
X90566667Y-91439980I3000033J-4000000D01*
G01*
X55880000Y-102155000D02*
G75*
G02*
X60880000Y-97155000I5000000J0D01*
G01*
X87566667Y-92440000D02*
X82613333Y-96155000D01*
X96600000Y-104000000D02*
G75*
G02*
X93400000Y-104000000I-1600000J0D01*
G01*
X93400000Y-104000000D02*
G75*
G02*
X96600000Y-104000000I1600000J0D01*
G01*
X185502902Y-169855031D02*
G75*
G02*
X180981659Y-172719996I-4521302J2135131D01*
G01*
X60880000Y-172720000D02*
G75*
G02*
X55880000Y-167720000I0J5000000D01*
G01*
X82613333Y-96155000D02*
G75*
G02*
X79613333Y-97155020I-3000033J4000000D01*
G01*
X55880000Y-102155000D02*
X55880000Y-167720000D01*
D11*
%TO.C,D21*%
X73073159Y-142720452D02*
X73073159Y-141131547D01*
X73870316Y-140226001D02*
X75276000Y-140226001D01*
X75276000Y-143625999D02*
X73870316Y-143625999D01*
X76073158Y-141131548D02*
X76073158Y-142720452D01*
X73004860Y-140879289D02*
G75*
G02*
X73073160Y-141131547I-431710J-252262D01*
G01*
X73004860Y-140879289D02*
G75*
G02*
X73653438Y-140176517I431700J252258D01*
G01*
X73073158Y-142720453D02*
G75*
G02*
X73004859Y-142972711I-500009J3D01*
G01*
X73653438Y-143675484D02*
G75*
G02*
X73004859Y-142972711I-216878J450515D01*
G01*
X73653438Y-143675484D02*
G75*
G02*
X73870316Y-143625999I216876J-450505D01*
G01*
X73870315Y-140226001D02*
G75*
G02*
X73653435Y-140176522I-15J500000D01*
G01*
X75276001Y-143625999D02*
G75*
G02*
X75492878Y-143675484I1J-499990D01*
G01*
X75492877Y-140176516D02*
G75*
G02*
X76141457Y-140879289I216880J-450514D01*
G01*
X75492878Y-140176516D02*
G75*
G02*
X75276000Y-140226001I-216878J450515D01*
G01*
X76073158Y-141131548D02*
G75*
G02*
X76141457Y-140879289I500012J-3D01*
G01*
X76141455Y-142972711D02*
G75*
G02*
X75492878Y-143675484I-431700J-252258D01*
G01*
X76141457Y-142972710D02*
G75*
G02*
X76073158Y-142720452I431710J252261D01*
G01*
%TO.C,D25*%
X64437159Y-142720452D02*
X64437159Y-141131547D01*
X65234316Y-140226001D02*
X66640000Y-140226001D01*
X66640000Y-143625999D02*
X65234316Y-143625999D01*
X67437158Y-141131548D02*
X67437158Y-142720452D01*
X64368860Y-140879289D02*
G75*
G02*
X64437160Y-141131547I-431710J-252262D01*
G01*
X64368860Y-140879289D02*
G75*
G02*
X65017438Y-140176517I431700J252258D01*
G01*
X64437158Y-142720453D02*
G75*
G02*
X64368859Y-142972711I-500009J3D01*
G01*
X65017438Y-143675484D02*
G75*
G02*
X64368859Y-142972711I-216878J450515D01*
G01*
X65017438Y-143675484D02*
G75*
G02*
X65234316Y-143625999I216876J-450505D01*
G01*
X65234315Y-140226001D02*
G75*
G02*
X65017435Y-140176522I-15J500000D01*
G01*
X66640001Y-143625999D02*
G75*
G02*
X66856878Y-143675484I1J-499990D01*
G01*
X66856877Y-140176516D02*
G75*
G02*
X67505457Y-140879289I216880J-450514D01*
G01*
X66856878Y-140176516D02*
G75*
G02*
X66640000Y-140226001I-216878J450515D01*
G01*
X67437158Y-141131548D02*
G75*
G02*
X67505457Y-140879289I500012J-3D01*
G01*
X67505455Y-142972711D02*
G75*
G02*
X66856878Y-143675484I-431700J-252258D01*
G01*
X67505457Y-142972710D02*
G75*
G02*
X67437158Y-142720452I431710J252261D01*
G01*
%TO.C,D26*%
X64437159Y-150594452D02*
X64437159Y-149005547D01*
X65234316Y-148100001D02*
X66640000Y-148100001D01*
X66640000Y-151499999D02*
X65234316Y-151499999D01*
X67437158Y-149005548D02*
X67437158Y-150594452D01*
X64368860Y-148753289D02*
G75*
G02*
X64437160Y-149005547I-431710J-252262D01*
G01*
X64368860Y-148753289D02*
G75*
G02*
X65017438Y-148050517I431700J252258D01*
G01*
X64437158Y-150594453D02*
G75*
G02*
X64368859Y-150846711I-500009J3D01*
G01*
X65017438Y-151549484D02*
G75*
G02*
X64368859Y-150846711I-216878J450515D01*
G01*
X65017438Y-151549484D02*
G75*
G02*
X65234316Y-151499999I216876J-450505D01*
G01*
X65234315Y-148100001D02*
G75*
G02*
X65017435Y-148050522I-15J500000D01*
G01*
X66640001Y-151499999D02*
G75*
G02*
X66856878Y-151549484I1J-499990D01*
G01*
X66856877Y-148050516D02*
G75*
G02*
X67505457Y-148753289I216880J-450514D01*
G01*
X66856878Y-148050516D02*
G75*
G02*
X66640000Y-148100001I-216878J450515D01*
G01*
X67437158Y-149005548D02*
G75*
G02*
X67505457Y-148753289I500012J-3D01*
G01*
X67505455Y-150846711D02*
G75*
G02*
X66856878Y-151549484I-431700J-252258D01*
G01*
X67505457Y-150846710D02*
G75*
G02*
X67437158Y-150594452I431710J252261D01*
G01*
%TO.C,D31*%
X68706842Y-150594454D02*
X68706842Y-149005550D01*
X69504000Y-148100003D02*
X70909684Y-148100003D01*
X70909684Y-151500001D02*
X69504000Y-151500001D01*
X71706841Y-149005550D02*
X71706841Y-150594455D01*
X68638543Y-148753292D02*
G75*
G02*
X68706842Y-149005550I-431710J-252261D01*
G01*
X68638545Y-148753291D02*
G75*
G02*
X69287122Y-148050518I431700J252258D01*
G01*
X68706842Y-150594454D02*
G75*
G02*
X68638543Y-150846713I-500012J3D01*
G01*
X69287122Y-151549486D02*
G75*
G02*
X69504000Y-151500001I216878J-450515D01*
G01*
X69287123Y-151549486D02*
G75*
G02*
X68638543Y-150846713I-216880J450514D01*
G01*
X69503999Y-148100003D02*
G75*
G02*
X69287122Y-148050518I-1J499990D01*
G01*
X70909685Y-151500001D02*
G75*
G02*
X71126565Y-151549480I15J-500000D01*
G01*
X71126562Y-148050518D02*
G75*
G02*
X70909684Y-148100003I-216876J450505D01*
G01*
X71126562Y-148050518D02*
G75*
G02*
X71775141Y-148753291I216878J-450515D01*
G01*
X71706842Y-149005549D02*
G75*
G02*
X71775141Y-148753291I500009J-3D01*
G01*
X71775140Y-150846713D02*
G75*
G02*
X71126562Y-151549485I-431700J-252258D01*
G01*
X71775140Y-150846713D02*
G75*
G02*
X71706840Y-150594455I431710J252262D01*
G01*
%TO.C,D23*%
X64437159Y-126972452D02*
X64437159Y-125383547D01*
X65234316Y-124478001D02*
X66640000Y-124478001D01*
X66640000Y-127877999D02*
X65234316Y-127877999D01*
X67437158Y-125383548D02*
X67437158Y-126972452D01*
X64368860Y-125131289D02*
G75*
G02*
X64437160Y-125383547I-431710J-252262D01*
G01*
X64368860Y-125131289D02*
G75*
G02*
X65017438Y-124428517I431700J252258D01*
G01*
X64437158Y-126972453D02*
G75*
G02*
X64368859Y-127224711I-500009J3D01*
G01*
X65017438Y-127927484D02*
G75*
G02*
X64368859Y-127224711I-216878J450515D01*
G01*
X65017438Y-127927484D02*
G75*
G02*
X65234316Y-127877999I216876J-450505D01*
G01*
X65234315Y-124478001D02*
G75*
G02*
X65017435Y-124428522I-15J500000D01*
G01*
X66640001Y-127877999D02*
G75*
G02*
X66856878Y-127927484I1J-499990D01*
G01*
X66856877Y-124428516D02*
G75*
G02*
X67505457Y-125131289I216880J-450514D01*
G01*
X66856878Y-124428516D02*
G75*
G02*
X66640000Y-124478001I-216878J450515D01*
G01*
X67437158Y-125383548D02*
G75*
G02*
X67505457Y-125131289I500012J-3D01*
G01*
X67505455Y-127224711D02*
G75*
G02*
X66856878Y-127927484I-431700J-252258D01*
G01*
X67505457Y-127224710D02*
G75*
G02*
X67437158Y-126972452I431710J252261D01*
G01*
%TO.C,D34*%
X68706842Y-126972454D02*
X68706842Y-125383550D01*
X69504000Y-124478003D02*
X70909684Y-124478003D01*
X70909684Y-127878001D02*
X69504000Y-127878001D01*
X71706841Y-125383550D02*
X71706841Y-126972455D01*
X68638543Y-125131292D02*
G75*
G02*
X68706842Y-125383550I-431710J-252261D01*
G01*
X68638545Y-125131291D02*
G75*
G02*
X69287122Y-124428518I431700J252258D01*
G01*
X68706842Y-126972454D02*
G75*
G02*
X68638543Y-127224713I-500012J3D01*
G01*
X69287122Y-127927486D02*
G75*
G02*
X69504000Y-127878001I216878J-450515D01*
G01*
X69287123Y-127927486D02*
G75*
G02*
X68638543Y-127224713I-216880J450514D01*
G01*
X69503999Y-124478003D02*
G75*
G02*
X69287122Y-124428518I-1J499990D01*
G01*
X70909685Y-127878001D02*
G75*
G02*
X71126565Y-127927480I15J-500000D01*
G01*
X71126562Y-124428518D02*
G75*
G02*
X70909684Y-124478003I-216876J450505D01*
G01*
X71126562Y-124428518D02*
G75*
G02*
X71775141Y-125131291I216878J-450515D01*
G01*
X71706842Y-125383549D02*
G75*
G02*
X71775141Y-125131291I500009J-3D01*
G01*
X71775140Y-127224713D02*
G75*
G02*
X71126562Y-127927485I-431700J-252258D01*
G01*
X71775140Y-127224713D02*
G75*
G02*
X71706840Y-126972455I431710J252262D01*
G01*
%TO.C,D27*%
X77342842Y-150654453D02*
X77342842Y-149065549D01*
X78140000Y-148160002D02*
X79545684Y-148160002D01*
X79545684Y-151560000D02*
X78140000Y-151560000D01*
X80342841Y-149065549D02*
X80342841Y-150654454D01*
X77274543Y-148813291D02*
G75*
G02*
X77342842Y-149065549I-431710J-252261D01*
G01*
X77274545Y-148813290D02*
G75*
G02*
X77923122Y-148110517I431700J252258D01*
G01*
X77342842Y-150654453D02*
G75*
G02*
X77274543Y-150906712I-500012J3D01*
G01*
X77923122Y-151609485D02*
G75*
G02*
X78140000Y-151560000I216878J-450515D01*
G01*
X77923123Y-151609485D02*
G75*
G02*
X77274543Y-150906712I-216880J450514D01*
G01*
X78139999Y-148160002D02*
G75*
G02*
X77923122Y-148110517I-1J499990D01*
G01*
X79545685Y-151560000D02*
G75*
G02*
X79762565Y-151609479I15J-500000D01*
G01*
X79762562Y-148110517D02*
G75*
G02*
X79545684Y-148160002I-216876J450505D01*
G01*
X79762562Y-148110517D02*
G75*
G02*
X80411141Y-148813290I216878J-450515D01*
G01*
X80342842Y-149065548D02*
G75*
G02*
X80411141Y-148813290I500009J-3D01*
G01*
X80411140Y-150906712D02*
G75*
G02*
X79762562Y-151609484I-431700J-252258D01*
G01*
X80411140Y-150906712D02*
G75*
G02*
X80342840Y-150654454I431710J252262D01*
G01*
%TO.C,D33*%
X68706842Y-134846454D02*
X68706842Y-133257550D01*
X69504000Y-132352003D02*
X70909684Y-132352003D01*
X70909684Y-135752001D02*
X69504000Y-135752001D01*
X71706841Y-133257550D02*
X71706841Y-134846455D01*
X68638543Y-133005292D02*
G75*
G02*
X68706842Y-133257550I-431710J-252261D01*
G01*
X68638545Y-133005291D02*
G75*
G02*
X69287122Y-132302518I431700J252258D01*
G01*
X68706842Y-134846454D02*
G75*
G02*
X68638543Y-135098713I-500012J3D01*
G01*
X69287122Y-135801486D02*
G75*
G02*
X69504000Y-135752001I216878J-450515D01*
G01*
X69287123Y-135801486D02*
G75*
G02*
X68638543Y-135098713I-216880J450514D01*
G01*
X69503999Y-132352003D02*
G75*
G02*
X69287122Y-132302518I-1J499990D01*
G01*
X70909685Y-135752001D02*
G75*
G02*
X71126565Y-135801480I15J-500000D01*
G01*
X71126562Y-132302518D02*
G75*
G02*
X70909684Y-132352003I-216876J450505D01*
G01*
X71126562Y-132302518D02*
G75*
G02*
X71775141Y-133005291I216878J-450515D01*
G01*
X71706842Y-133257549D02*
G75*
G02*
X71775141Y-133005291I500009J-3D01*
G01*
X71775140Y-135098713D02*
G75*
G02*
X71126562Y-135801485I-431700J-252258D01*
G01*
X71775140Y-135098713D02*
G75*
G02*
X71706840Y-134846455I431710J252262D01*
G01*
%TO.C,D32*%
X68706842Y-142720454D02*
X68706842Y-141131550D01*
X69504000Y-140226003D02*
X70909684Y-140226003D01*
X70909684Y-143626001D02*
X69504000Y-143626001D01*
X71706841Y-141131550D02*
X71706841Y-142720455D01*
X68638543Y-140879292D02*
G75*
G02*
X68706842Y-141131550I-431710J-252261D01*
G01*
X68638545Y-140879291D02*
G75*
G02*
X69287122Y-140176518I431700J252258D01*
G01*
X68706842Y-142720454D02*
G75*
G02*
X68638543Y-142972713I-500012J3D01*
G01*
X69287122Y-143675486D02*
G75*
G02*
X69504000Y-143626001I216878J-450515D01*
G01*
X69287123Y-143675486D02*
G75*
G02*
X68638543Y-142972713I-216880J450514D01*
G01*
X69503999Y-140226003D02*
G75*
G02*
X69287122Y-140176518I-1J499990D01*
G01*
X70909685Y-143626001D02*
G75*
G02*
X71126565Y-143675480I15J-500000D01*
G01*
X71126562Y-140176518D02*
G75*
G02*
X70909684Y-140226003I-216876J450505D01*
G01*
X71126562Y-140176518D02*
G75*
G02*
X71775141Y-140879291I216878J-450515D01*
G01*
X71706842Y-141131549D02*
G75*
G02*
X71775141Y-140879291I500009J-3D01*
G01*
X71775140Y-142972713D02*
G75*
G02*
X71126562Y-143675485I-431700J-252258D01*
G01*
X71775140Y-142972713D02*
G75*
G02*
X71706840Y-142720455I431710J252262D01*
G01*
%TO.C,D24*%
X64437159Y-134846452D02*
X64437159Y-133257547D01*
X65234316Y-132352001D02*
X66640000Y-132352001D01*
X66640000Y-135751999D02*
X65234316Y-135751999D01*
X67437158Y-133257548D02*
X67437158Y-134846452D01*
X64368860Y-133005289D02*
G75*
G02*
X64437160Y-133257547I-431710J-252262D01*
G01*
X64368860Y-133005289D02*
G75*
G02*
X65017438Y-132302517I431700J252258D01*
G01*
X64437158Y-134846453D02*
G75*
G02*
X64368859Y-135098711I-500009J3D01*
G01*
X65017438Y-135801484D02*
G75*
G02*
X64368859Y-135098711I-216878J450515D01*
G01*
X65017438Y-135801484D02*
G75*
G02*
X65234316Y-135751999I216876J-450505D01*
G01*
X65234315Y-132352001D02*
G75*
G02*
X65017435Y-132302522I-15J500000D01*
G01*
X66640001Y-135751999D02*
G75*
G02*
X66856878Y-135801484I1J-499990D01*
G01*
X66856877Y-132302516D02*
G75*
G02*
X67505457Y-133005289I216880J-450514D01*
G01*
X66856878Y-132302516D02*
G75*
G02*
X66640000Y-132352001I-216878J450515D01*
G01*
X67437158Y-133257548D02*
G75*
G02*
X67505457Y-133005289I500012J-3D01*
G01*
X67505455Y-135098711D02*
G75*
G02*
X66856878Y-135801484I-431700J-252258D01*
G01*
X67505457Y-135098710D02*
G75*
G02*
X67437158Y-134846452I431710J252261D01*
G01*
%TO.C,D29*%
X77342842Y-134846454D02*
X77342842Y-133257550D01*
X78140000Y-132352003D02*
X79545684Y-132352003D01*
X79545684Y-135752001D02*
X78140000Y-135752001D01*
X80342841Y-133257550D02*
X80342841Y-134846455D01*
X77274543Y-133005292D02*
G75*
G02*
X77342842Y-133257550I-431710J-252261D01*
G01*
X77274545Y-133005291D02*
G75*
G02*
X77923122Y-132302518I431700J252258D01*
G01*
X77342842Y-134846454D02*
G75*
G02*
X77274543Y-135098713I-500012J3D01*
G01*
X77923122Y-135801486D02*
G75*
G02*
X78140000Y-135752001I216878J-450515D01*
G01*
X77923123Y-135801486D02*
G75*
G02*
X77274543Y-135098713I-216880J450514D01*
G01*
X78139999Y-132352003D02*
G75*
G02*
X77923122Y-132302518I-1J499990D01*
G01*
X79545685Y-135752001D02*
G75*
G02*
X79762565Y-135801480I15J-500000D01*
G01*
X79762562Y-132302518D02*
G75*
G02*
X79545684Y-132352003I-216876J450505D01*
G01*
X79762562Y-132302518D02*
G75*
G02*
X80411141Y-133005291I216878J-450515D01*
G01*
X80342842Y-133257549D02*
G75*
G02*
X80411141Y-133005291I500009J-3D01*
G01*
X80411140Y-135098713D02*
G75*
G02*
X79762562Y-135801485I-431700J-252258D01*
G01*
X80411140Y-135098713D02*
G75*
G02*
X80342840Y-134846455I431710J252262D01*
G01*
%TO.C,D30*%
X77342842Y-126972454D02*
X77342842Y-125383550D01*
X78140000Y-124478003D02*
X79545684Y-124478003D01*
X79545684Y-127878001D02*
X78140000Y-127878001D01*
X80342841Y-125383550D02*
X80342841Y-126972455D01*
X77274543Y-125131292D02*
G75*
G02*
X77342842Y-125383550I-431710J-252261D01*
G01*
X77274545Y-125131291D02*
G75*
G02*
X77923122Y-124428518I431700J252258D01*
G01*
X77342842Y-126972454D02*
G75*
G02*
X77274543Y-127224713I-500012J3D01*
G01*
X77923122Y-127927486D02*
G75*
G02*
X78140000Y-127878001I216878J-450515D01*
G01*
X77923123Y-127927486D02*
G75*
G02*
X77274543Y-127224713I-216880J450514D01*
G01*
X78139999Y-124478003D02*
G75*
G02*
X77923122Y-124428518I-1J499990D01*
G01*
X79545685Y-127878001D02*
G75*
G02*
X79762565Y-127927480I15J-500000D01*
G01*
X79762562Y-124428518D02*
G75*
G02*
X79545684Y-124478003I-216876J450505D01*
G01*
X79762562Y-124428518D02*
G75*
G02*
X80411141Y-125131291I216878J-450515D01*
G01*
X80342842Y-125383549D02*
G75*
G02*
X80411141Y-125131291I500009J-3D01*
G01*
X80411140Y-127224713D02*
G75*
G02*
X79762562Y-127927485I-431700J-252258D01*
G01*
X80411140Y-127224713D02*
G75*
G02*
X80342840Y-126972455I431710J252262D01*
G01*
%TO.C,D28*%
X77342842Y-142720454D02*
X77342842Y-141131550D01*
X78140000Y-140226003D02*
X79545684Y-140226003D01*
X79545684Y-143626001D02*
X78140000Y-143626001D01*
X80342841Y-141131550D02*
X80342841Y-142720455D01*
X77274543Y-140879292D02*
G75*
G02*
X77342842Y-141131550I-431710J-252261D01*
G01*
X77274545Y-140879291D02*
G75*
G02*
X77923122Y-140176518I431700J252258D01*
G01*
X77342842Y-142720454D02*
G75*
G02*
X77274543Y-142972713I-500012J3D01*
G01*
X77923122Y-143675486D02*
G75*
G02*
X78140000Y-143626001I216878J-450515D01*
G01*
X77923123Y-143675486D02*
G75*
G02*
X77274543Y-142972713I-216880J450514D01*
G01*
X78139999Y-140226003D02*
G75*
G02*
X77923122Y-140176518I-1J499990D01*
G01*
X79545685Y-143626001D02*
G75*
G02*
X79762565Y-143675480I15J-500000D01*
G01*
X79762562Y-140176518D02*
G75*
G02*
X79545684Y-140226003I-216876J450505D01*
G01*
X79762562Y-140176518D02*
G75*
G02*
X80411141Y-140879291I216878J-450515D01*
G01*
X80342842Y-141131549D02*
G75*
G02*
X80411141Y-140879291I500009J-3D01*
G01*
X80411140Y-142972713D02*
G75*
G02*
X79762562Y-143675485I-431700J-252258D01*
G01*
X80411140Y-142972713D02*
G75*
G02*
X80342840Y-142720455I431710J252262D01*
G01*
%TO.C,D19*%
X73073159Y-126972452D02*
X73073159Y-125383547D01*
X73870316Y-124478001D02*
X75276000Y-124478001D01*
X75276000Y-127877999D02*
X73870316Y-127877999D01*
X76073158Y-125383548D02*
X76073158Y-126972452D01*
X73004860Y-125131289D02*
G75*
G02*
X73073160Y-125383547I-431710J-252262D01*
G01*
X73004860Y-125131289D02*
G75*
G02*
X73653438Y-124428517I431700J252258D01*
G01*
X73073158Y-126972453D02*
G75*
G02*
X73004859Y-127224711I-500009J3D01*
G01*
X73653438Y-127927484D02*
G75*
G02*
X73004859Y-127224711I-216878J450515D01*
G01*
X73653438Y-127927484D02*
G75*
G02*
X73870316Y-127877999I216876J-450505D01*
G01*
X73870315Y-124478001D02*
G75*
G02*
X73653435Y-124428522I-15J500000D01*
G01*
X75276001Y-127877999D02*
G75*
G02*
X75492878Y-127927484I1J-499990D01*
G01*
X75492877Y-124428516D02*
G75*
G02*
X76141457Y-125131289I216880J-450514D01*
G01*
X75492878Y-124428516D02*
G75*
G02*
X75276000Y-124478001I-216878J450515D01*
G01*
X76073158Y-125383548D02*
G75*
G02*
X76141457Y-125131289I500012J-3D01*
G01*
X76141455Y-127224711D02*
G75*
G02*
X75492878Y-127927484I-431700J-252258D01*
G01*
X76141457Y-127224710D02*
G75*
G02*
X76073158Y-126972452I431710J252261D01*
G01*
%TO.C,D22*%
X73073159Y-150594452D02*
X73073159Y-149005547D01*
X73870316Y-148100001D02*
X75276000Y-148100001D01*
X75276000Y-151499999D02*
X73870316Y-151499999D01*
X76073158Y-149005548D02*
X76073158Y-150594452D01*
X73004860Y-148753289D02*
G75*
G02*
X73073160Y-149005547I-431710J-252262D01*
G01*
X73004860Y-148753289D02*
G75*
G02*
X73653438Y-148050517I431700J252258D01*
G01*
X73073158Y-150594453D02*
G75*
G02*
X73004859Y-150846711I-500009J3D01*
G01*
X73653438Y-151549484D02*
G75*
G02*
X73004859Y-150846711I-216878J450515D01*
G01*
X73653438Y-151549484D02*
G75*
G02*
X73870316Y-151499999I216876J-450505D01*
G01*
X73870315Y-148100001D02*
G75*
G02*
X73653435Y-148050522I-15J500000D01*
G01*
X75276001Y-151499999D02*
G75*
G02*
X75492878Y-151549484I1J-499990D01*
G01*
X75492877Y-148050516D02*
G75*
G02*
X76141457Y-148753289I216880J-450514D01*
G01*
X75492878Y-148050516D02*
G75*
G02*
X75276000Y-148100001I-216878J450515D01*
G01*
X76073158Y-149005548D02*
G75*
G02*
X76141457Y-148753289I500012J-3D01*
G01*
X76141455Y-150846711D02*
G75*
G02*
X75492878Y-151549484I-431700J-252258D01*
G01*
X76141457Y-150846710D02*
G75*
G02*
X76073158Y-150594452I431710J252261D01*
G01*
%TO.C,D20*%
X73073159Y-134846452D02*
X73073159Y-133257547D01*
X73870316Y-132352001D02*
X75276000Y-132352001D01*
X75276000Y-135751999D02*
X73870316Y-135751999D01*
X76073158Y-133257548D02*
X76073158Y-134846452D01*
X73004860Y-133005289D02*
G75*
G02*
X73073160Y-133257547I-431710J-252262D01*
G01*
X73004860Y-133005289D02*
G75*
G02*
X73653438Y-132302517I431700J252258D01*
G01*
X73073158Y-134846453D02*
G75*
G02*
X73004859Y-135098711I-500009J3D01*
G01*
X73653438Y-135801484D02*
G75*
G02*
X73004859Y-135098711I-216878J450515D01*
G01*
X73653438Y-135801484D02*
G75*
G02*
X73870316Y-135751999I216876J-450505D01*
G01*
X73870315Y-132352001D02*
G75*
G02*
X73653435Y-132302522I-15J500000D01*
G01*
X75276001Y-135751999D02*
G75*
G02*
X75492878Y-135801484I1J-499990D01*
G01*
X75492877Y-132302516D02*
G75*
G02*
X76141457Y-133005289I216880J-450514D01*
G01*
X75492878Y-132302516D02*
G75*
G02*
X75276000Y-132352001I-216878J450515D01*
G01*
X76073158Y-133257548D02*
G75*
G02*
X76141457Y-133005289I500012J-3D01*
G01*
X76141455Y-135098711D02*
G75*
G02*
X75492878Y-135801484I-431700J-252258D01*
G01*
X76141457Y-135098710D02*
G75*
G02*
X76073158Y-134846452I431710J252261D01*
G01*
%TD*%
M02*
