%TF.GenerationSoftware,KiCad,Pcbnew,9.0.7*%
%TF.CreationDate,2026-02-18T17:18:56+00:00*%
%TF.ProjectId,hc_real_pad,68635f72-6561-46c5-9f70-61642e6b6963,rev?*%
%TF.SameCoordinates,Original*%
%TF.FileFunction,Copper,L2,Bot*%
%TF.FilePolarity,Positive*%
%FSLAX46Y46*%
G04 Gerber Fmt 4.6, Leading zero omitted, Abs format (unit mm)*
G04 Created by KiCad (PCBNEW 9.0.7) date 2026-02-18 17:18:56*
%MOMM*%
%LPD*%
G01*
G04 APERTURE LIST*
G04 Aperture macros list*
%AMRoundRect*
0 Rectangle with rounded corners*
0 $1 Rounding radius*
0 $2 $3 $4 $5 $6 $7 $8 $9 X,Y pos of 4 corners*
0 Add a 4 corners polygon primitive as box body*
4,1,4,$2,$3,$4,$5,$6,$7,$8,$9,$2,$3,0*
0 Add four circle primitives for the rounded corners*
1,1,$1+$1,$2,$3*
1,1,$1+$1,$4,$5*
1,1,$1+$1,$6,$7*
1,1,$1+$1,$8,$9*
0 Add four rect primitives between the rounded corners*
20,1,$1+$1,$2,$3,$4,$5,0*
20,1,$1+$1,$4,$5,$6,$7,0*
20,1,$1+$1,$6,$7,$8,$9,0*
20,1,$1+$1,$8,$9,$2,$3,0*%
G04 Aperture macros list end*
%TA.AperFunction,ComponentPad*%
%ADD10C,2.200000*%
%TD*%
%TA.AperFunction,ComponentPad*%
%ADD11R,2.000000X2.000000*%
%TD*%
%TA.AperFunction,ComponentPad*%
%ADD12C,2.000000*%
%TD*%
%TA.AperFunction,ComponentPad*%
%ADD13R,3.200000X2.000000*%
%TD*%
%TA.AperFunction,SMDPad,CuDef*%
%ADD14RoundRect,0.082000X-0.328000X-0.718000X0.328000X-0.718000X0.328000X0.718000X-0.328000X0.718000X0*%
%TD*%
%TA.AperFunction,SMDPad,CuDef*%
%ADD15RoundRect,0.082000X0.328000X0.718000X-0.328000X0.718000X-0.328000X-0.718000X0.328000X-0.718000X0*%
%TD*%
%TA.AperFunction,ComponentPad*%
%ADD16R,3.500000X1.700000*%
%TD*%
%TA.AperFunction,ComponentPad*%
%ADD17O,3.600000X1.700000*%
%TD*%
%TA.AperFunction,ComponentPad*%
%ADD18O,3.700000X1.700000*%
%TD*%
%TA.AperFunction,ComponentPad*%
%ADD19RoundRect,0.250000X-0.550000X-0.550000X0.550000X-0.550000X0.550000X0.550000X-0.550000X0.550000X0*%
%TD*%
%TA.AperFunction,ComponentPad*%
%ADD20C,1.600000*%
%TD*%
%TA.AperFunction,ComponentPad*%
%ADD21R,1.700000X1.700000*%
%TD*%
%TA.AperFunction,ComponentPad*%
%ADD22O,1.700000X1.700000*%
%TD*%
%TA.AperFunction,ComponentPad*%
%ADD23RoundRect,0.250000X0.550000X0.550000X-0.550000X0.550000X-0.550000X-0.550000X0.550000X-0.550000X0*%
%TD*%
%TA.AperFunction,ComponentPad*%
%ADD24RoundRect,0.250000X-0.550000X0.550000X-0.550000X-0.550000X0.550000X-0.550000X0.550000X0.550000X0*%
%TD*%
%TA.AperFunction,ComponentPad*%
%ADD25RoundRect,0.250000X0.550000X-0.550000X0.550000X0.550000X-0.550000X0.550000X-0.550000X-0.550000X0*%
%TD*%
%TA.AperFunction,ViaPad*%
%ADD26C,0.600000*%
%TD*%
%TA.AperFunction,Conductor*%
%ADD27C,0.200000*%
%TD*%
G04 APERTURE END LIST*
D10*
%TO.P,SW14,1,1*%
%TO.N,COL1*%
X172720000Y-116840000D03*
%TO.P,SW14,2,2*%
%TO.N,Net-(D14-A)*%
X166370000Y-119380000D03*
%TD*%
%TO.P,SW2,1,1*%
%TO.N,COL1*%
X115570000Y-116840000D03*
%TO.P,SW2,2,2*%
%TO.N,Net-(D2-A)*%
X109220000Y-119380000D03*
%TD*%
D11*
%TO.P,SW18,A,A*%
%TO.N,Net-(D18-A)*%
X197750000Y-102830000D03*
D12*
%TO.P,SW18,B,B*%
%TO.N,COL4*%
X197750000Y-97830000D03*
%TO.P,SW18,C,C*%
%TO.N,GND*%
X197750000Y-100330000D03*
D13*
%TO.P,SW18,MP*%
%TO.N,N/C*%
X190250000Y-105930000D03*
X190250000Y-94730000D03*
D12*
%TO.P,SW18,S1,S1*%
%TO.N,ENCSWB1*%
X183250000Y-97830000D03*
%TO.P,SW18,S2,S2*%
%TO.N,ENCSWA1*%
X183250000Y-102830000D03*
%TD*%
D14*
%TO.P,D21,1,VDD*%
%TO.N,VCC*%
X73823158Y-144526000D03*
%TO.P,D21,2,DOUT*%
%TO.N,Net-(D21-DOUT)*%
X75323158Y-144526000D03*
%TO.P,D21,3,VSS*%
%TO.N,GND*%
X75323158Y-139326000D03*
%TO.P,D21,4,DIN*%
%TO.N,Net-(D20-DOUT)*%
X73823158Y-139326000D03*
%TD*%
%TO.P,D25,1,VDD*%
%TO.N,VCC*%
X65187158Y-144526000D03*
%TO.P,D25,2,DOUT*%
%TO.N,Net-(D25-DOUT)*%
X66687158Y-144526000D03*
%TO.P,D25,3,VSS*%
%TO.N,GND*%
X66687158Y-139326000D03*
%TO.P,D25,4,DIN*%
%TO.N,Net-(D24-DOUT)*%
X65187158Y-139326000D03*
%TD*%
D10*
%TO.P,SW4,1,1*%
%TO.N,COL3*%
X115570000Y-154940000D03*
%TO.P,SW4,2,2*%
%TO.N,Net-(D4-A)*%
X109220000Y-157480000D03*
%TD*%
D14*
%TO.P,D26,1,VDD*%
%TO.N,VCC*%
X65187158Y-152400000D03*
%TO.P,D26,2,DOUT*%
%TO.N,Net-(D26-DOUT)*%
X66687158Y-152400000D03*
%TO.P,D26,3,VSS*%
%TO.N,GND*%
X66687158Y-147200000D03*
%TO.P,D26,4,DIN*%
%TO.N,Net-(D25-DOUT)*%
X65187158Y-147200000D03*
%TD*%
D10*
%TO.P,SW11,1,1*%
%TO.N,COL2*%
X153670000Y-135890000D03*
%TO.P,SW11,2,2*%
%TO.N,Net-(D11-A)*%
X147320000Y-138430000D03*
%TD*%
D15*
%TO.P,D31,1,VDD*%
%TO.N,VCC*%
X70956842Y-147200002D03*
%TO.P,D31,2,DOUT*%
%TO.N,Net-(D31-DOUT)*%
X69456842Y-147200002D03*
%TO.P,D31,3,VSS*%
%TO.N,GND*%
X69456842Y-152400002D03*
%TO.P,D31,4,DIN*%
%TO.N,Net-(D26-DOUT)*%
X70956842Y-152400002D03*
%TD*%
D14*
%TO.P,D23,1,VDD*%
%TO.N,VCC*%
X65187158Y-128778000D03*
%TO.P,D23,2,DOUT*%
%TO.N,Net-(D23-DOUT)*%
X66687158Y-128778000D03*
%TO.P,D23,3,VSS*%
%TO.N,GND*%
X66687158Y-123578000D03*
%TO.P,D23,4,DIN*%
%TO.N,WS2812B*%
X65187158Y-123578000D03*
%TD*%
D10*
%TO.P,SW1,1,1*%
%TO.N,COL0*%
X115570000Y-97790000D03*
%TO.P,SW1,2,2*%
%TO.N,Net-(D1-A)*%
X109220000Y-100330000D03*
%TD*%
%TO.P,SW6,1,1*%
%TO.N,COL1*%
X134620000Y-116840000D03*
%TO.P,SW6,2,2*%
%TO.N,Net-(D6-A)*%
X128270000Y-119380000D03*
%TD*%
D15*
%TO.P,D34,1,VDD*%
%TO.N,VCC*%
X70956842Y-123578002D03*
%TO.P,D34,2,DOUT*%
%TO.N,Net-(D19-DIN)*%
X69456842Y-123578002D03*
%TO.P,D34,3,VSS*%
%TO.N,GND*%
X69456842Y-128778002D03*
%TO.P,D34,4,DIN*%
%TO.N,Net-(D33-DOUT)*%
X70956842Y-128778002D03*
%TD*%
%TO.P,D27,1,VDD*%
%TO.N,VCC*%
X79592842Y-147260001D03*
%TO.P,D27,2,DOUT*%
%TO.N,Net-(D27-DOUT)*%
X78092842Y-147260001D03*
%TO.P,D27,3,VSS*%
%TO.N,GND*%
X78092842Y-152460001D03*
%TO.P,D27,4,DIN*%
%TO.N,Net-(D22-DOUT)*%
X79592842Y-152460001D03*
%TD*%
D10*
%TO.P,SW8,1,1*%
%TO.N,COL3*%
X134620000Y-154940000D03*
%TO.P,SW8,2,2*%
%TO.N,Net-(D8-A)*%
X128270000Y-157480000D03*
%TD*%
%TO.P,SW9,1,1*%
%TO.N,COL0*%
X153670000Y-97790000D03*
%TO.P,SW9,2,2*%
%TO.N,Net-(D9-A)*%
X147320000Y-100330000D03*
%TD*%
D11*
%TO.P,SW17,A,A*%
%TO.N,Net-(D17-A)*%
X197750000Y-119340000D03*
D12*
%TO.P,SW17,B,B*%
%TO.N,COL4*%
X197750000Y-114340000D03*
%TO.P,SW17,C,C*%
%TO.N,GND*%
X197750000Y-116840000D03*
D13*
%TO.P,SW17,MP*%
%TO.N,N/C*%
X190250000Y-122440000D03*
X190250000Y-111240000D03*
D12*
%TO.P,SW17,S1,S1*%
%TO.N,ENCSWB0*%
X183250000Y-114340000D03*
%TO.P,SW17,S2,S2*%
%TO.N,ENCSWA0*%
X183250000Y-119340000D03*
%TD*%
D15*
%TO.P,D33,1,VDD*%
%TO.N,VCC*%
X70956842Y-131452002D03*
%TO.P,D33,2,DOUT*%
%TO.N,Net-(D33-DOUT)*%
X69456842Y-131452002D03*
%TO.P,D33,3,VSS*%
%TO.N,GND*%
X69456842Y-136652002D03*
%TO.P,D33,4,DIN*%
%TO.N,Net-(D32-DOUT)*%
X70956842Y-136652002D03*
%TD*%
%TO.P,D32,1,VDD*%
%TO.N,VCC*%
X70956842Y-139326002D03*
%TO.P,D32,2,DOUT*%
%TO.N,Net-(D32-DOUT)*%
X69456842Y-139326002D03*
%TO.P,D32,3,VSS*%
%TO.N,GND*%
X69456842Y-144526002D03*
%TO.P,D32,4,DIN*%
%TO.N,Net-(D31-DOUT)*%
X70956842Y-144526002D03*
%TD*%
D10*
%TO.P,SW3,1,1*%
%TO.N,COL2*%
X115570000Y-135890000D03*
%TO.P,SW3,2,2*%
%TO.N,Net-(D3-A)*%
X109220000Y-138430000D03*
%TD*%
%TO.P,SW5,1,1*%
%TO.N,COL0*%
X134620000Y-97790000D03*
%TO.P,SW5,2,2*%
%TO.N,Net-(D5-A)*%
X128270000Y-100330000D03*
%TD*%
D14*
%TO.P,D24,1,VDD*%
%TO.N,VCC*%
X65187158Y-136652000D03*
%TO.P,D24,2,DOUT*%
%TO.N,Net-(D24-DOUT)*%
X66687158Y-136652000D03*
%TO.P,D24,3,VSS*%
%TO.N,GND*%
X66687158Y-131452000D03*
%TO.P,D24,4,DIN*%
%TO.N,Net-(D23-DOUT)*%
X65187158Y-131452000D03*
%TD*%
D10*
%TO.P,SW12,1,1*%
%TO.N,COL3*%
X153670000Y-154940000D03*
%TO.P,SW12,2,2*%
%TO.N,Net-(D12-A)*%
X147320000Y-157480000D03*
%TD*%
D16*
%TO.P,U1,1,PA02_A0_D0*%
%TO.N,INTA*%
X63760000Y-100330000D03*
D17*
%TO.P,U1,2,PA4_A1_D1*%
%TO.N,ENCSWA0*%
X63760000Y-102870000D03*
%TO.P,U1,3,PA10_A2_D2*%
%TO.N,ENCSWB0*%
X63760000Y-105410000D03*
%TO.P,U1,4,PA11_A3_D3*%
%TO.N,ENCSWA1*%
X63760000Y-107950000D03*
%TO.P,U1,5,PA8_A4_D4_SDA*%
%TO.N,SDA*%
X63760000Y-110490000D03*
%TO.P,U1,6,PA9_A5_D5_SCL*%
%TO.N,SCL*%
X63760000Y-113030000D03*
%TO.P,U1,7,PB08_A6_D6_TX*%
%TO.N,ENCSWB1*%
X63760000Y-115570000D03*
%TO.P,U1,8,PB09_A7_D7_RX*%
%TO.N,unconnected-(U1-PB09_A7_D7_RX-Pad8)*%
X81010000Y-115570000D03*
%TO.P,U1,9,PA7_A8_D8_SCK*%
%TO.N,unconnected-(U1-PA7_A8_D8_SCK-Pad9)*%
X81010000Y-113030000D03*
%TO.P,U1,10,PA5_A9_D9_MISO*%
%TO.N,unconnected-(U1-PA5_A9_D9_MISO-Pad10)*%
X81010000Y-110490000D03*
D18*
%TO.P,U1,11,PA6_A10_D10_MOSI*%
%TO.N,WS2812B*%
X81010000Y-107950000D03*
%TO.P,U1,12,3V3*%
%TO.N,+3.3V*%
X81010000Y-105410000D03*
%TO.P,U1,13,GND*%
%TO.N,GND*%
X81010000Y-102870000D03*
%TO.P,U1,14,5V*%
%TO.N,VCC*%
X81010000Y-100330000D03*
%TD*%
D15*
%TO.P,D29,1,VDD*%
%TO.N,VCC*%
X79592842Y-131452002D03*
%TO.P,D29,2,DOUT*%
%TO.N,Net-(D29-DOUT)*%
X78092842Y-131452002D03*
%TO.P,D29,3,VSS*%
%TO.N,GND*%
X78092842Y-136652002D03*
%TO.P,D29,4,DIN*%
%TO.N,Net-(D28-DOUT)*%
X79592842Y-136652002D03*
%TD*%
D10*
%TO.P,SW15,1,1*%
%TO.N,COL2*%
X172720000Y-135890000D03*
%TO.P,SW15,2,2*%
%TO.N,Net-(D15-A)*%
X166370000Y-138430000D03*
%TD*%
%TO.P,SW16,1,1*%
%TO.N,COL3*%
X172720000Y-154940000D03*
%TO.P,SW16,2,2*%
%TO.N,Net-(D16-A)*%
X166370000Y-157480000D03*
%TD*%
D15*
%TO.P,D30,1,VDD*%
%TO.N,VCC*%
X79592842Y-123578002D03*
%TO.P,D30,2,DOUT*%
%TO.N,unconnected-(D30-DOUT-Pad2)*%
X78092842Y-123578002D03*
%TO.P,D30,3,VSS*%
%TO.N,GND*%
X78092842Y-128778002D03*
%TO.P,D30,4,DIN*%
%TO.N,Net-(D29-DOUT)*%
X79592842Y-128778002D03*
%TD*%
D19*
%TO.P,U3,1,GPB0*%
%TO.N,ROW0*%
X91440000Y-113030000D03*
D20*
%TO.P,U3,2,GPB1*%
%TO.N,ROW1*%
X91440000Y-115570000D03*
%TO.P,U3,3,GPB2*%
%TO.N,ROW2*%
X91440000Y-118110000D03*
%TO.P,U3,4,GPB3*%
%TO.N,ROW3*%
X91440000Y-120650000D03*
%TO.P,U3,5,GPB4*%
%TO.N,unconnected-(U3-GPB4-Pad5)*%
X91440000Y-123190000D03*
%TO.P,U3,6,GPB5*%
%TO.N,unconnected-(U3-GPB5-Pad6)*%
X91440000Y-125730000D03*
%TO.P,U3,7,GPB6*%
%TO.N,unconnected-(U3-GPB6-Pad7)*%
X91440000Y-128270000D03*
%TO.P,U3,8,GPB7*%
%TO.N,unconnected-(U3-GPB7-Pad8)*%
X91440000Y-130810000D03*
%TO.P,U3,9,VDD*%
%TO.N,+3.3V*%
X91440000Y-133350000D03*
%TO.P,U3,10,VSS*%
%TO.N,GND*%
X91440000Y-135890000D03*
%TO.P,U3,11,NC*%
%TO.N,unconnected-(U3-NC-Pad11)*%
X91440000Y-138430000D03*
%TO.P,U3,12,SCK*%
%TO.N,SCL*%
X91440000Y-140970000D03*
%TO.P,U3,13,SDA*%
%TO.N,SDA*%
X91440000Y-143510000D03*
%TO.P,U3,14,NC*%
%TO.N,unconnected-(U3-NC-Pad14)*%
X91440000Y-146050000D03*
%TO.P,U3,15,A0*%
%TO.N,unconnected-(U3-A0-Pad15)*%
X99060000Y-146050000D03*
%TO.P,U3,16,A1*%
%TO.N,unconnected-(U3-A1-Pad16)*%
X99060000Y-143510000D03*
%TO.P,U3,17,A2*%
%TO.N,unconnected-(U3-A2-Pad17)*%
X99060000Y-140970000D03*
%TO.P,U3,18,~{RESET}*%
%TO.N,unconnected-(U3-~{RESET}-Pad18)*%
X99060000Y-138430000D03*
%TO.P,U3,19,INTB*%
%TO.N,unconnected-(U3-INTB-Pad19)*%
X99060000Y-135890000D03*
%TO.P,U3,20,INTA*%
%TO.N,INTA*%
X99060000Y-133350000D03*
%TO.P,U3,21,GPA0*%
%TO.N,COL0*%
X99060000Y-130810000D03*
%TO.P,U3,22,GPA1*%
%TO.N,COL1*%
X99060000Y-128270000D03*
%TO.P,U3,23,GPA2*%
%TO.N,COL2*%
X99060000Y-125730000D03*
%TO.P,U3,24,GPA3*%
%TO.N,COL3*%
X99060000Y-123190000D03*
%TO.P,U3,25,GPA4*%
%TO.N,COL4*%
X99060000Y-120650000D03*
%TO.P,U3,26,GPA5*%
%TO.N,unconnected-(U3-GPA5-Pad26)*%
X99060000Y-118110000D03*
%TO.P,U3,27,GPA6*%
%TO.N,unconnected-(U3-GPA6-Pad27)*%
X99060000Y-115570000D03*
%TO.P,U3,28,GPA7*%
%TO.N,unconnected-(U3-GPA7-Pad28)*%
X99060000Y-113030000D03*
%TD*%
D21*
%TO.P,J1,1,Pin_1*%
%TO.N,GND*%
X63665000Y-167525000D03*
D22*
%TO.P,J1,2,Pin_2*%
%TO.N,VCC*%
X63665000Y-164985000D03*
%TO.P,J1,3,Pin_3*%
%TO.N,SCL*%
X63665000Y-162445000D03*
%TO.P,J1,4,Pin_4*%
%TO.N,SDA*%
X63665000Y-159905000D03*
%TD*%
D15*
%TO.P,D28,1,VDD*%
%TO.N,VCC*%
X79592842Y-139326002D03*
%TO.P,D28,2,DOUT*%
%TO.N,Net-(D28-DOUT)*%
X78092842Y-139326002D03*
%TO.P,D28,3,VSS*%
%TO.N,GND*%
X78092842Y-144526002D03*
%TO.P,D28,4,DIN*%
%TO.N,Net-(D27-DOUT)*%
X79592842Y-144526002D03*
%TD*%
D10*
%TO.P,SW10,1,1*%
%TO.N,COL1*%
X153670000Y-116840000D03*
%TO.P,SW10,2,2*%
%TO.N,Net-(D10-A)*%
X147320000Y-119380000D03*
%TD*%
D14*
%TO.P,D19,1,VDD*%
%TO.N,VCC*%
X73823158Y-128778000D03*
%TO.P,D19,2,DOUT*%
%TO.N,Net-(D19-DOUT)*%
X75323158Y-128778000D03*
%TO.P,D19,3,VSS*%
%TO.N,GND*%
X75323158Y-123578000D03*
%TO.P,D19,4,DIN*%
%TO.N,Net-(D19-DIN)*%
X73823158Y-123578000D03*
%TD*%
D10*
%TO.P,SW13,1,1*%
%TO.N,COL0*%
X172720000Y-97790000D03*
%TO.P,SW13,2,2*%
%TO.N,Net-(D13-A)*%
X166370000Y-100330000D03*
%TD*%
%TO.P,SW7,1,1*%
%TO.N,COL2*%
X134620000Y-135890000D03*
%TO.P,SW7,2,2*%
%TO.N,Net-(D7-A)*%
X128270000Y-138430000D03*
%TD*%
D14*
%TO.P,D22,1,VDD*%
%TO.N,VCC*%
X73823158Y-152400000D03*
%TO.P,D22,2,DOUT*%
%TO.N,Net-(D22-DOUT)*%
X75323158Y-152400000D03*
%TO.P,D22,3,VSS*%
%TO.N,GND*%
X75323158Y-147200000D03*
%TO.P,D22,4,DIN*%
%TO.N,Net-(D21-DOUT)*%
X73823158Y-147200000D03*
%TD*%
%TO.P,D20,1,VDD*%
%TO.N,VCC*%
X73823158Y-136652000D03*
%TO.P,D20,2,DOUT*%
%TO.N,Net-(D20-DOUT)*%
X75323158Y-136652000D03*
%TO.P,D20,3,VSS*%
%TO.N,GND*%
X75323158Y-131452000D03*
%TO.P,D20,4,DIN*%
%TO.N,Net-(D19-DOUT)*%
X73823158Y-131452000D03*
%TD*%
D23*
%TO.P,D11,1,K*%
%TO.N,ROW2*%
X154940000Y-149860000D03*
D20*
%TO.P,D11,2,A*%
%TO.N,Net-(D11-A)*%
X147320000Y-149860000D03*
%TD*%
D23*
%TO.P,D4,1,K*%
%TO.N,ROW0*%
X116840000Y-168910000D03*
D20*
%TO.P,D4,2,A*%
%TO.N,Net-(D4-A)*%
X109220000Y-168910000D03*
%TD*%
D23*
%TO.P,D9,1,K*%
%TO.N,ROW2*%
X154940000Y-111760000D03*
D20*
%TO.P,D9,2,A*%
%TO.N,Net-(D9-A)*%
X147320000Y-111760000D03*
%TD*%
D23*
%TO.P,D14,1,K*%
%TO.N,ROW3*%
X173990000Y-130810000D03*
D20*
%TO.P,D14,2,A*%
%TO.N,Net-(D14-A)*%
X166370000Y-130810000D03*
%TD*%
D24*
%TO.P,D17,1,K*%
%TO.N,ROW0*%
X201930000Y-115570000D03*
D20*
%TO.P,D17,2,A*%
%TO.N,Net-(D17-A)*%
X201930000Y-123190000D03*
%TD*%
D23*
%TO.P,D7,1,K*%
%TO.N,ROW1*%
X135890000Y-149860000D03*
D20*
%TO.P,D7,2,A*%
%TO.N,Net-(D7-A)*%
X128270000Y-149860000D03*
%TD*%
D23*
%TO.P,D6,1,K*%
%TO.N,ROW1*%
X135890000Y-130810000D03*
D20*
%TO.P,D6,2,A*%
%TO.N,Net-(D6-A)*%
X128270000Y-130810000D03*
%TD*%
D23*
%TO.P,D10,1,K*%
%TO.N,ROW2*%
X154940000Y-130810000D03*
D20*
%TO.P,D10,2,A*%
%TO.N,Net-(D10-A)*%
X147320000Y-130810000D03*
%TD*%
D23*
%TO.P,D13,1,K*%
%TO.N,ROW3*%
X173990000Y-111760000D03*
D20*
%TO.P,D13,2,A*%
%TO.N,Net-(D13-A)*%
X166370000Y-111760000D03*
%TD*%
D23*
%TO.P,D16,1,K*%
%TO.N,ROW3*%
X173990000Y-168910000D03*
D20*
%TO.P,D16,2,A*%
%TO.N,Net-(D16-A)*%
X166370000Y-168910000D03*
%TD*%
D23*
%TO.P,D1,1,K*%
%TO.N,ROW0*%
X116840000Y-111760000D03*
D20*
%TO.P,D1,2,A*%
%TO.N,Net-(D1-A)*%
X109220000Y-111760000D03*
%TD*%
D23*
%TO.P,D8,1,K*%
%TO.N,ROW1*%
X135890000Y-168910000D03*
D20*
%TO.P,D8,2,A*%
%TO.N,Net-(D8-A)*%
X128270000Y-168910000D03*
%TD*%
D23*
%TO.P,D5,1,K*%
%TO.N,ROW1*%
X135890000Y-111760000D03*
D20*
%TO.P,D5,2,A*%
%TO.N,Net-(D5-A)*%
X128270000Y-111760000D03*
%TD*%
D23*
%TO.P,D12,1,K*%
%TO.N,ROW2*%
X154940000Y-168910000D03*
D20*
%TO.P,D12,2,A*%
%TO.N,Net-(D12-A)*%
X147320000Y-168910000D03*
%TD*%
D23*
%TO.P,D2,1,K*%
%TO.N,ROW0*%
X116840000Y-130810000D03*
D20*
%TO.P,D2,2,A*%
%TO.N,Net-(D2-A)*%
X109220000Y-130810000D03*
%TD*%
D25*
%TO.P,D18,1,K*%
%TO.N,ROW0*%
X201930000Y-111760000D03*
D20*
%TO.P,D18,2,A*%
%TO.N,Net-(D18-A)*%
X201930000Y-104140000D03*
%TD*%
D23*
%TO.P,D3,1,K*%
%TO.N,ROW0*%
X116840000Y-149860000D03*
D20*
%TO.P,D3,2,A*%
%TO.N,Net-(D3-A)*%
X109220000Y-149860000D03*
%TD*%
D23*
%TO.P,D15,1,K*%
%TO.N,ROW3*%
X173990000Y-149860000D03*
D20*
%TO.P,D15,2,A*%
%TO.N,Net-(D15-A)*%
X166370000Y-149860000D03*
%TD*%
D26*
%TO.N,GND*%
X78092842Y-136652002D03*
X78092842Y-144526002D03*
X78092842Y-128778002D03*
X66687158Y-147200000D03*
X78092842Y-152460001D03*
X69456842Y-144526002D03*
X69456842Y-152400002D03*
X75323158Y-123578000D03*
X69456842Y-128778002D03*
X69456842Y-136652002D03*
X75323158Y-147200000D03*
X66687158Y-131452000D03*
X66687158Y-123578000D03*
X66687158Y-139326000D03*
%TO.N,VCC*%
X73823158Y-144526000D03*
X73823158Y-128778000D03*
X71882000Y-121606001D03*
X79592842Y-139326002D03*
X73823158Y-136652000D03*
X79592842Y-131452002D03*
X70956842Y-123578002D03*
X79592842Y-147260001D03*
X70956842Y-131452002D03*
X65187158Y-128778000D03*
%TO.N,WS2812B*%
X74930000Y-109220000D03*
%TO.N,COL4*%
X101600000Y-113030000D03*
X101600000Y-120650000D03*
%TO.N,ENCSWB1*%
X73660000Y-98579000D03*
%TO.N,ENCSWA1*%
X73025000Y-97790000D03*
%TO.N,INTA*%
X96520000Y-133350000D03*
%TD*%
D27*
%TO.N,ROW0*%
X119380000Y-114300000D02*
X116840000Y-111760000D01*
X201930000Y-111760000D02*
X199390000Y-109220000D01*
X119380000Y-152400000D02*
X116840000Y-149860000D01*
X116840000Y-130810000D02*
X119380000Y-128270000D01*
X119380000Y-147320000D02*
X119380000Y-133350000D01*
X116840000Y-149860000D02*
X119380000Y-147320000D01*
X119380000Y-109220000D02*
X116840000Y-111760000D01*
X199390000Y-109220000D02*
X119380000Y-109220000D01*
X119380000Y-128270000D02*
X119380000Y-114300000D01*
X119380000Y-133350000D02*
X116840000Y-130810000D01*
X116840000Y-168910000D02*
X119380000Y-166370000D01*
X119380000Y-166370000D02*
X119380000Y-152400000D01*
%TO.N,ROW1*%
X135890000Y-168910000D02*
X138430000Y-166370000D01*
X135890000Y-149860000D02*
X138430000Y-147320000D01*
X138430000Y-147320000D02*
X138430000Y-133350000D01*
X138430000Y-128270000D02*
X138430000Y-114300000D01*
X138430000Y-133350000D02*
X135890000Y-130810000D01*
X135890000Y-130810000D02*
X138430000Y-128270000D01*
X138430000Y-166370000D02*
X138430000Y-152400000D01*
X138430000Y-152400000D02*
X135890000Y-149860000D01*
X138430000Y-114300000D02*
X135890000Y-111760000D01*
%TO.N,ROW2*%
X157480000Y-114300000D02*
X154940000Y-111760000D01*
X157480000Y-133350000D02*
X154940000Y-130810000D01*
X157480000Y-147320000D02*
X157480000Y-133350000D01*
X154940000Y-149860000D02*
X157480000Y-147320000D01*
X157480000Y-152400000D02*
X154940000Y-149860000D01*
X154940000Y-168910000D02*
X157480000Y-166370000D01*
X154940000Y-130810000D02*
X157480000Y-128270000D01*
X157480000Y-166370000D02*
X157480000Y-152400000D01*
X157480000Y-128270000D02*
X157480000Y-114300000D01*
%TO.N,ROW3*%
X173990000Y-149860000D02*
X176530000Y-147320000D01*
X173990000Y-168910000D02*
X176530000Y-166370000D01*
X176530000Y-128270000D02*
X176530000Y-114300000D01*
X176530000Y-152400000D02*
X173990000Y-149860000D01*
X176530000Y-133350000D02*
X173990000Y-130810000D01*
X176530000Y-114300000D02*
X173990000Y-111760000D01*
X173990000Y-130810000D02*
X176530000Y-128270000D01*
X176530000Y-147320000D02*
X176530000Y-133350000D01*
X176530000Y-166370000D02*
X176530000Y-152400000D01*
%TO.N,Net-(D18-A)*%
X200660000Y-104140000D02*
X199350000Y-102830000D01*
X199350000Y-102830000D02*
X197750000Y-102830000D01*
X201930000Y-104140000D02*
X200660000Y-104140000D01*
%TO.N,Net-(D19-DOUT)*%
X73823158Y-131452000D02*
X73823158Y-130652000D01*
X75323158Y-129152000D02*
X75323158Y-128778000D01*
X73823158Y-130652000D02*
X75323158Y-129152000D01*
%TO.N,GND*%
X83161000Y-127611000D02*
X83161000Y-104933240D01*
X78092842Y-136652002D02*
X75418844Y-139326000D01*
X78092842Y-136652002D02*
X77997156Y-136652002D01*
X77997156Y-144526002D02*
X75323158Y-147200000D01*
X75418844Y-131452000D02*
X75323158Y-131452000D01*
X66782844Y-131452000D02*
X69456842Y-128778002D01*
X75418844Y-139326000D02*
X75323158Y-139326000D01*
X78092842Y-136652002D02*
X78092842Y-136706843D01*
X66687158Y-131452000D02*
X66782844Y-131452000D01*
X81097760Y-102870000D02*
X80010000Y-102870000D01*
X83161000Y-104933240D02*
X81097760Y-102870000D01*
X91440000Y-135890000D02*
X83161000Y-127611000D01*
X78092842Y-128778002D02*
X75418844Y-131452000D01*
X78092842Y-144526002D02*
X77997156Y-144526002D01*
%TO.N,Net-(D19-DIN)*%
X69456842Y-123488088D02*
X69456842Y-123578002D01*
X72722160Y-122477002D02*
X70467928Y-122477002D01*
X70467928Y-122477002D02*
X69456842Y-123488088D01*
X73823158Y-123578000D02*
X72722160Y-122477002D01*
%TO.N,VCC*%
X63612316Y-130352842D02*
X63612316Y-136063999D01*
X72321156Y-153902002D02*
X72517153Y-154097999D01*
X81138316Y-129906528D02*
X79592842Y-131452002D01*
X80010000Y-100330000D02*
X78420841Y-101919159D01*
X62514000Y-155073158D02*
X65187158Y-152400000D01*
X63612316Y-136063999D02*
X64693738Y-137145421D01*
X81137580Y-139326738D02*
X81138316Y-139326002D01*
X62514000Y-163834000D02*
X62514000Y-155073158D01*
X70978316Y-139326002D02*
X70956842Y-139326002D01*
X79592842Y-123578002D02*
X79786843Y-123384001D01*
X79544758Y-154097999D02*
X81138316Y-152504441D01*
X65187158Y-153200000D02*
X65889160Y-153902002D01*
X81138316Y-129764844D02*
X81138316Y-129906528D01*
X65107157Y-144445999D02*
X65187158Y-144526000D01*
X81138316Y-145715999D02*
X81137580Y-145715263D01*
X79786843Y-123384001D02*
X80264000Y-123384001D01*
X64693738Y-137145421D02*
X63612316Y-138226842D01*
X81138316Y-152504441D02*
X81138316Y-145715999D01*
X73630844Y-128778000D02*
X73823158Y-128778000D01*
X65889160Y-153902002D02*
X72321156Y-153902002D01*
X70956842Y-131452002D02*
X73630844Y-128778000D01*
X78420841Y-121606001D02*
X71882000Y-121606001D01*
X73823158Y-144526000D02*
X71149156Y-147200002D01*
X71149156Y-147200002D02*
X70956842Y-147200002D01*
X63665000Y-164985000D02*
X62514000Y-163834000D01*
X81137580Y-145715263D02*
X79592842Y-147260001D01*
X64374316Y-144445999D02*
X65107157Y-144445999D01*
X72321156Y-153902002D02*
X73823158Y-152400000D01*
X79592842Y-123578002D02*
X79592842Y-122778002D01*
X81136844Y-139326002D02*
X81137580Y-139326738D01*
X65187158Y-136652000D02*
X64693738Y-137145421D01*
X79592842Y-139326002D02*
X81136844Y-139326002D01*
X71149156Y-139326002D02*
X70978316Y-139326002D01*
X81138316Y-124258317D02*
X81138316Y-129764844D01*
X63612316Y-138226842D02*
X63612316Y-143683999D01*
X78420841Y-101919159D02*
X78420841Y-121606001D01*
X72517153Y-154097999D02*
X79544758Y-154097999D01*
X79592842Y-122778002D02*
X78420841Y-121606001D01*
X81138316Y-139326002D02*
X81138316Y-129764844D01*
X65187158Y-128778000D02*
X63612316Y-130352842D01*
X63612316Y-143683999D02*
X64374316Y-144445999D01*
X81137580Y-145715263D02*
X81137580Y-139326738D01*
X65187158Y-152400000D02*
X65187158Y-153200000D01*
X73823158Y-136652000D02*
X71149156Y-139326002D01*
X80264000Y-123384001D02*
X81138316Y-124258317D01*
%TO.N,Net-(D20-DOUT)*%
X75323158Y-137026000D02*
X75323158Y-136652000D01*
X73823158Y-139326000D02*
X73823158Y-138526000D01*
X73823158Y-138526000D02*
X75323158Y-137026000D01*
%TO.N,Net-(D21-DOUT)*%
X73823158Y-147267001D02*
X73823158Y-146467001D01*
X75323158Y-144967001D02*
X75323158Y-144526000D01*
X73823158Y-146467001D02*
X75323158Y-144967001D01*
%TO.N,Net-(D22-DOUT)*%
X76417158Y-153561001D02*
X75323158Y-152467001D01*
X79592842Y-152549915D02*
X78581756Y-153561001D01*
X78581756Y-153561001D02*
X76417158Y-153561001D01*
X79592842Y-152460001D02*
X79592842Y-152549915D01*
%TO.N,Net-(D23-DOUT)*%
X66687158Y-128778000D02*
X66687158Y-129578000D01*
X66687158Y-129578000D02*
X65187158Y-131078000D01*
X65187158Y-131078000D02*
X65187158Y-131452000D01*
%TO.N,WS2812B*%
X65187158Y-118962842D02*
X65187158Y-123578000D01*
X74930000Y-109220000D02*
X65187158Y-118962842D01*
%TO.N,Net-(D24-DOUT)*%
X66687158Y-136652000D02*
X66687158Y-137452000D01*
X66687158Y-137452000D02*
X65187158Y-138952000D01*
X65187158Y-138952000D02*
X65187158Y-139326000D01*
%TO.N,Net-(D25-DOUT)*%
X65187158Y-146826000D02*
X65187158Y-147200000D01*
X66687158Y-145326000D02*
X65187158Y-146826000D01*
X66687158Y-144526000D02*
X66687158Y-145326000D01*
%TO.N,Net-(D26-DOUT)*%
X67788160Y-153501002D02*
X66687158Y-152400000D01*
X69945756Y-153501002D02*
X67788160Y-153501002D01*
X70956842Y-152400002D02*
X70956842Y-152489916D01*
X70956842Y-152489916D02*
X69945756Y-153501002D01*
%TO.N,Net-(D27-DOUT)*%
X79592842Y-144526002D02*
X79592842Y-145326002D01*
X78092842Y-146826002D02*
X78092842Y-147260001D01*
X79592842Y-145326002D02*
X78092842Y-146826002D01*
%TO.N,Net-(D28-DOUT)*%
X79592842Y-136652002D02*
X79592842Y-137452002D01*
X78092842Y-138952002D02*
X78092842Y-139326002D01*
X79592842Y-137452002D02*
X78092842Y-138952002D01*
%TO.N,Net-(D29-DOUT)*%
X79592842Y-128778002D02*
X79592842Y-129578002D01*
X78092842Y-131078002D02*
X78092842Y-131452002D01*
X79592842Y-129578002D02*
X78092842Y-131078002D01*
%TO.N,Net-(D31-DOUT)*%
X70956842Y-145326002D02*
X69456842Y-146826002D01*
X70956842Y-144526002D02*
X70956842Y-145326002D01*
X69456842Y-146826002D02*
X69456842Y-147200002D01*
%TO.N,Net-(D32-DOUT)*%
X69456842Y-138952002D02*
X69456842Y-139326002D01*
X70956842Y-136652002D02*
X70956842Y-137452002D01*
X70956842Y-137452002D02*
X69456842Y-138952002D01*
%TO.N,Net-(D33-DOUT)*%
X70956842Y-129578002D02*
X69456842Y-131078002D01*
X69456842Y-131078002D02*
X69456842Y-131452002D01*
X70956842Y-128778002D02*
X70956842Y-129578002D01*
%TO.N,SCL*%
X81539316Y-150870684D02*
X81539316Y-152670541D01*
X64816000Y-165461760D02*
X64141760Y-166136000D01*
X61659000Y-164606760D02*
X61659000Y-114871000D01*
X61659000Y-114871000D02*
X63500000Y-113030000D01*
X63665000Y-162445000D02*
X64816000Y-163596000D01*
X71764857Y-162445000D02*
X63665000Y-162445000D01*
X64141760Y-166136000D02*
X63188240Y-166136000D01*
X63500000Y-113030000D02*
X64760000Y-113030000D01*
X81539316Y-152670541D02*
X71764857Y-162445000D01*
X91440000Y-140970000D02*
X81539316Y-150870684D01*
X63188240Y-166136000D02*
X61659000Y-164606760D01*
X64816000Y-163596000D02*
X64816000Y-165461760D01*
%TO.N,COL0*%
X100161000Y-129709000D02*
X99060000Y-130810000D01*
X115570000Y-97790000D02*
X114785184Y-97790000D01*
X114785184Y-97790000D02*
X100161000Y-112414184D01*
X100161000Y-112414184D02*
X100161000Y-129709000D01*
%TO.N,COL1*%
X99516050Y-131911000D02*
X98603950Y-131911000D01*
X100562000Y-130865050D02*
X99516050Y-131911000D01*
X98603950Y-131911000D02*
X97959000Y-131266050D01*
X97959000Y-131266050D02*
X97959000Y-129371000D01*
X100562000Y-125498000D02*
X100562000Y-130865050D01*
X115570000Y-116840000D02*
X109220000Y-116840000D01*
X97959000Y-129371000D02*
X99060000Y-128270000D01*
X109220000Y-116840000D02*
X100562000Y-125498000D01*
%TO.N,COL2*%
X98603950Y-134451000D02*
X97558000Y-133405050D01*
X97558000Y-127232000D02*
X99060000Y-125730000D01*
X115570000Y-135890000D02*
X114131000Y-134451000D01*
X97558000Y-133405050D02*
X97558000Y-127232000D01*
X114131000Y-134451000D02*
X98603950Y-134451000D01*
%TO.N,COL3*%
X115570000Y-153044950D02*
X99516050Y-136991000D01*
X98603950Y-136991000D02*
X97157000Y-135544050D01*
X97157000Y-135544050D02*
X97157000Y-125093000D01*
X115570000Y-154940000D02*
X115570000Y-153044950D01*
X99516050Y-136991000D02*
X98603950Y-136991000D01*
X97157000Y-125093000D02*
X99060000Y-123190000D01*
%TO.N,COL4*%
X101600000Y-113030000D02*
X101600000Y-120650000D01*
%TO.N,ENCSWB1*%
X73660000Y-98579000D02*
X73814000Y-98425000D01*
X106045000Y-95250000D02*
X180670000Y-95250000D01*
X102870000Y-98425000D02*
X106045000Y-95250000D01*
X180670000Y-95250000D02*
X183250000Y-97830000D01*
X73814000Y-98425000D02*
X102870000Y-98425000D01*
%TO.N,ENCSWA1*%
X182711108Y-96529000D02*
X183788892Y-96529000D01*
X184551000Y-96921000D02*
X184551000Y-101529000D01*
X184551000Y-101529000D02*
X183250000Y-102830000D01*
X180836100Y-94849000D02*
X182613604Y-96626504D01*
X73025000Y-97790000D02*
X102937900Y-97790000D01*
X182613604Y-96626504D02*
X182711108Y-96529000D01*
X184365946Y-97106054D02*
X184551000Y-96921000D01*
X102937900Y-97790000D02*
X105878900Y-94849000D01*
X183788892Y-96529000D02*
X184365946Y-97106054D01*
X105878900Y-94849000D02*
X180836100Y-94849000D01*
%TO.N,INTA*%
X82486760Y-99179000D02*
X96520000Y-113212240D01*
X64760000Y-100330000D02*
X65911000Y-99179000D01*
X96520000Y-113212240D02*
X96520000Y-133350000D01*
X65911000Y-99179000D02*
X82486760Y-99179000D01*
%TD*%
M02*
