M48
; DRILL file {KiCad 9.0.7} date 2026-02-18T23:53:23+0000
; FORMAT={-:-/ absolute / inch / decimal}
; #@! TF.CreationDate,2026-02-18T23:53:23+00:00
; #@! TF.GenerationSoftware,Kicad,Pcbnew,9.0.7
; #@! TF.FileFunction,Plated,1,2,PTH
FMAT,2
INCH
; #@! TA.AperFunction,Plated,PTH,ViaDrill
T1C0.0118
; #@! TA.AperFunction,Plated,PTH,ComponentDrill
T2C0.0315
; #@! TA.AperFunction,Plated,PTH,ComponentDrill
T3C0.0394
; #@! TA.AperFunction,Plated,PTH,ComponentDrill
T4C0.0591
%
G90
G05
T1
X2.5664Y-5.07
X2.6255Y-4.8653
X2.6255Y-5.1753
X2.6255Y-5.4853
X2.6255Y-5.7953
X2.7345Y-5.07
X2.7345Y-5.38
X2.7345Y-5.69
X2.7345Y-6.0
X2.7936Y-4.8653
X2.7936Y-5.1753
X2.83Y-4.7876
X2.875Y-3.85
X2.9Y-3.8811
X2.9064Y-5.07
X2.9064Y-5.38
X2.9064Y-5.69
X2.95Y-4.3
X2.9655Y-4.8653
X2.9655Y-5.7953
X3.0745Y-5.07
X3.0745Y-5.38
X3.0745Y-5.69
X3.0745Y-6.0024
X3.1336Y-5.1753
X3.1336Y-5.4853
X3.1336Y-5.7976
X3.8Y-5.25
X4.0Y-4.45
X4.0Y-4.75
T2
X3.6Y-4.45
X3.6Y-4.55
X3.6Y-4.65
X3.6Y-4.75
X3.6Y-4.85
X3.6Y-4.95
X3.6Y-5.05
X3.6Y-5.15
X3.6Y-5.25
X3.6Y-5.35
X3.6Y-5.45
X3.6Y-5.55
X3.6Y-5.65
X3.6Y-5.75
X3.9Y-4.45
X3.9Y-4.55
X3.9Y-4.65
X3.9Y-4.75
X3.9Y-4.85
X3.9Y-4.95
X3.9Y-5.05
X3.9Y-5.15
X3.9Y-5.25
X3.9Y-5.35
X3.9Y-5.45
X3.9Y-5.55
X3.9Y-5.65
X3.9Y-5.75
X4.3Y-4.4
X4.3Y-5.15
X4.3Y-5.9
X4.3Y-6.65
X4.6Y-4.4
X4.6Y-5.15
X4.6Y-5.9
X4.6Y-6.65
X5.05Y-4.4
X5.05Y-5.15
X5.05Y-5.9
X5.05Y-6.65
X5.35Y-4.4
X5.35Y-5.15
X5.35Y-5.9
X5.35Y-6.65
X5.8Y-4.4
X5.8Y-5.15
X5.8Y-5.9
X5.8Y-6.65
X6.1Y-4.4
X6.1Y-5.15
X6.1Y-5.9
X6.1Y-6.65
X6.55Y-4.4
X6.55Y-5.15
X6.55Y-5.9
X6.55Y-6.65
X6.85Y-4.4
X6.85Y-5.15
X6.85Y-5.9
X6.85Y-6.65
X7.95Y-4.1
X7.95Y-4.4
X7.95Y-4.55
X7.95Y-4.85
T3
X2.5065Y-6.2955
X2.5065Y-6.3955
X2.5065Y-6.4955
X2.5065Y-6.5955
X2.5496Y-3.95
X2.5496Y-4.05
X2.5496Y-4.15
X2.5496Y-4.25
X2.5496Y-4.35
X2.5496Y-4.45
X2.5496Y-4.55
X3.15Y-3.95
X3.15Y-4.05
X3.15Y-4.15
X3.15Y-4.25
X3.15Y-4.35
X3.15Y-4.45
X3.15Y-4.55
X7.2146Y-3.8516
X7.2146Y-4.0484
X7.2146Y-4.5016
X7.2146Y-4.6984
X7.7854Y-3.8516
X7.7854Y-3.95
X7.7854Y-4.0484
X7.7854Y-4.5016
X7.7854Y-4.6
X7.7854Y-4.6984
T4
X4.3Y-3.95
X4.3Y-4.7
X4.3Y-5.45
X4.3Y-6.2
X4.55Y-3.85
X4.55Y-4.6
X4.55Y-5.35
X4.55Y-6.1
X5.05Y-3.95
X5.05Y-4.7
X5.05Y-5.45
X5.05Y-6.2
X5.3Y-3.85
X5.3Y-4.6
X5.3Y-5.35
X5.3Y-6.1
X5.8Y-3.95
X5.8Y-4.7
X5.8Y-5.45
X5.8Y-6.2
X6.05Y-3.85
X6.05Y-4.6
X6.05Y-5.35
X6.05Y-6.1
X6.55Y-3.95
X6.55Y-4.7
X6.55Y-5.45
X6.55Y-6.2
X6.8Y-3.85
X6.8Y-4.6
X6.8Y-5.35
X6.8Y-6.1
T4
G00X7.5157Y-3.7295
M15
G01X7.4646Y-3.7295
M16
G05
G00X7.5157Y-4.1705
M15
G01X7.4646Y-4.1705
M16
G05
G00X7.5157Y-4.3795
M15
G01X7.4646Y-4.3795
M16
G05
G00X7.5157Y-4.8205
M15
G01X7.4646Y-4.8205
M16
G05
M30
