%TF.GenerationSoftware,KiCad,Pcbnew,9.0.7*%
%TF.CreationDate,2026-02-18T23:53:23+00:00*%
%TF.ProjectId,hc_real_pad,68635f72-6561-46c5-9f70-61642e6b6963,rev?*%
%TF.SameCoordinates,Original*%
%TF.FileFunction,Soldermask,Top*%
%TF.FilePolarity,Negative*%
%FSLAX46Y46*%
G04 Gerber Fmt 4.6, Leading zero omitted, Abs format (unit mm)*
G04 Created by KiCad (PCBNEW 9.0.7) date 2026-02-18 23:53:23*
%MOMM*%
%LPD*%
G01*
G04 APERTURE LIST*
G04 Aperture macros list*
%AMRoundRect*
0 Rectangle with rounded corners*
0 $1 Rounding radius*
0 $2 $3 $4 $5 $6 $7 $8 $9 X,Y pos of 4 corners*
0 Add a 4 corners polygon primitive as box body*
4,1,4,$2,$3,$4,$5,$6,$7,$8,$9,$2,$3,0*
0 Add four circle primitives for the rounded corners*
1,1,$1+$1,$2,$3*
1,1,$1+$1,$4,$5*
1,1,$1+$1,$6,$7*
1,1,$1+$1,$8,$9*
0 Add four rect primitives between the rounded corners*
20,1,$1+$1,$2,$3,$4,$5,0*
20,1,$1+$1,$4,$5,$6,$7,0*
20,1,$1+$1,$6,$7,$8,$9,0*
20,1,$1+$1,$8,$9,$2,$3,0*%
G04 Aperture macros list end*
%ADD10C,2.200000*%
%ADD11R,2.000000X2.000000*%
%ADD12C,2.000000*%
%ADD13R,3.200000X2.000000*%
%ADD14R,3.500000X1.700000*%
%ADD15O,3.600000X1.700000*%
%ADD16O,3.700000X1.700000*%
%ADD17RoundRect,0.250000X-0.550000X-0.550000X0.550000X-0.550000X0.550000X0.550000X-0.550000X0.550000X0*%
%ADD18C,1.600000*%
%ADD19R,1.700000X1.700000*%
%ADD20O,1.700000X1.700000*%
%ADD21RoundRect,0.250000X0.550000X0.550000X-0.550000X0.550000X-0.550000X-0.550000X0.550000X-0.550000X0*%
%ADD22RoundRect,0.250000X-0.550000X0.550000X-0.550000X-0.550000X0.550000X-0.550000X0.550000X0.550000X0*%
%ADD23RoundRect,0.250000X0.550000X-0.550000X0.550000X0.550000X-0.550000X0.550000X-0.550000X-0.550000X0*%
G04 APERTURE END LIST*
D10*
%TO.C,SW14*%
X172720000Y-116840000D03*
X166370000Y-119380000D03*
%TD*%
%TO.C,SW2*%
X115570000Y-116840000D03*
X109220000Y-119380000D03*
%TD*%
D11*
%TO.C,SW18*%
X197750000Y-102830000D03*
D12*
X197750000Y-97830000D03*
X197750000Y-100330000D03*
D13*
X190250000Y-105930000D03*
X190250000Y-94730000D03*
D12*
X183250000Y-97830000D03*
X183250000Y-102830000D03*
%TD*%
D10*
%TO.C,SW4*%
X115570000Y-154940000D03*
X109220000Y-157480000D03*
%TD*%
%TO.C,SW11*%
X153670000Y-135890000D03*
X147320000Y-138430000D03*
%TD*%
%TO.C,SW1*%
X115570000Y-97790000D03*
X109220000Y-100330000D03*
%TD*%
%TO.C,SW6*%
X134620000Y-116840000D03*
X128270000Y-119380000D03*
%TD*%
%TO.C,SW8*%
X134620000Y-154940000D03*
X128270000Y-157480000D03*
%TD*%
%TO.C,SW9*%
X153670000Y-97790000D03*
X147320000Y-100330000D03*
%TD*%
D11*
%TO.C,SW17*%
X197750000Y-119340000D03*
D12*
X197750000Y-114340000D03*
X197750000Y-116840000D03*
D13*
X190250000Y-122440000D03*
X190250000Y-111240000D03*
D12*
X183250000Y-114340000D03*
X183250000Y-119340000D03*
%TD*%
D10*
%TO.C,SW3*%
X115570000Y-135890000D03*
X109220000Y-138430000D03*
%TD*%
%TO.C,SW5*%
X134620000Y-97790000D03*
X128270000Y-100330000D03*
%TD*%
%TO.C,SW12*%
X153670000Y-154940000D03*
X147320000Y-157480000D03*
%TD*%
D14*
%TO.C,U1*%
X63760000Y-100330000D03*
D15*
X63760000Y-102870000D03*
X63760000Y-105410000D03*
X63760000Y-107950000D03*
X63760000Y-110490000D03*
X63760000Y-113030000D03*
X63760000Y-115570000D03*
X81010000Y-115570000D03*
X81010000Y-113030000D03*
X81010000Y-110490000D03*
D16*
X81010000Y-107950000D03*
X81010000Y-105410000D03*
X81010000Y-102870000D03*
X81010000Y-100330000D03*
%TD*%
D10*
%TO.C,SW15*%
X172720000Y-135890000D03*
X166370000Y-138430000D03*
%TD*%
%TO.C,SW16*%
X172720000Y-154940000D03*
X166370000Y-157480000D03*
%TD*%
D17*
%TO.C,U3*%
X91440000Y-113030000D03*
D18*
X91440000Y-115570000D03*
X91440000Y-118110000D03*
X91440000Y-120650000D03*
X91440000Y-123190000D03*
X91440000Y-125730000D03*
X91440000Y-128270000D03*
X91440000Y-130810000D03*
X91440000Y-133350000D03*
X91440000Y-135890000D03*
X91440000Y-138430000D03*
X91440000Y-140970000D03*
X91440000Y-143510000D03*
X91440000Y-146050000D03*
X99060000Y-146050000D03*
X99060000Y-143510000D03*
X99060000Y-140970000D03*
X99060000Y-138430000D03*
X99060000Y-135890000D03*
X99060000Y-133350000D03*
X99060000Y-130810000D03*
X99060000Y-128270000D03*
X99060000Y-125730000D03*
X99060000Y-123190000D03*
X99060000Y-120650000D03*
X99060000Y-118110000D03*
X99060000Y-115570000D03*
X99060000Y-113030000D03*
%TD*%
D19*
%TO.C,J1*%
X63665000Y-167525000D03*
D20*
X63665000Y-164985000D03*
X63665000Y-162445000D03*
X63665000Y-159905000D03*
%TD*%
D10*
%TO.C,SW10*%
X153670000Y-116840000D03*
X147320000Y-119380000D03*
%TD*%
%TO.C,SW13*%
X172720000Y-97790000D03*
X166370000Y-100330000D03*
%TD*%
%TO.C,SW7*%
X134620000Y-135890000D03*
X128270000Y-138430000D03*
%TD*%
D21*
%TO.C,D11*%
X154940000Y-149860000D03*
D18*
X147320000Y-149860000D03*
%TD*%
D21*
%TO.C,D4*%
X116840000Y-168910000D03*
D18*
X109220000Y-168910000D03*
%TD*%
D21*
%TO.C,D9*%
X154940000Y-111760000D03*
D18*
X147320000Y-111760000D03*
%TD*%
D21*
%TO.C,D14*%
X173990000Y-130810000D03*
D18*
X166370000Y-130810000D03*
%TD*%
D22*
%TO.C,D17*%
X201930000Y-115570000D03*
D18*
X201930000Y-123190000D03*
%TD*%
D21*
%TO.C,D7*%
X135890000Y-149860000D03*
D18*
X128270000Y-149860000D03*
%TD*%
D21*
%TO.C,D6*%
X135890000Y-130810000D03*
D18*
X128270000Y-130810000D03*
%TD*%
D21*
%TO.C,D10*%
X154940000Y-130810000D03*
D18*
X147320000Y-130810000D03*
%TD*%
D21*
%TO.C,D13*%
X173990000Y-111760000D03*
D18*
X166370000Y-111760000D03*
%TD*%
D21*
%TO.C,D16*%
X173990000Y-168910000D03*
D18*
X166370000Y-168910000D03*
%TD*%
D21*
%TO.C,D1*%
X116840000Y-111760000D03*
D18*
X109220000Y-111760000D03*
%TD*%
D21*
%TO.C,D8*%
X135890000Y-168910000D03*
D18*
X128270000Y-168910000D03*
%TD*%
D21*
%TO.C,D5*%
X135890000Y-111760000D03*
D18*
X128270000Y-111760000D03*
%TD*%
D21*
%TO.C,D12*%
X154940000Y-168910000D03*
D18*
X147320000Y-168910000D03*
%TD*%
D21*
%TO.C,D2*%
X116840000Y-130810000D03*
D18*
X109220000Y-130810000D03*
%TD*%
D23*
%TO.C,D18*%
X201930000Y-111760000D03*
D18*
X201930000Y-104140000D03*
%TD*%
D21*
%TO.C,D3*%
X116840000Y-149860000D03*
D18*
X109220000Y-149860000D03*
%TD*%
D21*
%TO.C,D15*%
X173990000Y-149860000D03*
D18*
X166370000Y-149860000D03*
%TD*%
M02*
